<svg xmlns="http://www.w3.org/2000/svg" width="1024" height="1024" viewBox="0 0 256 256" version="1.1" class="injected-svg" data-src="https://storage.googleapis.com/illustroke-c1d67.appspot.com/sKvoQfSqEHPmlLobzx5EfRxGct22/76sm22r6fer1kduh3uxi00j-0.svg" xmlns:xlink="http://www.w3.org/1999/xlink"><rect width="1024" height="1024" fill="white"/>
	<path d="M 63.327 72.968 C 63.572 73.811, 64.061 75.193, 64.413 76.040 C 64.887 77.181, 63.805 78.108, 60.237 79.615 C 57.176 80.909, 54.035 83.341, 51.619 86.290 C 46.626 92.383, 45.617 100.085, 48.853 107.401 C 50.218 110.487, 51.365 111.893, 52.131 111.419 C 52.834 110.985, 53.044 111.120, 52.651 111.755 C 51.692 113.307, 52.976 116, 54.675 116 C 55.860 116, 56.098 117.650, 55.933 124.750 C 55.822 129.563, 56.050 134.679, 56.441 136.119 C 57.054 138.380, 56.804 138.804, 54.610 139.224 C 53.213 139.491, 51.926 139.277, 51.750 138.749 C 51.574 138.221, 50.002 140.087, 48.256 142.895 L 45.083 148 54.148 148 C 62.004 148, 63.133 148.211, 62.607 149.582 C 62.273 150.452, 62 151.559, 62 152.043 C 62 152.526, 61.015 153.840, 59.811 154.961 C 57.935 156.709, 56.300 157, 48.349 157 L 39.075 157 35.159 162.765 L 31.244 168.530 41.177 167.653 C 46.640 167.171, 51.362 167.029, 51.671 167.338 C 51.980 167.647, 50.831 170.179, 49.117 172.965 C 47.402 175.751, 46 178.248, 46 178.515 C 46 178.782, 51.194 179, 57.542 179 L 69.084 179 66.373 183.750 C 64.882 186.363, 63.030 189.247, 62.258 190.159 C 61.027 191.614, 61.107 191.899, 62.905 192.470 C 65.208 193.201, 113.038 192.296, 113.827 191.506 C 114.106 191.228, 108.633 191, 101.667 191 C 94.700 191, 89 190.815, 89 190.589 C 89 190.363, 89.962 187.663, 91.139 184.589 L 93.278 179 104.776 179 L 116.274 179 115.752 185.500 C 115.465 189.075, 115.516 192.065, 115.865 192.144 C 116.214 192.223, 135.625 192.344, 159 192.412 C 182.375 192.481, 199.907 192.394, 197.961 192.220 C 195.976 192.043, 193.964 191.157, 193.379 190.202 C 192.806 189.266, 191.093 186.363, 189.573 183.750 L 186.810 179 198.197 179 L 209.584 179 214.375 185.250 L 219.167 191.500 216.333 192.132 C 214.775 192.479, 219.238 192.817, 226.250 192.882 C 233.262 192.947, 239 192.621, 239 192.157 C 239 191.109, 229.147 177, 228.415 177 C 228.122 177, 228.170 177.467, 228.523 178.037 C 228.953 178.734, 225.956 178.980, 219.404 178.787 L 209.644 178.500 206.293 173.250 L 202.941 168 212.997 168 L 223.053 168 219.592 162.861 L 216.131 157.722 207.198 157.918 L 198.265 158.115 196.133 154.500 C 192.611 148.531, 193.032 148, 201.300 148 C 205.755 148, 209.125 148.487, 209.947 149.250 C 211.669 150.849, 210.788 149.168, 206.872 143.381 C 204.527 139.917, 203.666 139.341, 201.455 139.764 C 199.145 140.205, 198.870 139.977, 199.187 137.883 C 199.410 136.407, 200.109 135.624, 201.024 135.827 C 201.846 136.009, 201.226 134.820, 199.625 133.142 C 196.973 130.363, 196.784 129.664, 197.186 124.108 C 197.553 119.026, 198.045 117.753, 200.331 115.955 C 203.100 113.777, 206.676 108.012, 205.276 107.985 C 204.849 107.976, 205.144 107.562, 205.930 107.064 C 206.812 106.506, 207.525 103.893, 207.788 100.251 C 208.129 95.543, 207.764 93.459, 205.995 89.991 C 201.905 81.974, 193.925 77.525, 185.225 78.411 C 178.763 79.069, 176.667 80.480, 177.292 83.749 C 177.616 85.441, 177.080 86.557, 175.425 87.641 C 174.148 88.478, 172.319 91.263, 171.361 93.831 C 170.402 96.399, 169.025 99.439, 168.301 100.587 C 167.158 102.398, 167.247 102.913, 168.973 104.476 C 170.546 105.899, 171.926 106.145, 175.548 105.648 C 178.070 105.303, 181.104 104.340, 182.289 103.510 C 185.031 101.589, 183.927 101.586, 179.346 103.500 C 171.518 106.771, 167.070 104.538, 170.350 98.984 C 171.258 97.448, 172 95.428, 172 94.496 C 172 92.034, 178.416 86, 181.034 86 C 185.098 86, 191.146 88.334, 194.007 91.006 C 197.277 94.061, 199.412 100.847, 198.463 105.167 L 197.804 108.167 186.496 107.834 C 180.276 107.650, 175.397 107.838, 175.653 108.250 C 175.909 108.662, 175.641 109, 175.059 109 C 173.851 109, 173.604 112.638, 174.764 113.354 C 175.184 113.614, 175.366 115.865, 175.168 118.356 C 174.848 122.374, 174.508 122.932, 172.154 123.293 L 169.500 123.700 172.250 123.850 C 174.755 123.987, 175 124.348, 175 127.906 C 175 132.001, 174.632 132.151, 169 130.340 C 168.175 130.075, 164.800 129.757, 161.500 129.635 C 156.996 129.468, 154.582 128.788, 151.816 126.909 C 149.721 125.485, 148.427 123.932, 148.816 123.308 C 149.222 122.657, 153.230 122.163, 158.674 122.091 C 166.660 121.986, 167.907 122.199, 168.308 123.735 C 168.659 125.081, 168.796 124.966, 168.884 123.250 C 168.994 121.119, 168.628 121, 161.969 121 C 156.641 121, 154.798 120.637, 154.362 119.500 C 154.045 118.675, 152.934 118, 151.893 118 C 150.476 118, 150 117.279, 150 115.135 C 150 113.559, 149.067 111.084, 147.927 109.635 C 143.197 103.621, 131.815 108.333, 132.136 116.173 C 132.244 118.812, 132.356 118.983, 132.678 117 C 133.654 110.981, 137.080 108, 143.021 108 C 145.252 108, 146.312 108.703, 147.474 110.950 C 151.326 118.400, 147.354 127.595, 141.235 125.390 C 138.193 124.294, 138.024 121.793, 140.784 118.707 C 142.458 116.836, 143.459 108.598, 141.896 109.565 C 141.403 109.869, 141 111.865, 141 114 C 141 118.538, 139.589 119.843, 137.108 117.598 C 136.137 116.719, 134.954 116, 134.480 116 C 134.006 116, 134.403 116.574, 135.363 117.276 C 136.470 118.086, 136.863 119.192, 136.438 120.302 C 135.881 121.753, 135.503 121.834, 134.219 120.776 C 132.857 119.652, 132.814 119.766, 133.866 121.740 C 135.540 124.882, 140.664 127.317, 144.138 126.622 C 146.671 126.116, 147 126.335, 147 128.525 C 147 130.883, 146.717 131, 141 131 L 135 131 135 128 L 135 125 128.475 125 C 122.003 125, 121.945 125.025, 121.341 128.046 C 120.739 131.053, 120.660 131.088, 115.116 130.796 C 108.070 130.425, 107.528 128.287, 114 126.391 C 116.475 125.665, 119.997 123.700, 121.826 122.023 C 124.716 119.373, 125.064 118.548, 124.478 115.737 C 123.618 111.609, 121.342 108, 119.599 108 C 118.854 108, 117.685 107.325, 117 106.500 C 113.852 102.707, 107 106.193, 107 111.588 C 107 116.556, 98.274 122.956, 91.500 122.956 C 89.850 122.956, 86.588 122.088, 84.250 121.027 C 79.934 119.068, 79.265 117.627, 79.827 111.500 C 80.488 104.295, 80.392 104.487, 83.181 104.813 C 87.906 105.363, 88.449 102.219, 84.868 95.053 C 83.173 91.659, 81.020 88.405, 80.084 87.820 C 78.928 87.099, 78.516 85.843, 78.800 83.907 C 79.243 80.890, 77.890 79.865, 71.728 78.545 C 69.364 78.038, 69.106 77.670, 69.978 76.041 C 71.665 72.888, 71.190 72.228, 66.940 71.823 C 63.657 71.510, 62.966 71.729, 63.327 72.968 M 179.701 89.632 C 178.368 90.965, 179.006 94.788, 180.667 95.426 C 182.893 96.280, 184.245 94.765, 183.835 91.876 C 183.506 89.565, 181.084 88.250, 179.701 89.632 M 72.390 91.426 C 71.480 93.797, 72.767 96.191, 74.747 95.810 C 75.854 95.597, 76.500 94.561, 76.500 93 C 76.500 90.149, 73.344 88.941, 72.390 91.426 M 55.333 112.500 C 55.333 114.174, 58.537 114.559, 59.500 113 C 59.840 112.450, 63.016 112, 66.559 112 C 70.186 112, 73 112.437, 73 113 C 73 113.550, 74.125 114, 75.500 114 C 77.056 114, 78 113.433, 78 112.500 C 78 111.255, 76.074 111, 66.667 111 C 57.259 111, 55.333 111.255, 55.333 112.500 M 74.813 112.683 C 75.534 112.972, 76.397 112.936, 76.729 112.604 C 77.061 112.272, 76.471 112.036, 75.417 112.079 C 74.252 112.127, 74.015 112.364, 74.813 112.683 M 68.750 113.662 C 69.438 113.940, 70.563 113.940, 71.250 113.662 C 71.938 113.385, 71.375 113.158, 70 113.158 C 68.625 113.158, 68.063 113.385, 68.750 113.662 M 59.269 116.693 C 60.242 116.947, 61.592 116.930, 62.269 116.656 C 62.946 116.382, 62.150 116.175, 60.500 116.195 C 58.850 116.215, 58.296 116.439, 59.269 116.693 M 176.341 118.555 C 175.129 121.713, 176.633 134.509, 178.572 137.535 C 181.477 142.068, 183.073 142.936, 188.500 142.936 C 194.311 142.936, 196.565 141.547, 198.156 136.984 C 199.124 134.207, 199.045 133.506, 197.651 132.487 C 196.383 131.560, 196 129.623, 196 124.140 L 196 117 186.469 117 C 178.770 117, 176.823 117.299, 176.341 118.555 M 80 128 C 80 130.913, 80.138 131, 84.750 130.996 L 89.500 130.993 86.359 129.077 C 84.632 128.024, 82.918 126.676, 82.550 126.081 C 81.287 124.037, 80 125.005, 80 128 M 97.500 128 C 97.160 128.550, 97.359 129, 97.941 129 C 98.523 129, 99 128.550, 99 128 C 99 127.450, 98.802 127, 98.559 127 C 98.316 127, 97.840 127.450, 97.500 128 M 93.299 134.500 L 91.630 138 84.565 138.046 C 77.602 138.092, 77.457 138.148, 74.500 141.884 C 72.850 143.970, 71.725 146.042, 72 146.490 C 72.275 146.937, 75.537 147.205, 79.250 147.085 C 86.819 146.839, 87.015 147.089, 83.961 153.077 L 81.922 157.073 91.603 156.787 L 101.284 156.500 102.536 152.250 L 103.789 148 95.311 148 C 90.648 148, 86.986 147.662, 87.172 147.250 C 87.358 146.838, 88.161 144.813, 88.956 142.750 L 90.402 139 98.289 139 L 106.176 139 105.500 143 L 104.824 147 112.412 147 L 120 147 120 144.082 C 120 142.477, 120.273 140.452, 120.607 139.582 C 121.126 138.230, 120.173 138, 114.062 138 L 106.909 138 107.566 134.500 L 108.223 131 101.595 131 C 95.005 131, 94.958 131.020, 93.299 134.500 M 121.390 132.427 C 121.088 133.212, 120.990 134.900, 121.171 136.177 C 121.476 138.331, 122.027 138.521, 128.745 138.794 L 135.990 139.087 136.623 143.044 L 137.256 147 144.695 147 C 151.935 147, 152.117 146.940, 151.488 144.750 C 149.665 138.408, 149.134 138.886, 157.641 139.206 L 165.444 139.500 167.683 143.500 L 169.922 147.500 176.531 147.651 C 184.533 147.834, 185.444 146.613, 180.806 141.921 C 177.837 138.917, 176.819 138.536, 170.826 138.180 C 164.646 137.812, 164.068 137.579, 163.010 135.023 C 161.961 132.492, 161.313 132.218, 155.183 131.723 C 151.507 131.425, 148.395 131.284, 148.267 131.407 C 148.139 131.531, 148.445 133.065, 148.947 134.816 L 149.860 138 142.976 138 L 136.091 138 135.434 134.500 L 134.777 131 128.357 131 C 123.718 131, 121.785 131.396, 121.390 132.427 M 185.164 146.302 C 184.570 147.018, 184.326 148.531, 184.622 149.664 C 184.969 150.989, 184.597 151.941, 183.581 152.331 C 182.711 152.664, 182 153.851, 182 154.969 C 182 156.624, 181.351 157, 178.500 157 C 174.393 157, 174.235 157.764, 177.250 163.044 L 179.500 166.985 190.703 166.992 L 201.907 167 200.203 164.006 C 198.262 160.595, 197.737 160.407, 196 162.500 C 195.116 163.565, 192.778 164, 187.937 164 C 184.186 164, 180.908 163.662, 180.651 163.250 C 180.394 162.838, 183.519 162.648, 187.595 162.829 C 194.551 163.138, 195.058 163.018, 195.854 160.866 C 196.896 158.050, 196.354 155.757, 194.068 153.303 C 192.929 152.081, 192.571 150.748, 193.038 149.465 C 193.431 148.384, 193.303 146.938, 192.754 146.250 C 191.444 144.611, 186.540 144.644, 185.164 146.302 M 120 149.375 C 120 150.131, 119.719 152.156, 119.375 153.875 L 118.750 157 127.875 157 L 137 157 137 152.500 L 137 148 128.500 148 C 121.955 148, 120 148.316, 120 149.375 M 153.006 148.750 C 153.009 149.162, 153.480 151.188, 154.053 153.250 L 155.094 157 164.047 157 C 168.971 157, 173 156.784, 173 156.520 C 173 156.256, 172.276 154.231, 171.391 152.020 L 169.783 148 161.391 148 C 156.776 148, 153.003 148.338, 153.006 148.750 M 75 159.060 C 75 161.004, 74.486 161.109, 65.924 160.921 L 56.848 160.721 54.939 163.861 L 53.029 167 64.502 167 L 75.975 167 78.487 163.020 C 81.724 157.893, 81.652 157, 78 157 C 75.637 157, 75 157.438, 75 159.060 M 99.594 161.678 C 98.717 164.251, 98 166.501, 98 166.678 C 98 166.855, 102.453 167, 107.895 167 L 117.790 167 118.239 162.750 C 118.486 160.412, 118.507 158.162, 118.285 157.750 C 118.063 157.338, 114.126 157, 109.535 157 L 101.188 157 99.594 161.678 M 138.195 161.750 L 138.500 166.500 148.250 166.786 C 153.613 166.944, 158 166.911, 158 166.714 C 158 166.517, 157.283 164.251, 156.406 161.678 L 154.812 157 146.351 157 L 137.890 157 138.195 161.750 M 73.833 171.751 C 72.366 174.363, 71.126 176.920, 71.076 177.433 C 70.988 178.353, 74.461 178.517, 86.801 178.175 C 92.909 178.005, 93.143 177.900, 94.431 174.750 C 97.831 166.438, 98.382 167, 86.817 167.001 L 76.500 167.002 73.833 171.751 M 118.551 168.250 C 118.338 168.938, 117.950 171.381, 117.687 173.679 L 117.209 177.859 125.355 178.179 C 138.072 178.680, 139.002 178.441, 138.986 174.684 C 138.954 167.127, 138.778 167, 128.352 167 C 121.693 167, 118.824 167.366, 118.551 168.250 M 160.320 170.500 C 160.597 172.150, 161.303 174.738, 161.887 176.250 L 162.950 179 174.557 179 L 186.163 179 183.890 175.250 C 182.639 173.188, 181.162 170.740, 180.606 169.812 C 179.790 168.448, 177.700 168.064, 169.706 167.812 L 159.815 167.500 160.320 170.500 M 224 171 C 224.589 172.100, 225.295 173, 225.570 173 C 225.845 173, 225.589 172.100, 225 171 C 224.411 169.900, 223.705 169, 223.430 169 C 223.155 169, 223.411 169.900, 224 171 M 20.250 184.569 C 17.363 188.563, 15 192.133, 15 192.503 C 15 193.279, 59.016 192.318, 59.808 191.525 C 60.097 191.236, 55.083 191, 48.667 191 C 42.250 191, 37 190.725, 37 190.389 C 37 190.053, 38.800 187.628, 41 185 C 43.200 182.372, 45 179.947, 45 179.611 C 45 179.275, 40.763 179, 35.583 179 C 30.404 179, 26.017 178.619, 25.833 178.153 C 25.650 177.688, 23.138 180.575, 20.250 184.569 M 140 181.875 C 140 183.456, 140.281 186.156, 140.625 187.875 L 141.250 191 154.059 191 L 166.869 191 164.843 185 L 162.816 179 151.408 179 L 140 179 140 181.875" stroke="none" fill="#212121" fill-rule="evenodd" fill-opacity="1"/>
</svg>