<svg xmlns="http://www.w3.org/2000/svg" width="1024" height="1024" viewBox="0 0 256 256" version="1.1" class="injected-svg" data-src="https://storage.googleapis.com/illustroke-c1d67.appspot.com/sKvoQfSqEHPmlLobzx5EfRxGct22/k5q1wlsbq7ozb995hkga9m-2.svg" xmlns:xlink="http://www.w3.org/1999/xlink"><rect width="1024" height="1024" fill="white"/>
	<path d="M 75.227 52.553 C 74.125 53.325, 73 55.429, 72.727 57.228 C 71.696 64.011, 65.189 88.067, 63.998 89.503 C 63.314 90.326, 61.711 91, 60.434 91 C 58.539 91, 56.602 88.572, 49.860 77.750 C 45.320 70.463, 41.540 63.375, 41.459 62 C 41.195 57.495, 41.022 57.082, 38.933 55.964 C 37.320 55.101, 36.319 55.216, 34.373 56.492 C 30.606 58.960, 31.452 62.988, 36.227 65.321 C 39.218 66.783, 41.266 69.333, 46.596 78.235 C 55.565 93.212, 56.316 95.104, 54.382 97.866 C 53.022 99.807, 53.039 103.779, 54.541 135.767 C 55.907 164.868, 56.505 171.825, 57.764 173.250 C 59.209 174.886, 63.893 174.999, 129.405 174.986 C 167.957 174.979, 200.512 174.701, 201.750 174.370 C 205.512 173.361, 204.690 169.502, 200.250 167.332 C 196.642 165.569, 196.498 165.303, 196.459 160.293 C 196.411 154.073, 193.633 150.083, 184.390 142.960 C 178.025 138.055, 173.985 131.656, 174.022 126.538 C 174.100 115.701, 187.191 105.351, 196.135 109.056 C 199.785 110.568, 202.991 115.352, 202.996 119.295 C 203.002 123.231, 198.958 127.011, 194.795 126.960 L 191.500 126.920 194.500 125.315 C 198.306 123.278, 198.966 122.247, 198.985 118.307 C 199.005 114.086, 195.964 112, 189.793 112 C 182.957 112, 178.926 115.717, 178.261 122.633 C 177.366 131.954, 184.866 141.452, 195.585 144.568 C 208.953 148.454, 222.333 141.201, 229.784 126.030 C 232.189 121.133, 232.500 119.355, 232.500 110.500 C 232.500 101.785, 232.161 99.778, 229.865 94.880 C 216.315 65.983, 176.871 62.672, 150 88.177 L 145.500 92.448 134.500 92.474 C 128.450 92.488, 111.696 92.388, 97.269 92.250 L 71.038 92 70.362 89.305 C 69.964 87.721, 70.576 82.675, 71.847 77.055 C 75.366 61.501, 75.901 60, 77.925 60 C 82.225 60, 83.401 53.416, 79.365 51.934 C 78.002 51.433, 76.507 51.657, 75.227 52.553 M 178.263 74.514 C 170.270 76.251, 161.592 80.893, 154.836 87.048 L 149.500 91.909 152.500 92.124 C 160.122 92.671, 164.893 91.737, 172.500 88.210 C 180.198 84.640, 180.915 84.500, 191.500 84.500 C 201.554 84.500, 202.946 84.735, 207.687 87.235 C 213.829 90.473, 219.582 96.121, 221.704 100.995 C 225.522 109.767, 222.698 121.359, 214.830 129.217 C 209.512 134.528, 204.500 137, 199.049 137 C 187.047 137, 179.562 123.264, 188.406 117.469 C 191.485 115.452, 194.737 116.320, 195.261 119.297 C 195.608 121.275, 195.730 121.317, 196.445 119.713 C 197.656 117, 194.400 114, 190.245 114 C 185.190 114, 179.998 119.400, 180.005 124.650 C 180.018 134.570, 190.496 143.024, 202.718 142.978 C 209.898 142.951, 215.118 140.630, 220.755 134.959 C 234.621 121.009, 234.866 100.393, 221.337 85.929 C 211.024 74.904, 195.457 70.779, 178.263 74.514 M 180.367 94.546 C 171.375 99.265, 160.891 108.862, 157.517 115.463 C 154.632 121.107, 154.500 121.915, 154.510 133.932 C 154.522 149.892, 155.506 152.909, 162.002 156.906 C 170.022 161.841, 171.091 166.990, 163.812 165.625 C 160.121 164.932, 151.109 159.351, 149.886 157 C 149.457 156.175, 147.858 152.350, 146.334 148.500 C 143.953 142.487, 143.558 140.056, 143.531 131.253 C 143.514 125.618, 143.275 121.041, 143 121.082 C 142.725 121.123, 140.475 122.401, 138 123.921 C 134.487 126.078, 133.546 127.213, 133.709 129.092 C 136.378 159.784, 136.755 161.070, 144.192 164.803 C 149.577 167.506, 165.492 169.508, 174 168.552 C 185.044 167.311, 195.007 162.682, 194.996 158.798 C 194.988 156.036, 190.828 150.899, 184.699 146.082 C 169.613 134.226, 167.882 121.567, 179.868 110.738 C 188.825 102.646, 201.946 105.411, 205.138 116.065 C 207.079 122.546, 201.642 130, 194.973 130 C 193.803 130, 191.531 128.685, 189.923 127.077 C 187.308 124.462, 187 124.364, 187 126.154 C 187 127.254, 188.315 129.469, 189.923 131.077 C 199.328 140.482, 219.674 125.089, 217.286 110.375 C 216.419 105.033, 211.176 97.898, 206.041 95.073 C 202.626 93.194, 199.699 92.530, 193.541 92.236 C 186.333 91.892, 184.968 92.132, 180.367 94.546 M 63 94.833 C 59.897 95.762, 59.300 98.954, 61.703 101.762 C 62.691 102.917, 72.694 110.618, 83.930 118.874 C 110.478 138.382, 112.670 139.002, 124.094 130.230 C 127.731 127.437, 129.213 125.496, 129.992 122.500 C 131.749 115.752, 135.131 107.779, 138.802 101.735 C 140.728 98.564, 141.978 95.645, 141.582 95.249 C 140.611 94.278, 66.169 93.884, 63 94.833 M 148.239 95.707 C 143.873 96.547, 134.036 114.207, 135.282 118.970 C 135.574 120.087, 135.330 121, 134.740 121 C 134.150 121, 133.946 121.280, 134.288 121.621 C 134.630 121.963, 136.958 121.043, 139.461 119.576 C 142.742 117.653, 144.725 115.502, 146.564 111.873 C 147.968 109.104, 151.452 104.431, 154.308 101.488 L 159.500 96.139 156.625 95.569 C 153.594 94.969, 151.935 94.996, 148.239 95.707 M 56.635 105.781 C 56.094 106.657, 58.647 156.920, 59.456 161.308 C 59.956 164.025, 62.108 167, 63.572 167 C 64.398 167, 86.017 149.583, 93.168 143.157 C 101.037 136.085, 101.412 136.642, 75.577 117.065 C 60.423 105.582, 57.744 103.986, 56.635 105.781 M 190.443 120.418 C 189.376 121.198, 188.768 122.101, 189.091 122.424 C 189.414 122.748, 190.496 122.110, 191.494 121.006 C 193.619 118.659, 193.183 118.415, 190.443 120.418 M 125.769 132.726 C 124.898 133.702, 124.031 135.822, 123.842 137.439 C 123.558 139.876, 124.063 140.707, 126.797 142.308 C 128.611 143.370, 130.371 143.962, 130.710 143.624 C 131.666 142.667, 129.633 131.692, 128.427 131.300 C 127.837 131.108, 126.641 131.750, 125.769 132.726 M 102.260 141.750 C 96.922 144.661, 67 169.063, 67 170.504 C 67 172.268, 73.846 172.552, 121 172.749 C 143.382 172.843, 157.694 172.550, 156.500 172.023 C 155.400 171.538, 153.600 171.106, 152.500 171.065 C 143.569 170.726, 136.120 164.840, 133.039 155.689 C 130.914 149.373, 128.234 146.608, 119.572 141.792 C 115.450 139.500, 106.426 139.478, 102.260 141.750 M 188 168.659 C 185.525 169.418, 181.025 170.433, 178 170.914 C 173.451 171.638, 174.647 171.764, 184.918 171.645 C 193.186 171.548, 197.463 171.120, 197.714 170.364 C 198.440 168.174, 192.806 167.185, 188 168.659" stroke="none" fill="#212121" fill-rule="evenodd" fill-opacity="1"/>
</svg>