<svg xmlns="http://www.w3.org/2000/svg" width="1024" height="1024" viewBox="0 0 256 256" version="1.1" class="injected-svg" data-src="https://storage.googleapis.com/illustroke-c1d67.appspot.com/sKvoQfSqEHPmlLobzx5EfRxGct22/ecazzskx7ved2ceuxq5nu-2.svg" xmlns:xlink="http://www.w3.org/1999/xlink"><rect width="1024" height="1024" fill="white"/>
	<path d="M 33.250 58.663 C 31.796 59.249, 31.536 64, 32.958 64 C 33.485 64, 35.285 66.806, 36.958 70.235 C 38.631 73.664, 40 75.663, 40 74.676 C 40 73.689, 40.445 73.157, 40.989 73.493 C 41.582 73.860, 41.707 73.384, 41.301 72.302 C 40.687 70.664, 40.794 70.636, 42.473 72 C 44.218 73.416, 44.244 73.376, 42.934 71.272 L 41.547 69.044 40.425 71.140 C 39.439 72.982, 39.227 73.034, 38.663 71.565 C 38.286 70.583, 38.430 70.148, 39.011 70.507 C 40.416 71.375, 40.238 69.666, 38.750 67.998 C 37.697 66.817, 37.760 66.792, 39.153 67.840 C 40.400 68.778, 40.902 68.795, 41.198 67.907 C 41.427 67.218, 44.019 68.708, 47.439 71.493 C 51.394 74.715, 52.674 75.414, 51.394 73.654 C 50.352 72.222, 48.680 70.773, 47.678 70.435 C 46.671 70.095, 46.089 69.212, 46.377 68.461 C 46.677 67.678, 46.040 66.830, 44.874 66.460 C 43.760 66.107, 43.048 65.619, 43.290 65.377 C 43.532 65.135, 48.501 66.233, 54.331 67.818 C 60.162 69.403, 64.717 70.352, 64.455 69.927 C 64.192 69.502, 62.632 68.858, 60.989 68.497 C 59.344 68.136, 58 67.188, 58 66.389 C 58 64.482, 54.785 63.265, 49.250 63.077 C 48.012 63.034, 47.112 62.458, 47.250 61.795 C 47.405 61.049, 45.593 60.326, 42.500 59.899 C 39.750 59.520, 36.825 58.972, 36 58.684 C 35.175 58.395, 33.938 58.385, 33.250 58.663 M 116.200 59.200 C 114.281 61.119, 114.809 63.992, 117.250 64.917 C 121.119 66.383, 123.749 62.149, 120.800 59.200 C 119.275 57.675, 117.725 57.675, 116.200 59.200 M 218 59 C 216.625 59.440, 212.800 59.907, 209.500 60.037 C 206.200 60.166, 204.625 60.474, 206 60.721 C 207.375 60.968, 208.950 61.647, 209.500 62.231 C 210.172 62.945, 210.149 63.098, 209.428 62.698 C 208.839 62.370, 207.264 62.667, 205.928 63.356 C 204.593 64.046, 201.371 65.204, 198.768 65.930 C 195.969 66.711, 194.300 67.677, 194.682 68.295 C 195.074 68.929, 194.706 69.101, 193.747 68.733 C 192.819 68.377, 191.927 68.748, 191.589 69.629 C 190.940 71.319, 193.320 70.856, 198.300 68.322 C 199.840 67.538, 202.034 67.193, 203.175 67.556 C 204.754 68.057, 205.055 67.890, 204.433 66.857 C 203.756 65.732, 203.905 65.735, 205.307 66.872 C 206.589 67.912, 207.664 67.992, 209.749 67.203 C 213.416 65.817, 216.208 66.014, 215.594 67.616 C 215.274 68.449, 215.650 68.688, 216.667 68.297 C 218.023 67.777, 218.063 68.019, 216.971 70.098 C 215.711 72.497, 215.712 72.497, 217.854 70.595 C 219.035 69.547, 220.032 69.097, 220.070 69.595 C 220.109 70.093, 220.565 69.600, 221.084 68.500 C 221.897 66.777, 221.976 66.877, 221.658 69.220 C 221.455 70.716, 221.674 71.702, 222.144 71.411 C 222.615 71.120, 223 69.659, 223 68.163 C 223 66.668, 223.715 64.424, 224.589 63.176 C 227.612 58.860, 224.533 56.908, 218 59 M 51.264 61.718 C 52.784 61.947, 55.034 61.941, 56.264 61.704 C 57.494 61.467, 56.250 61.279, 53.500 61.286 C 50.750 61.294, 49.744 61.488, 51.264 61.718 M 120.564 68.293 C 120.940 69.279, 121.499 69.834, 121.807 69.526 C 122.115 69.219, 121.808 68.412, 121.124 67.733 C 120.136 66.753, 120.022 66.868, 120.564 68.293 M 210.963 69.282 C 209.568 70.502, 206.924 72.756, 205.088 74.291 C 203.251 75.826, 201.918 77.245, 202.124 77.444 C 202.331 77.644, 205.200 75.386, 208.500 72.428 C 211.800 69.469, 214.275 67.052, 214 67.056 C 213.725 67.060, 212.359 68.061, 210.963 69.282 M 104.204 71.254 C 103.371 72.258, 103.403 73.235, 104.328 75.053 C 105.013 76.399, 105.701 81.094, 105.857 85.487 C 106.170 94.326, 106.997 97.154, 107.006 89.417 C 107.012 83.874, 108.558 77.391, 110.100 76.438 C 110.664 76.089, 112.110 76.636, 113.313 77.652 L 115.500 79.500 113.589 77.243 C 112.538 76.002, 111.176 73.977, 110.564 72.743 C 109.262 70.122, 105.814 69.315, 104.204 71.254 M 122 71.755 C 122 72.305, 122.675 73.315, 123.500 74 C 124.337 74.694, 125 74.803, 125 74.245 C 125 73.695, 124.325 72.685, 123.500 72 C 122.663 71.306, 122 71.197, 122 71.755 M 218.571 73.571 C 218.204 75.037, 218.096 76.429, 218.331 76.665 C 218.567 76.900, 219.061 75.894, 219.429 74.429 C 219.796 72.963, 219.904 71.571, 219.669 71.335 C 219.433 71.100, 218.939 72.106, 218.571 73.571 M 125.032 76.039 C 124.981 76.906, 128.714 83.950, 130.128 85.654 C 131.207 86.955, 131.138 87.426, 129.712 88.468 C 127.389 90.167, 127.550 94.238, 130 95.768 C 131.186 96.508, 132 96.606, 132 96.008 C 132 95.454, 132.627 95, 133.393 95 C 135.911 95, 136.167 91.807, 133.847 89.337 C 131.678 87.028, 131.673 86.960, 133.569 85.551 C 136.162 83.625, 134.316 80.484, 130.623 80.539 C 129.180 80.561, 128 80.310, 128 79.981 C 128 79.210, 125.074 75.324, 125.032 76.039 M 169 78 C 166.525 79.039, 165.207 79.913, 166.071 79.944 C 166.936 79.975, 169.411 79.118, 171.571 78.040 C 176.568 75.547, 174.908 75.521, 169 78 M 35.079 78.583 C 35.127 79.748, 35.364 79.985, 35.683 79.188 C 35.972 78.466, 35.936 77.603, 35.604 77.271 C 35.272 76.939, 35.036 77.529, 35.079 78.583 M 102.603 78.167 C 102.886 78.625, 103.541 79, 104.059 79 C 104.577 79, 105 78.625, 105 78.167 C 105 77.708, 104.345 77.333, 103.544 77.333 C 102.743 77.333, 102.320 77.708, 102.603 78.167 M 158.343 79.548 C 158.016 80.400, 156.343 81.757, 154.624 82.563 C 152.906 83.370, 152.345 83.790, 153.379 83.497 C 154.412 83.204, 157.208 82.473, 159.591 81.873 C 163.292 80.941, 163.721 80.579, 162.534 79.391 C 160.709 77.566, 159.080 77.627, 158.343 79.548 M 101 80.912 C 101 81.928, 103.557 81.776, 104.638 80.696 C 105.020 80.313, 104.358 80, 103.167 80 C 101.975 80, 101 80.410, 101 80.912 M 117 80.364 C 117 80.639, 118.350 81.825, 120 83 C 121.650 84.175, 123 84.911, 123 84.636 C 123 84.361, 121.650 83.175, 120 82 C 118.350 80.825, 117 80.089, 117 80.364 M 145.500 85.528 C 142.370 86.560, 142.044 86.855, 144 86.888 C 145.375 86.910, 147.625 86.286, 149 85.500 C 152.042 83.761, 150.833 83.770, 145.500 85.528 M 176.989 89.021 C 176.394 90.132, 176.253 91.595, 176.676 92.271 C 177.098 92.947, 177.524 93.950, 177.623 94.500 C 178.121 97.286, 180.297 101.342, 180.705 100.244 C 180.961 99.553, 181.534 99.212, 181.979 99.487 C 182.423 99.761, 183.095 98.752, 183.471 97.243 C 183.848 95.734, 184.883 93.693, 185.772 92.707 C 187.132 91.198, 187.148 91.006, 185.872 91.496 C 184.886 91.874, 183.952 91.190, 183.200 89.539 C 181.801 86.468, 178.502 86.193, 176.989 89.021 M 86.597 91.731 C 82.019 92.411, 80.706 94.308, 83.064 96.838 C 84.143 97.997, 85.681 98.676, 86.507 98.359 C 88.329 97.660, 88.498 100.197, 86.836 103.316 C 85.784 105.290, 85.832 105.368, 87.336 104.128 C 88.251 103.373, 89 102.135, 89 101.378 C 89 100.620, 89.450 100, 90 100 C 90.550 100, 91 99.298, 91 98.441 C 91 97.541, 90.525 97.176, 89.875 97.577 C 89.094 98.060, 88.879 97.160, 89.174 94.636 C 89.407 92.636, 89.576 91.067, 89.549 91.150 C 89.522 91.232, 88.194 91.494, 86.597 91.731 M 106.232 99 C 106.232 100.925, 106.438 101.713, 106.689 100.750 C 106.941 99.787, 106.941 98.213, 106.689 97.250 C 106.438 96.287, 106.232 97.075, 106.232 99 M 110.500 99 C 110.160 99.550, 110.359 100, 110.941 100 C 111.523 100, 112 99.550, 112 99 C 112 98.450, 111.802 98, 111.559 98 C 111.316 98, 110.840 98.450, 110.500 99 M 132.079 99.583 C 132.127 100.748, 132.364 100.985, 132.683 100.188 C 132.972 99.466, 132.936 98.603, 132.604 98.271 C 132.272 97.939, 132.036 98.529, 132.079 99.583 M 184 98.378 C 184 98.585, 184.787 99.373, 185.750 100.128 C 187.336 101.371, 187.371 101.336, 186.128 99.750 C 184.821 98.084, 184 97.555, 184 98.378 M 96.772 102.154 C 96.004 104.153, 96.888 108, 98.117 108 C 99.117 108, 99.114 106.625, 98.104 103 C 97.545 100.992, 97.283 100.825, 96.772 102.154 M 54.079 102.628 C 54.036 103.248, 54.600 104.253, 55.333 104.862 C 56.339 105.697, 56.667 105.615, 56.667 104.528 C 56.667 103.736, 56.330 103.296, 55.919 103.550 C 55.507 103.804, 54.943 103.447, 54.664 102.756 C 54.349 101.974, 54.128 101.925, 54.079 102.628 M 133.655 108.455 C 134.038 115.953, 134.724 117.427, 137.358 116.416 C 138.673 115.911, 138.795 115.458, 137.903 114.383 C 137.103 113.419, 137.086 113, 137.846 113 C 138.446 113, 138.671 112.306, 138.345 111.458 C 138.020 110.609, 137.247 110.088, 136.627 110.299 C 135.988 110.516, 135.023 108.691, 134.399 106.091 C 133.311 101.550, 133.302 101.576, 133.655 108.455 M 187 102.378 C 187 102.585, 187.787 103.373, 188.750 104.128 C 190.336 105.371, 190.371 105.336, 189.128 103.750 C 187.821 102.084, 187 101.555, 187 102.378 M 41.575 105.917 C 39.279 108.454, 40.993 112, 44.516 112 C 47.823 112, 49.182 107.338, 46.456 105.344 C 44.056 103.589, 43.637 103.638, 41.575 105.917 M 148.333 105.354 C 148.333 106.039, 149.158 106.662, 150.167 106.738 C 151.175 106.814, 152 106.695, 152 106.473 C 152 106.252, 151.175 105.629, 150.167 105.089 C 148.845 104.382, 148.333 104.456, 148.333 105.354 M 191.001 107.194 C 191.698 108.036, 191.174 109.306, 189.248 111.444 L 186.500 114.493 189.500 111.996 C 191.150 110.623, 192.698 109.377, 192.940 109.226 C 193.183 109.076, 192.622 108.286, 191.694 107.473 C 190.766 106.659, 190.454 106.533, 191.001 107.194 M 83.616 109.559 C 82.817 111.641, 83.160 112.137, 84.726 111.169 C 85.402 110.751, 85.554 109.896, 85.086 109.140 C 84.459 108.125, 84.130 108.219, 83.616 109.559 M 107.500 110 C 107.840 110.550, 108.316 111, 108.559 111 C 108.802 111, 109 110.550, 109 110 C 109 109.450, 108.523 109, 107.941 109 C 107.359 109, 107.160 109.450, 107.500 110 M 193.970 112.944 C 194.543 114.014, 195.505 115.194, 196.109 115.567 C 196.713 115.941, 196.434 115.066, 195.489 113.623 C 193.487 110.568, 192.451 110.105, 193.970 112.944 M 159 114.609 C 159 115.164, 159.606 116.447, 160.347 117.460 C 161.707 119.319, 162.134 119.057, 163.369 115.609 C 163.908 114.103, 163.771 113.945, 162.699 114.835 C 161.703 115.661, 161.046 115.646, 160.176 114.776 C 159.496 114.096, 159 114.025, 159 114.609 M 182.500 118 C 182.160 118.550, 182.332 119, 182.882 119 C 183.432 119, 184.160 118.550, 184.500 118 C 184.840 117.450, 184.668 117, 184.118 117 C 183.568 117, 182.840 117.450, 182.500 118 M 198.890 120.552 C 199.958 122.723, 201.377 125.702, 202.043 127.171 C 203.221 129.770, 203.306 129.793, 205.209 128.020 C 207.935 125.480, 207.252 121.602, 204 121.162 C 202.625 120.977, 200.476 119.875, 199.224 118.714 L 196.949 116.603 198.890 120.552 M 124.200 119.200 C 122.506 120.894, 122.710 123.675, 124.582 124.393 C 127.367 125.462, 128.902 125.052, 130.034 122.936 C 132.008 119.247, 127.219 116.181, 124.200 119.200 M 110.860 129.349 C 110.662 134.765, 110.804 139.384, 111.176 139.612 C 112.065 140.158, 112.688 123.380, 111.860 121.192 C 111.508 120.261, 111.058 123.932, 110.860 129.349 M 136.079 121.583 C 136.127 122.748, 136.364 122.985, 136.683 122.188 C 136.972 121.466, 136.936 120.603, 136.604 120.271 C 136.272 119.939, 136.036 120.529, 136.079 121.583 M 137.079 126.583 C 137.127 127.748, 137.364 127.985, 137.683 127.188 C 137.972 126.466, 137.936 125.603, 137.604 125.271 C 137.272 124.939, 137.036 125.529, 137.079 126.583 M 71.750 127.392 C 69.464 129.128, 69.541 130.232, 72.060 131.805 C 73.973 133, 74.039 132.942, 72.990 130.982 C 72.142 129.396, 72.157 128.516, 73.053 127.436 C 74.525 125.662, 74.050 125.646, 71.750 127.392 M 117.531 127.950 C 117.208 128.472, 117.812 129.364, 118.874 129.932 C 120.524 130.816, 120.728 130.678, 120.285 128.983 C 119.731 126.863, 118.490 126.398, 117.531 127.950 M 149 128.659 C 149 129.205, 150.238 130.742, 151.750 132.076 L 154.500 134.500 152 131.500 C 150.625 129.850, 149.387 128.313, 149.250 128.083 C 149.113 127.854, 149 128.113, 149 128.659 M 172 129 C 172 129.550, 172.450 130, 173 130 C 173.550 130, 174 129.550, 174 129 C 174 128.450, 173.550 128, 173 128 C 172.450 128, 172 128.450, 172 129 M 136.721 133.250 C 136.475 133.938, 136.906 135.751, 137.678 137.279 C 138.450 138.808, 138.792 140.527, 138.438 141.100 C 138.028 141.764, 139.010 142.026, 141.147 141.821 C 144.135 141.535, 144.500 141.173, 144.500 138.500 C 144.500 135.738, 144.222 135.500, 141 135.500 C 138.221 135.500, 137.561 135.139, 137.794 133.750 C 138.132 131.738, 137.384 131.390, 136.721 133.250 M 91.724 136.134 C 88.520 137.927, 90.271 143, 94.093 143 C 95.778 143, 97 141.089, 97 138.453 C 97 136.399, 93.780 134.984, 91.724 136.134 M 163.750 138.541 C 159.602 142.397, 159.298 143, 161.500 143 C 162.325 143, 163 142.462, 163 141.805 C 163 141.147, 164.209 139.347, 165.687 137.805 C 169.425 133.903, 168.263 134.345, 163.750 138.541 M 184 141.500 C 186.987 144.525, 189.657 147, 189.932 147 C 190.207 147, 187.987 144.525, 185 141.500 C 182.013 138.475, 179.343 136, 179.068 136 C 178.793 136, 181.013 138.475, 184 141.500 M 201.667 137.667 C 201.300 138.033, 201 139.158, 201 140.167 C 201 141.175, 200.550 142, 200 142 C 199.450 142, 199 142.477, 199 143.059 C 199 143.641, 199.470 143.828, 200.044 143.473 C 200.618 143.118, 201.686 143.324, 202.417 143.931 C 204.331 145.520, 207 144.158, 207 141.593 C 207 138.185, 203.629 135.704, 201.667 137.667 M 136.527 143.956 C 136.202 144.482, 135.163 144.660, 134.218 144.351 C 133.273 144.042, 133.850 144.734, 135.500 145.888 C 137.150 147.042, 138.950 147.976, 139.500 147.963 C 140.050 147.950, 139.731 147.491, 138.792 146.943 C 137.849 146.394, 137.337 145.286, 137.649 144.474 C 138.276 142.837, 137.453 142.458, 136.527 143.956 M 102.405 146.250 L 100.500 148.500 102.750 146.595 C 104.864 144.805, 105.455 144, 104.655 144 C 104.465 144, 103.453 145.012, 102.405 146.250 M 131.500 147 C 131.160 147.550, 131.359 148, 131.941 148 C 132.523 148, 133 147.550, 133 147 C 133 146.450, 132.802 146, 132.559 146 C 132.316 146, 131.840 146.450, 131.500 147 M 135 149 C 135 149.550, 135.477 150, 136.059 150 C 136.641 150, 136.840 149.550, 136.500 149 C 136.160 148.450, 135.684 148, 135.441 148 C 135.198 148, 135 148.450, 135 149 M 191 148.902 C 191 149.940, 192.902 151.443, 193.466 150.850 C 193.649 150.658, 193.169 149.920, 192.399 149.211 C 191.630 148.501, 191 148.362, 191 148.902 M 45.012 150.977 C 42.726 155.249, 48.916 159.215, 52.025 155.470 C 52.995 154.301, 53.029 153.359, 52.168 151.470 C 50.766 148.393, 46.551 148.102, 45.012 150.977 M 96.239 151.250 L 94.129 153.500 96.815 153.594 C 98.953 153.668, 99.529 153.210, 99.644 151.344 C 99.825 148.406, 98.929 148.381, 96.239 151.250 M 148.500 153 C 148.160 153.550, 148.332 154, 148.882 154 C 149.432 154, 150.160 153.550, 150.500 153 C 150.840 152.450, 150.668 152, 150.118 152 C 149.568 152, 148.840 152.450, 148.500 153 M 103 155.031 C 103 155.564, 103.675 156, 104.500 156 C 105.325 156, 106 155.823, 106 155.607 C 106 155.391, 105.325 154.955, 104.500 154.638 C 103.675 154.322, 103 154.499, 103 155.031 M 89.250 157.150 C 88.636 157.764, 87.145 158.319, 85.938 158.383 C 84.730 158.448, 83.092 159.480, 82.297 160.678 C 80.964 162.686, 81.060 162.993, 83.524 164.608 C 85.705 166.037, 86.553 166.136, 88.139 165.145 C 89.207 164.478, 90.626 164.250, 91.291 164.638 C 91.956 165.026, 91.694 164.423, 90.708 163.297 C 88.862 161.188, 88.769 159.024, 90.471 157.804 C 91.005 157.422, 91.200 156.867, 90.904 156.571 C 90.609 156.275, 89.864 156.536, 89.250 157.150 M 182.500 159 C 182.840 159.550, 183.541 160, 184.059 160 C 184.577 160, 185 159.550, 185 159 C 185 158.450, 184.298 158, 183.441 158 C 182.584 158, 182.160 158.450, 182.500 159 M 178.791 160.691 C 178.483 161.868, 178.719 163.319, 179.316 163.916 C 180.873 165.473, 185 165.260, 185 163.622 C 185 161.835, 182.366 159.656, 181.129 160.420 C 180.602 160.746, 179.986 160.459, 179.761 159.782 C 179.535 159.105, 179.099 159.515, 178.791 160.691 M 129.490 164.016 C 129.144 164.575, 128.472 164.792, 127.995 164.497 C 127.191 164, 127.932 167.402, 129.420 171.035 C 129.782 171.918, 129.173 173.511, 127.986 174.785 C 126.851 176.003, 126.338 177, 126.846 177 C 127.354 177, 128.517 175.861, 129.429 174.468 C 130.341 173.076, 131.518 172.202, 132.044 172.527 C 132.570 172.852, 133 172.598, 133 171.963 C 133 171.328, 133.931 169.502, 135.068 167.904 L 137.136 165 135.068 165 C 133.931 165, 133 164.550, 133 164 C 133 162.693, 130.300 162.706, 129.490 164.016 M 59.040 167.452 C 55.973 171.147, 60.437 174.725, 64.042 171.462 C 65.494 170.148, 65.701 169.311, 64.933 167.874 C 63.738 165.641, 60.722 165.425, 59.040 167.452 M 98 167.378 C 98 167.585, 98.787 168.373, 99.750 169.128 C 101.336 170.371, 101.371 170.336, 100.128 168.750 C 98.821 167.084, 98 166.555, 98 167.378 M 105 170.007 C 105 170.625, 105.443 171.960, 105.986 172.973 C 106.812 174.518, 106.464 174.991, 103.823 175.912 C 102.092 176.515, 100.911 177.245, 101.199 177.532 C 101.487 177.820, 102.943 177.592, 104.435 177.025 C 106.787 176.131, 107.097 176.227, 106.765 177.747 C 106.554 178.711, 105.845 179.387, 105.191 179.250 C 103.812 178.960, 103.617 182.846, 104.908 184.885 C 105.501 185.822, 106.664 186.050, 108.500 185.589 C 110.715 185.034, 111.130 184.461, 110.752 182.484 C 110.497 181.151, 110.674 180.298, 111.144 180.589 C 111.615 180.880, 112 180.645, 112 180.068 C 112 179.490, 114.475 177.620, 117.500 175.913 C 120.525 174.206, 123.255 172.396, 123.568 171.891 C 124.133 170.976, 114.619 176.300, 112.263 178.217 C 110.139 179.945, 108.309 178.333, 107.639 174.143 C 107.056 170.501, 105 167.277, 105 170.007 M 140.656 169.750 C 140.403 170.162, 141.614 170.600, 143.347 170.723 C 145.682 170.888, 146.111 170.697, 145 169.988 C 143.189 168.832, 141.285 168.728, 140.656 169.750 M 148.733 172.124 C 149.412 172.808, 150.219 173.115, 150.526 172.807 C 150.834 172.499, 150.279 171.940, 149.293 171.564 C 147.868 171.022, 147.753 171.136, 148.733 172.124 M 99.613 175.183 C 99.902 175.650, 100.557 175.774, 101.069 175.457 C 102.377 174.649, 102.230 174.333, 100.544 174.333 C 99.743 174.333, 99.324 174.716, 99.613 175.183 M 156.309 175.636 C 155.486 177.783, 157.201 180.424, 159.659 180.794 C 162.356 181.200, 165.110 176.314, 162.954 174.950 C 160.631 173.481, 156.992 173.857, 156.309 175.636 M 165 177.031 C 165 177.564, 165.675 178, 166.500 178 C 167.325 178, 168 177.823, 168 177.607 C 168 177.391, 167.325 176.955, 166.500 176.638 C 165.675 176.322, 165 176.499, 165 177.031 M 200 176.378 C 200 176.585, 200.787 177.373, 201.750 178.128 C 203.336 179.371, 203.371 179.336, 202.128 177.750 C 200.821 176.084, 200 175.555, 200 176.378 M 41.212 180.032 C 39.421 182.900, 39.739 183.818, 41.602 181.158 C 42.483 179.900, 43.029 178.695, 42.814 178.481 C 42.600 178.266, 41.879 178.964, 41.212 180.032 M 90 181.059 C 90 181.641, 90.450 181.840, 91 181.500 C 91.550 181.160, 92 180.684, 92 180.441 C 92 180.198, 91.550 180, 91 180 C 90.450 180, 90 180.477, 90 181.059 M 131.250 180.662 C 129.540 181.352, 129.672 185.483, 131.452 186.960 C 133.325 188.514, 136.648 187.456, 137.261 185.109 C 138.247 181.338, 135.186 179.074, 131.250 180.662 M 209.257 183.961 C 211.874 186.275, 213.783 188.542, 213.501 188.999 C 213.219 189.455, 213.553 190.095, 214.244 190.421 C 216.138 191.312, 211.123 190.214, 205.768 188.564 C 203.165 187.762, 201.081 187.420, 201.136 187.803 C 201.413 189.716, 200.870 190.342, 200.054 189.053 C 199.550 188.257, 196.298 186.828, 192.827 185.878 C 185.968 184, 183.479 184.071, 189.683 185.967 C 191.782 186.609, 195.142 188.007, 197.149 189.074 C 199.227 190.179, 201.595 190.738, 202.649 190.373 C 204.318 189.794, 204.304 189.899, 202.500 191.440 C 200.517 193.134, 200.519 193.144, 202.751 192.667 C 203.990 192.403, 204.751 192.595, 204.442 193.093 C 204.134 193.592, 205.021 194, 206.413 194 C 207.804 194, 212.348 194.748, 216.509 195.662 C 222.358 196.948, 224.345 197.055, 225.265 196.135 C 226.185 195.215, 226.170 194.554, 225.198 193.222 C 224.507 192.275, 223.678 190.713, 223.354 189.750 C 223.031 188.787, 222.369 188, 221.883 188 C 221.398 188, 221 187.298, 221 186.441 C 221 185.584, 220.547 185.162, 219.993 185.504 C 219.439 185.847, 218.716 185.423, 218.386 184.563 C 218.056 183.704, 217.374 183, 216.870 183 C 216.366 183, 216.641 184.048, 217.480 185.330 C 220.068 189.278, 216.776 189.557, 212.828 185.724 C 212.098 185.014, 209.925 183.381, 208 182.094 C 205.363 180.330, 205.673 180.791, 209.257 183.961 M 221.079 181.583 C 221.127 182.748, 221.364 182.985, 221.683 182.188 C 221.972 181.466, 221.936 180.603, 221.604 180.271 C 221.272 179.939, 221.036 180.529, 221.079 181.583 M 75.507 183.989 C 75.157 184.555, 75.558 184.723, 76.448 184.382 C 78.180 183.717, 78.497 183, 77.059 183 C 76.541 183, 75.843 183.445, 75.507 183.989 M 39 185 C 39 185.733, 38.721 186.055, 38.381 185.714 C 37.613 184.946, 35 187.457, 35 188.964 C 35 189.572, 34.256 191.207, 33.346 192.595 C 31.909 194.787, 31.880 195.309, 33.125 196.553 C 34.279 197.707, 35.626 197.793, 40.029 196.994 C 43.038 196.447, 47.750 195.691, 50.500 195.313 C 53.914 194.844, 54.722 194.496, 53.046 194.217 C 50.770 193.837, 50.878 193.672, 54.546 191.938 C 56.721 190.909, 59.400 190.021, 60.500 189.964 L 62.500 189.859 60.500 189 C 58.870 188.299, 58.812 188.128, 60.191 188.070 C 61.121 188.032, 62.152 187.564, 62.481 187.030 C 62.811 186.497, 61.150 186.768, 58.790 187.632 C 56.431 188.496, 52.756 189.375, 50.623 189.584 C 48.491 189.794, 46.200 190.419, 45.531 190.974 C 44.863 191.529, 44.017 191.684, 43.652 191.319 C 43.287 190.954, 44.454 189.373, 46.244 187.806 L 49.500 184.957 45.548 187.075 C 41.539 189.223, 38 190.303, 38 189.377 C 38 189.097, 38.486 187.960, 39.081 186.849 C 39.676 185.738, 39.901 184.567, 39.581 184.248 C 39.261 183.928, 39 184.267, 39 185 M 222.079 185.583 C 222.127 186.748, 222.364 186.985, 222.683 186.188 C 222.972 185.466, 222.936 184.603, 222.604 184.271 C 222.272 183.939, 222.036 184.529, 222.079 185.583 M 40.980 186.524 C 40.284 187.362, 39.968 188.301, 40.276 188.610 C 40.585 188.919, 41.340 188.233, 41.954 187.086 C 43.264 184.638, 42.778 184.358, 40.980 186.524 M 68.813 185.683 C 69.534 185.972, 70.397 185.936, 70.729 185.604 C 71.061 185.272, 70.471 185.036, 69.417 185.079 C 68.252 185.127, 68.015 185.364, 68.813 185.683 M 63.813 188.683 C 64.534 188.972, 65.397 188.936, 65.729 188.604 C 66.061 188.272, 65.471 188.036, 64.417 188.079 C 63.252 188.127, 63.015 188.364, 63.813 188.683 M 116.200 192.200 C 113.617 194.783, 116.285 198.679, 119.860 197.545 C 122.528 196.698, 123.234 194.377, 121.386 192.529 C 119.547 190.690, 117.819 190.581, 116.200 192.200 M 56.813 194.683 C 57.534 194.972, 58.397 194.936, 58.729 194.604 C 59.061 194.272, 58.471 194.036, 57.417 194.079 C 56.252 194.127, 56.015 194.364, 56.813 194.683 M 61.750 194.662 C 62.438 194.940, 63.563 194.940, 64.250 194.662 C 64.938 194.385, 64.375 194.158, 63 194.158 C 61.625 194.158, 61.063 194.385, 61.750 194.662" stroke="none" fill="#212121" fill-rule="evenodd" fill-opacity="1"/>
</svg>