<svg xmlns="http://www.w3.org/2000/svg" width="1024" height="1024" viewBox="0 0 256 256" version="1.1" class="injected-svg" data-src="https://storage.googleapis.com/illustroke-c1d67.appspot.com/sKvoQfSqEHPmlLobzx5EfRxGct22/mi4bflzc6d0u06vflqj0br-2.svg" xmlns:xlink="http://www.w3.org/1999/xlink"><rect width="1024" height="1024" fill="white"/>
	<path d="M 18.221 56.750 C 18.343 79.162, 18.566 90.975, 18.717 83 C 19.418 46.030, 19.433 15.999, 18.750 15.999 C 18.337 16, 18.100 34.337, 18.221 56.750 M 112.508 16.987 C 112.117 17.620, 114.332 17.759, 118.699 17.374 C 127.569 16.592, 128.011 16, 119.726 16 C 116.091 16, 112.844 16.444, 112.508 16.987 M 133.250 16.735 C 135.863 16.941, 140.137 16.941, 142.750 16.735 C 145.363 16.529, 143.225 16.360, 138 16.360 C 132.775 16.360, 130.637 16.529, 133.250 16.735 M 107 18.151 C 105.075 18.685, 101.767 19.574, 99.649 20.127 C 97.531 20.679, 96.011 21.345, 96.272 21.605 C 96.878 22.211, 109.189 18.934, 110.450 17.831 C 111.542 16.876, 111.624 16.869, 107 18.151 M 150.517 19.906 C 177.120 26.172, 198.709 41.963, 214.698 66.853 C 219.710 74.654, 223.474 83.218, 228.599 98.476 C 231.006 105.639, 232.980 110.738, 232.987 109.807 C 233.008 107.029, 226.400 87.734, 222.640 79.596 C 214.541 62.068, 200.512 44.739, 186.725 35.235 C 173.552 26.153, 158.886 19.944, 147.431 18.597 C 143.953 18.189, 144.863 18.574, 150.517 19.906 M 84.500 25.900 C 70.070 32.835, 56.732 43.690, 46.879 56.518 C 40.879 64.331, 32.062 79.688, 28.519 88.500 C 23.416 101.192, 13.661 144.673, 16.569 141.765 C 16.967 141.367, 18.974 145.897, 21.029 151.832 C 26.331 167.144, 31.092 176.978, 38.640 188.209 C 51.381 207.164, 65.795 220.012, 84.358 228.957 C 93.955 233.582, 108.323 237.982, 113.940 238.015 C 115.960 238.027, 116.184 238.235, 115 239 C 114.005 239.643, 119.566 239.920, 131.500 239.822 C 141.542 239.739, 147.068 239.414, 144 239.087 L 138.500 238.500 147.873 236.734 C 185.768 229.595, 216.632 200.150, 232.343 156.148 C 234.148 151.093, 235.910 147.243, 236.258 147.592 C 236.607 147.941, 236.856 147.388, 236.810 146.363 C 236.765 145.338, 237.080 141.620, 237.510 138.101 C 238.087 133.378, 237.992 131.887, 237.146 132.410 C 236.516 132.799, 236 133.997, 236 135.072 C 236 141.335, 228.168 162.997, 220.755 177.237 C 214.835 188.609, 213.043 190.628, 210.215 189.115 C 209.141 188.540, 207.979 188.280, 207.631 188.535 C 207.284 188.791, 207.206 188.719, 207.457 188.377 C 208.236 187.313, 202.839 180.982, 201.734 181.664 C 201.137 182.033, 200.988 181.828, 201.386 181.184 C 202.363 179.604, 199.178 173.772, 197.803 174.622 C 197.121 175.043, 196.973 174.853, 197.419 174.131 C 198.480 172.414, 182.237 143.634, 177.515 138.864 C 174.159 135.476, 173.004 134.898, 170.232 135.221 C 167.572 135.532, 167.055 135.306, 167.549 134.053 C 167.885 133.199, 169.871 124.625, 171.961 115 C 176.659 93.368, 179.325 84.301, 182.279 79.902 C 185.180 75.584, 189.188 74.889, 192.617 78.110 C 195.327 80.656, 199.505 92.888, 202.998 108.500 C 207.667 129.368, 212.206 146.540, 213.739 149.136 C 215.734 152.512, 219.030 154.123, 221.321 152.840 C 223.717 151.499, 226.460 145.713, 230.094 134.337 C 231.822 128.927, 234.083 122.830, 235.118 120.790 C 237.295 116.497, 237.492 114.898, 235.798 115.250 C 234.535 115.513, 233.014 119.190, 227.502 135.309 C 223.742 146.302, 222.683 148.007, 219.628 147.985 C 214.230 147.946, 214.077 147.516, 204.508 105.500 C 198.609 79.598, 193.061 68.576, 186.907 70.530 C 183.812 71.512, 179.205 78.607, 176.916 85.915 C 173.365 97.253, 164.286 139.007, 165.611 137.908 C 167.588 136.267, 173.500 137.923, 177.148 141.139 L 180.500 144.094 176.500 141.619 C 169.805 137.477, 166.551 137.746, 164.520 142.606 C 163.691 144.590, 163.262 146.615, 163.566 147.106 C 163.869 147.598, 163.606 148, 162.980 148 C 162.220 148, 162.074 146.939, 162.542 144.809 L 163.243 141.618 160.045 144.309 C 156.443 147.339, 153.452 147.705, 150.305 145.501 C 146.779 143.031, 144.440 138.266, 139.017 122.500 C 136.180 114.250, 132.764 105.821, 131.427 103.769 C 128.780 99.706, 125.300 98.234, 122.229 99.878 C 120.266 100.928, 115.027 110.472, 114.970 113.100 C 114.915 115.615, 113.315 111.853, 112.589 107.500 C 110.879 97.260, 106.458 81.827, 103.350 75.250 C 100.081 68.331, 99.769 68, 96.505 68 C 93.503 68, 92.758 68.557, 90.419 72.549 C 86.902 78.550, 83.721 88.991, 79.468 108.500 C 74.382 131.828, 72.093 140.239, 70.291 142.231 C 68.038 144.721, 64.341 144.451, 62.514 141.662 C 61.672 140.376, 58.960 130.364, 56.489 119.412 C 51.210 96.023, 47.837 84.920, 44.437 79.750 C 41.847 75.811, 38.643 74.857, 36.041 77.250 C 33.622 79.476, 42.065 64.698, 47.122 57.856 C 53.410 49.348, 63.608 39.740, 72.505 33.942 C 79.230 29.559, 81.534 28.339, 91.131 24.080 C 93.534 23.014, 94.825 22.122, 94 22.098 C 93.175 22.074, 88.900 23.785, 84.500 25.900 M 236.300 71 C 236.300 74.025, 236.487 75.263, 236.716 73.750 C 236.945 72.237, 236.945 69.763, 236.716 68.250 C 236.487 66.737, 236.300 67.975, 236.300 71 M 93.223 74.671 C 89.944 75.990, 86.368 86.950, 80.554 113.500 C 75.896 134.772, 74.303 140.692, 71.890 145.704 C 69.493 150.682, 66.706 151.949, 63.846 149.360 C 60.350 146.196, 59.298 142.690, 52.941 113 C 48.899 94.119, 45.452 87.221, 39.327 85.749 C 36.206 85, 31.392 88.302, 29.178 92.711 C 24.426 102.175, 19.017 123.525, 19.007 132.858 C 18.995 143.447, 27.766 166.935, 37.658 182.806 L 42.227 190.136 44.713 187.818 C 46.081 186.543, 49.017 182.198, 51.239 178.162 C 56.063 169.397, 59.247 165.430, 62.043 164.699 C 65.431 163.813, 70.269 169.098, 75.935 179.877 C 82.278 191.941, 84.655 194.454, 88.849 193.533 C 92.599 192.709, 93.125 192.037, 96.295 184 C 99.299 176.382, 102.295 165.537, 108.526 139.715 L 113.058 120.930 109.967 105.839 C 106.654 89.667, 103.281 79.073, 100.448 75.943 C 98.762 74.079, 95.934 73.581, 93.223 74.671 M 236.411 94 C 236.411 103.625, 236.561 107.563, 236.745 102.750 C 236.928 97.937, 236.928 90.062, 236.745 85.250 C 236.561 80.438, 236.411 84.375, 236.411 94 M 119.809 113.750 C 114.808 119.112, 114.697 119.914, 116.874 134.805 C 120.491 159.542, 121.035 163.323, 123.445 180.500 C 127.148 206.892, 130.328 219.080, 134.545 223.042 L 137.025 225.372 139.762 223.348 C 144.820 219.609, 146.912 212.790, 154.098 176.616 C 156.296 165.552, 158.341 155.510, 158.642 154.301 C 159.159 152.232, 159.013 152.169, 156.197 153.232 C 150.285 155.463, 147.241 151.637, 140.501 133.500 C 134.761 118.052, 129.903 111, 125 111 C 123.424 111, 121.349 112.099, 119.809 113.750 M 108.100 148.102 C 98.476 188.326, 93.358 199.153, 85.195 196.562 C 84.123 196.222, 81.278 193.144, 78.873 189.722 C 71.660 179.460, 67.617 176, 62.840 176 C 58.525 176, 57.191 177.063, 47.763 188.010 L 44.027 192.350 48.195 197.753 C 60.586 213.813, 80.603 227.038, 102.500 233.630 C 110.566 236.058, 113.109 236.344, 127 236.387 C 139.836 236.426, 143.913 236.061, 150.719 234.259 C 170.266 229.086, 186.188 219.747, 200.129 205.276 C 204.875 200.350, 209.287 195.333, 209.932 194.127 C 210.983 192.162, 210.811 191.830, 208.283 190.949 C 205.295 189.907, 200.561 183.436, 192.958 170 C 180.459 147.913, 173.399 142.500, 164.368 148.082 C 162.516 149.226, 161 150.395, 161 150.678 C 161 151.769, 152.023 194.932, 150.119 203 C 147.290 214.980, 145.324 220.052, 142.274 223.236 C 138.829 226.832, 135.805 226.745, 132.619 222.959 C 127.608 217.004, 125.116 204.873, 116.911 146.500 C 113.596 122.915, 114.152 122.814, 108.100 148.102 M 172.500 144.198 C 176.928 145.733, 184.598 153.568, 189.192 161.250 C 193.893 169.113, 195.368 170.284, 191.410 163.011 C 186.108 153.270, 175.794 142.916, 171.556 143.079 C 170.006 143.138, 170.238 143.414, 172.500 144.198 M 236 193.941 C 236 221.490, 235.642 237.104, 235 237.500 C 233.489 238.434, 233.802 240, 235.500 240 C 236.811 240, 237 234.389, 237 195.500 C 237 171.025, 236.775 151, 236.500 151 C 236.225 151, 236 170.323, 236 193.941 M 226.500 230 C 225.684 231.320, 226.777 233, 228.452 233 C 229.915 233, 231.219 230.552, 230.264 229.598 C 229.332 228.665, 227.183 228.895, 226.500 230 M 16.012 238.412 C 16.663 239.063, 17.392 239.008, 18.149 238.251 C 19.015 237.385, 18.771 237.142, 17.161 237.263 C 15.753 237.369, 15.361 237.761, 16.012 238.412 M 108.750 239.662 C 109.438 239.940, 110.563 239.940, 111.250 239.662 C 111.938 239.385, 111.375 239.158, 110 239.158 C 108.625 239.158, 108.063 239.385, 108.750 239.662" stroke="none" fill="#212121" fill-rule="evenodd" fill-opacity="1"/>
</svg>