<svg xmlns="http://www.w3.org/2000/svg" width="1024" height="1024" viewBox="0 0 256 256" version="1.1" class="injected-svg" data-src="https://storage.googleapis.com/illustroke-c1d67.appspot.com/sKvoQfSqEHPmlLobzx5EfRxGct22/8zvzxjxcqi4hneqk7s3kak-0.svg" xmlns:xlink="http://www.w3.org/1999/xlink"><rect width="1024" height="1024" fill="white"/>
	<path d="M 192.882 29.882 C 190.076 32.688, 189 34.607, 189 36.803 C 189 39.352, 188.527 39.945, 186.058 40.487 C 181.739 41.436, 175.840 46.074, 170.887 52.416 C 168.090 55.997, 165.783 58, 164.453 58 C 161.723 58, 150.989 62.238, 145.143 65.624 C 142.589 67.104, 137.574 71.282, 133.998 74.911 L 127.496 81.508 123.640 80.244 C 118.753 78.643, 113.974 79.824, 107.374 84.264 C 99.714 89.417, 96.801 94.420, 96.224 103.416 C 95.637 112.558, 96.818 114.861, 103.947 118.473 C 106.648 119.842, 109.142 121.421, 109.488 121.981 C 110.622 123.816, 111.949 123.056, 113.380 119.750 C 114.154 117.963, 115.443 115.641, 116.245 114.592 C 117.615 112.801, 117.805 112.979, 119.352 117.520 C 121.342 123.361, 121.331 123, 119.520 123 C 118.707 123, 117.164 124.719, 116.092 126.819 C 115.020 128.920, 112.497 132.610, 110.484 135.019 C 107.075 139.100, 106.946 139.488, 108.604 140.699 C 110.764 142.279, 121.016 142.401, 126.382 140.911 C 130.947 139.643, 139.389 132.117, 142.011 126.978 C 145.763 119.623, 145.386 110.469, 141.173 106.657 C 138.474 104.214, 137.857 105.717, 140.068 109.344 C 144.945 117.342, 140.520 128.833, 129.708 136.250 C 126.229 138.636, 124.728 139, 118.356 139 L 111.013 139 114.507 134.423 C 116.428 131.906, 118 129.414, 118 128.886 C 118 128.357, 119.238 128.054, 120.750 128.212 C 123.363 128.486, 123.492 128.301, 123.333 124.500 C 123.148 120.086, 119.345 109, 118.015 109 C 117.178 109, 111.359 116.422, 110.740 118.279 C 110.562 118.814, 107.847 117.802, 104.708 116.030 L 99 112.809 99 105.970 C 99 97.800, 100.067 94.616, 104.311 90.128 C 107.781 86.458, 116.186 82.025, 119.703 82.010 C 123.013 81.995, 126.776 84.010, 128.579 86.761 C 130.640 89.906, 132.782 88.330, 130.992 84.986 C 129.905 82.954, 130.363 82.183, 136.150 76.303 C 141.015 71.359, 144.642 68.815, 151.661 65.425 C 161.673 60.589, 164.760 59.883, 163.358 62.750 C 162.887 63.712, 162.501 67.650, 162.501 71.500 C 162.500 78.471, 162.526 78.538, 168.792 87.511 C 174.254 95.333, 175.205 97.378, 176 103.003 C 176.904 109.395, 176.269 111.902, 174.087 110.554 C 173.489 110.184, 173 109.234, 173 108.441 C 173 107.648, 172.561 107, 172.025 107 C 170.225 107, 172.245 113.456, 174.893 116.166 C 177.544 118.878, 180 118.499, 180 115.378 C 180 114.272, 182.825 114, 194.333 114 C 202.217 114, 208.978 113.689, 209.359 113.308 C 209.739 112.927, 208.952 111.690, 207.608 110.558 C 205.189 108.520, 205.177 108.428, 206.418 101 C 207.792 92.769, 211.588 85.679, 217.038 81.164 C 218.762 79.736, 220.827 77.302, 221.627 75.755 C 223.320 72.481, 224.556 61.353, 223.635 57.682 C 222.748 54.149, 218.416 49.270, 214.124 46.971 C 212.131 45.903, 208.728 43.439, 206.563 41.496 C 202.967 38.271, 202.587 37.444, 202.192 31.982 C 201.787 26.385, 201.599 26, 199.262 26 C 197.694 26, 195.319 27.445, 192.882 29.882 M 194.646 31.452 C 192.900 33.071, 192 34.941, 192 36.952 C 192 39.895, 192.154 40, 196.475 40 C 200.866 40, 200.932 39.952, 199.975 37.435 C 199.439 36.024, 199 33.549, 199 31.935 C 199 28.359, 198.092 28.259, 194.646 31.452 M 181.340 45.868 C 175.888 49.818, 169.461 57.482, 166.383 63.705 C 162.570 71.416, 163.615 75.541, 172.579 88.164 C 176.246 93.329, 178.995 99.995, 179.014 103.770 C 179.050 110.998, 179.054 111, 191.732 111 L 203.230 111 201.615 108.535 C 199.632 105.509, 199.606 105, 201.433 105 C 203.032 105, 203.544 103.622, 204.463 96.848 C 205.142 91.832, 210.516 83.350, 216.630 77.642 C 219.524 74.940, 220.128 73.536, 220.940 67.626 C 221.701 62.085, 221.582 59.996, 220.326 56.857 C 218.474 52.228, 214.712 49, 211.170 49 C 209.762 49, 207.460 47.932, 206.055 46.627 C 203.130 43.910, 192.462 42.203, 191.688 44.328 C 191.366 45.211, 190.739 45.192, 189.144 44.250 C 186.230 42.529, 185.837 42.611, 181.340 45.868 M 136.981 100.012 C 135.183 101.123, 136.404 101.579, 143.419 102.419 C 148.640 103.044, 156.934 107.640, 159.530 111.346 C 160.338 112.500, 161 114.942, 161 116.772 C 161 122.223, 158.639 125.479, 152.896 127.949 C 150.035 129.180, 143.465 133.805, 138.295 138.227 C 127.490 147.469, 126.594 149.913, 133.500 151.308 C 141.877 152.999, 152.715 156.233, 158.170 158.669 C 167.808 162.973, 170.306 167.266, 167.221 174.223 C 166.178 176.575, 164.689 179.002, 163.913 179.616 C 163.136 180.229, 156.875 180.992, 150 181.310 C 137.027 181.912, 132.482 182.924, 127.651 186.291 C 124.958 188.169, 124.618 188.188, 121.401 186.654 C 118.344 185.197, 116.771 183, 118.784 183 C 120.102 183, 123 177.342, 123 174.770 C 123 170.743, 116.602 166, 111.169 166 C 106.881 166, 102 171.772, 102 176.844 C 102 182.061, 103.763 184.030, 109.035 184.702 C 117.458 185.776, 120.144 189, 112.617 189 C 109.074 189, 108.133 188.616, 107.710 187 C 107.040 184.436, 103.838 184.417, 101.534 186.963 C 99.268 189.467, 100.215 192, 103.417 192 C 105.770 192, 105.841 192.166, 104.811 195.250 C 104.215 197.037, 103.415 198.851, 103.034 199.279 C 102.319 200.083, 85.886 197.646, 80.417 195.925 C 78.721 195.392, 75.898 193.551, 74.143 191.835 C 70.918 188.683, 68.675 188.659, 70.631 191.798 C 73.454 196.327, 79.362 199.011, 90 200.596 C 95.770 201.455, 100.667 202.333, 100.880 202.547 C 101.727 203.393, 98.693 208.920, 95.927 211.570 C 92.876 214.493, 92.104 216.995, 94.250 217.006 C 94.938 217.010, 96.231 218.298, 97.124 219.869 C 98.688 222.618, 99.119 222.751, 108.624 223.424 C 117.517 224.053, 123.265 223.514, 130.250 221.396 C 131.576 220.994, 132 219.784, 132 216.403 C 132 212.407, 131.484 211.411, 127.065 206.873 C 123.025 202.727, 118 194.764, 118 192.511 C 118 192.230, 119.380 192, 121.067 192 C 122.753 192, 125.566 190.921, 127.317 189.603 C 132.828 185.453, 139.049 184, 151.312 184 C 159.898 184, 163.083 183.630, 164.791 182.434 C 168.034 180.162, 171 173.716, 171 168.940 C 171 165.594, 170.376 164.184, 167.750 161.590 C 163.426 157.319, 147.039 150.944, 136.750 149.530 C 134.137 149.171, 132 148.496, 132 148.030 C 132 146.087, 148.388 132.917, 154.340 130.077 C 159.826 127.458, 161.021 126.405, 162.391 122.981 C 164.367 118.043, 164.404 115.902, 162.587 111.554 C 161 107.756, 151.770 101.221, 146.915 100.458 C 145.312 100.206, 142.741 99.805, 141.203 99.566 C 139.665 99.327, 137.765 99.527, 136.981 100.012 M 180.250 124.649 C 176.562 126.176, 180.582 126.722, 194.750 126.617 C 204.691 126.543, 210.409 126.131, 210.253 125.500 C 209.997 124.466, 182.571 123.688, 180.250 124.649 M 170 130.424 C 165.316 133.511, 156.758 142.775, 157.244 144.233 C 157.480 144.941, 160.524 145.513, 165.009 145.691 C 169.066 145.853, 172.836 146.436, 173.387 146.987 C 173.980 147.580, 174.283 153.197, 174.131 160.744 C 173.905 171.968, 173.505 174.581, 170.801 182.500 C 169.110 187.450, 166.889 193.272, 165.864 195.438 C 163.381 200.684, 163.400 203.390, 165.915 202.732 C 169.848 201.704, 161.235 211.550, 153.984 216.372 C 150.101 218.954, 147.192 221.502, 147.521 222.033 C 147.849 222.565, 149.758 223, 151.761 223 C 154.475 223, 156.215 223.785, 158.577 226.075 C 160.322 227.766, 163.471 229.741, 165.575 230.465 C 169.330 231.755, 169.205 231.793, 158.951 232.446 C 139.113 233.711, 121.734 233.583, 117.658 232.142 C 114.927 231.177, 113.506 231.094, 112.745 231.855 C 111.984 232.616, 112.517 233.298, 114.587 234.213 C 118.201 235.810, 174.004 235.612, 175.001 233.999 C 175.410 233.336, 181.663 233.320, 193.559 233.949 C 208.476 234.739, 213.733 234.619, 224.750 233.238 C 232.037 232.325, 238 231.241, 238 230.829 C 238 230.418, 234.301 229.950, 229.779 229.790 L 221.559 229.500 227.279 226.039 C 230.426 224.135, 233 222.178, 233 221.691 C 233 221.203, 231.537 221.780, 229.750 222.973 C 225.663 225.702, 219.372 228.637, 215.615 229.569 L 212.730 230.285 214.991 227.226 C 216.235 225.544, 218.005 223.971, 218.924 223.730 C 220.613 223.288, 223 217.076, 223 213.120 C 223 208.515, 215.775 201, 211.348 201 C 210.061 201, 210.072 200.785, 211.429 199.429 C 213.366 197.492, 213.401 196.578, 211.597 195.081 C 210.797 194.416, 209.699 190.179, 209.039 185.208 C 207.332 172.352, 206.442 168.123, 204.106 161.775 C 201.747 155.362, 201.247 146.081, 203.250 145.865 C 203.938 145.791, 207.200 145.817, 210.500 145.922 C 218.229 146.168, 223 145.264, 223 143.553 C 223 142.806, 221.762 141.749, 220.250 141.202 C 218.738 140.656, 214.158 137.687, 210.074 134.604 C 205.990 131.522, 202.304 129, 201.883 129 C 199.134 129, 201.162 131.402, 208.271 136.568 L 216.435 142.500 205.468 143 C 199.435 143.275, 187.975 143.349, 180 143.165 L 165.500 142.830 170 141.024 L 174.500 139.218 169.559 138.467 L 164.619 137.716 167.559 135.273 C 169.177 133.929, 171.981 132.180, 173.790 131.385 C 175.600 130.590, 176.811 129.503, 176.481 128.970 C 175.572 127.499, 173.853 127.885, 170 130.424 M 61 144.003 C 61 144.554, 62.820 146.649, 65.044 148.658 C 67.268 150.668, 72.032 155.842, 75.630 160.156 C 81.730 167.470, 84 169.342, 84 167.061 C 84 166.227, 81.254 162.784, 73.381 153.750 C 70.508 150.453, 71.214 150.360, 78.478 153.078 C 89.278 157.118, 92.365 162.187, 88.260 169.137 C 85.671 173.520, 82.520 173.883, 78.678 170.238 C 76.930 168.580, 74.150 166.561, 72.500 165.751 C 68.337 163.707, 61.286 162.729, 60.451 164.079 C 60.075 164.687, 58.683 164.886, 57.278 164.534 C 55.901 164.188, 52.332 164.412, 49.348 165.032 C 43.224 166.303, 38.347 170.522, 32.371 179.718 C 25.922 189.640, 25.686 198.035, 31.603 206.976 C 34.112 210.768, 40.358 214.960, 43.636 215.052 C 45.301 215.099, 45.260 215.272, 43.250 216.674 C 39.969 218.963, 40.476 220.573, 45.056 222.406 C 52.298 225.303, 63.325 226.407, 72.322 225.135 C 76.770 224.506, 80.812 223.588, 81.304 223.096 C 82.972 221.428, 80.824 217.824, 77.279 216.343 L 73.751 214.869 76.451 212.051 L 79.150 209.233 73.825 207.646 C 70.896 206.774, 65.256 205.132, 61.291 204 C 53.888 201.884, 48.582 198.408, 47.486 194.956 C 46.688 192.441, 45 192.419, 45 194.923 C 45 197.879, 49.645 202.728, 53.783 204.091 C 55.827 204.765, 59.065 205.969, 60.978 206.766 L 64.456 208.217 59.478 210.107 C 46.085 215.192, 36.495 212.548, 31.881 202.500 C 29.540 197.403, 29.536 190.611, 31.871 185.500 C 34.713 179.280, 43.580 169.285, 47.280 168.131 C 52.577 166.478, 68.796 166.809, 72.675 168.650 C 75.554 170.016, 81.182 176, 79.588 176 C 79.286 176, 76.577 174.425, 73.567 172.500 C 70.558 170.575, 67.587 169, 66.965 169 C 64.301 169, 67.161 171.702, 74.563 176.177 C 83.934 181.843, 87.920 182.579, 85.096 178.121 C 84.483 177.153, 85.213 175.874, 87.551 173.822 C 93.947 168.205, 94.440 159.963, 88.644 155.542 C 86.888 154.202, 81.194 151.482, 75.992 149.497 C 70.789 147.512, 65.815 145.238, 64.938 144.444 C 63.095 142.776, 61 142.542, 61 144.003 M 176.923 153 C 176.882 157.125, 176.909 163.437, 176.984 167.026 C 177.097 172.472, 176.449 175.272, 173.067 183.950 C 170.839 189.669, 169.219 194.553, 169.469 194.803 C 169.719 195.052, 171.940 194.749, 174.405 194.128 C 176.869 193.508, 185.269 193, 193.071 193 L 207.256 193 206.606 188.937 C 206.248 186.702, 205.699 182.089, 205.385 178.687 C 205.071 175.284, 203.505 168.519, 201.907 163.653 C 198.964 154.697, 198.221 148.183, 199.944 146.450 C 200.541 145.850, 196.484 145.500, 188.944 145.500 L 176.998 145.500 176.923 153 M 107.051 170.662 C 102.477 176.477, 103.275 180.899, 109.149 182.288 C 113.715 183.368, 117.524 181.821, 119.445 178.106 C 121.359 174.404, 120.710 172.602, 116.533 170.020 C 112.135 167.302, 109.556 167.477, 107.051 170.662 M 111.944 191.799 C 108.632 192.077, 108.303 192.416, 107.142 196.760 C 106.456 199.324, 105.498 201.900, 105.014 202.484 C 103.457 204.359, 97.941 215.275, 98.346 215.679 C 98.560 215.894, 100.684 215.632, 103.064 215.097 C 105.445 214.562, 107.754 214.348, 108.196 214.621 C 109.956 215.709, 108.831 216.890, 105.750 217.187 C 103.963 217.359, 102.646 217.932, 102.824 218.461 C 103.002 218.989, 102.327 219.745, 101.324 220.141 C 98.410 221.289, 122.104 221.099, 126.276 219.940 C 130.763 218.694, 130.362 217.488, 124.918 215.857 C 120.224 214.451, 119.926 211.800, 124.373 211.008 L 127.221 210.500 125.024 208.517 C 121.662 205.482, 117.008 198.154, 116.212 194.644 C 115.559 191.761, 115.205 191.525, 111.944 191.799 M 177.386 195.999 C 174.573 196.411, 171.423 197.241, 170.386 197.844 C 168.628 198.865, 168.659 198.941, 170.833 198.970 C 173.621 199.006, 173.654 198.912, 168.095 206.706 C 165.642 210.145, 161.311 214.520, 158.319 216.581 C 151.081 221.565, 152.239 222.094, 159.755 217.236 C 163.047 215.109, 169.257 212.325, 173.555 211.048 C 180.127 209.098, 182.813 208.814, 190.435 209.269 C 200.503 209.870, 210.728 212.827, 215.652 216.562 C 219.137 219.205, 220 218.526, 220 213.141 C 220 207.409, 214.411 203.465, 204.955 202.524 C 196.160 201.648, 195.887 199.817, 204.374 198.628 C 208.961 197.986, 209.979 197.231, 207.971 195.961 C 206.257 194.877, 184.860 194.904, 177.386 195.999 M 61.306 211.644 C 60.650 211.911, 60.360 212.775, 60.663 213.565 C 61.024 214.506, 60.550 215, 59.285 215 C 57.634 215, 51.136 216.823, 46 218.727 C 45.104 219.059, 46.715 220.007, 50 221.080 C 59.600 224.218, 80.606 223.206, 77.172 219.772 C 76.537 219.137, 73.764 218.652, 71.009 218.693 C 65.077 218.783, 64.655 217.609, 69.241 213.777 L 72.500 211.054 67.500 211.106 C 64.750 211.134, 61.963 211.376, 61.306 211.644 M 171.591 214.480 C 167.791 215.821, 164.191 217.415, 163.591 218.022 C 162.796 218.827, 163.218 218.855, 165.148 218.126 C 167.540 217.224, 186.026 213.683, 193.500 212.696 C 195.150 212.478, 192.450 212.242, 187.500 212.171 C 180.288 212.068, 177.127 212.526, 171.591 214.480 M 183 216.727 C 177.172 217.789, 160.822 221.845, 160.310 222.357 C 159.087 223.579, 161.161 226.169, 164.469 227.552 C 168.913 229.408, 183.525 230.960, 196.772 230.983 L 207.045 231 211.522 226.873 C 213.985 224.603, 216 222.160, 216 221.445 C 216 220.730, 214.814 219.212, 213.365 218.073 C 210.991 216.205, 209.482 216.013, 198.115 216.136 C 191.177 216.211, 184.375 216.477, 183 216.727 M 76.972 229.354 C 76.681 229.649, 72.392 229.972, 67.441 230.072 C 62.489 230.172, 54.230 230.833, 49.086 231.540 C 43.943 232.247, 35.069 233.144, 29.367 233.532 C 21.142 234.093, 19 234.548, 19 235.736 C 19 237.439, 20.725 237.374, 47.500 234.664 C 81.356 231.238, 90.125 230.774, 97.305 232.032 C 104.309 233.259, 106.283 232.884, 104.134 230.733 C 102.895 229.494, 78.078 228.234, 76.972 229.354" stroke="none" fill="#212121" fill-rule="evenodd" fill-opacity="1"/>
</svg>