<svg xmlns="http://www.w3.org/2000/svg" width="1024" height="1024" viewBox="0 0 256 256" version="1.1" class="injected-svg" data-src="https://storage.googleapis.com/illustroke-c1d67.appspot.com/sKvoQfSqEHPmlLobzx5EfRxGct22/f0z032s46wa08wnht12cgse-2.svg" xmlns:xlink="http://www.w3.org/1999/xlink"><rect width="1024" height="1024" fill="white"/>
	<path d="M 98.300 22.414 C 97.011 24.693, 89.184 32.770, 87.784 33.265 C 86.919 33.571, 87.414 34.581, 89.302 36.360 C 92.407 39.287, 94.245 39.803, 93.362 37.500 C 92.415 35.033, 94.182 35.796, 96.927 39.040 C 99.852 42.495, 104.941 43.760, 109.254 42.104 C 110.769 41.522, 113.455 38.995, 115.222 36.488 C 116.989 33.980, 119.462 31.671, 120.718 31.356 C 121.973 31.041, 123 30.212, 123 29.514 C 123 27.473, 120.188 25.717, 117.885 26.320 C 116.406 26.706, 114.805 25.982, 112.629 23.943 C 109.999 21.477, 108.670 21.009, 104.300 21.005 C 100.857 21.002, 98.829 21.478, 98.300 22.414 M 99.963 24.282 C 98.284 25.613, 94 31.448, 94 32.404 C 94 33.459, 98.562 33.038, 99.724 31.876 C 100.342 31.258, 103.434 30.470, 106.593 30.126 C 112.985 29.430, 114.131 28.131, 111.063 25.063 C 108.728 22.728, 102.478 22.288, 99.963 24.282 M 103 33 C 101.041 33.627, 100.933 33.797, 102.500 33.782 C 103.600 33.772, 105.850 33.420, 107.500 33 C 110.195 32.314, 110.246 32.235, 108 32.218 C 106.625 32.208, 104.375 32.560, 103 33 M 110.672 36.164 C 109.676 36.721, 106.461 37.025, 103.527 36.839 C 98.705 36.532, 98.283 36.668, 99.132 38.250 C 100.533 40.862, 109.070 40.685, 111.506 37.994 C 113.643 35.632, 113.233 34.730, 110.672 36.164 M 46.272 41.637 C 44.497 42.512, 41.225 45.202, 39.001 47.614 C 36.778 50.026, 34.054 52, 32.947 52 C 30.046 52, 23.896 54.749, 21.264 57.222 C 16.796 61.419, 19.454 65.387, 28.237 67.631 C 31.132 68.371, 33.950 69.707, 34.500 70.599 C 40.627 80.536, 46.017 84, 55.356 84 C 60.752 84, 61.596 84.358, 70.072 90.250 C 78.158 95.870, 79.002 96.752, 78.451 99 C 78.115 100.375, 77.598 103.240, 77.303 105.366 L 76.768 109.232 71.683 108.744 C 68.886 108.475, 65.317 108.622, 63.752 109.071 C 59.268 110.357, 26.869 132.233, 23.127 136.502 C 19.909 140.173, 19.777 140.631, 20.248 146.499 C 20.519 149.881, 21.362 153.740, 22.121 155.074 C 22.879 156.408, 24.175 159.519, 25 161.988 C 26.364 166.069, 26.862 166.542, 30.500 167.205 C 32.700 167.607, 41.121 168.244, 49.214 168.622 L 63.927 169.308 68.045 165.190 C 70.351 162.884, 71.858 160.579, 71.470 159.951 C 71.029 159.238, 69.306 160.317, 66.733 162.915 C 61.848 167.849, 60 168.126, 60 163.927 C 60 161.533, 59.613 160.931, 58.250 161.204 C 57.085 161.438, 56.513 162.465, 56.539 164.277 C 56.571 166.453, 56.123 167, 54.308 167 C 51.923 167, 50.478 163.915, 51.182 160.329 C 51.518 158.620, 52.814 158.519, 70.931 158.793 L 90.320 159.085 93.910 161.925 C 95.884 163.486, 99.750 166.076, 102.500 167.680 C 122.023 179.069, 139.615 178.206, 159.898 164.866 L 167.297 160 176.145 160 L 184.994 160 189.813 165 L 194.632 170 203.566 170.001 C 215.840 170.003, 229.187 168.125, 230.750 166.176 C 231.438 165.319, 232 163.379, 232 161.866 C 232 160.247, 232.824 158.536, 234 157.713 C 235.649 156.558, 236.111 154.739, 236.636 147.349 L 237.272 138.387 231.886 133.836 C 224.264 127.396, 199.177 110.727, 195 109.327 C 193.075 108.682, 189.415 108.119, 186.867 108.077 C 182.914 108.011, 182.157 107.670, 181.713 105.750 C 181.427 104.513, 180.728 102.029, 180.160 100.231 C 179.132 96.973, 179.153 96.944, 186.221 91.981 C 190.122 89.241, 193.658 87, 194.078 87 C 194.499 87, 196.295 90.150, 198.070 94.001 C 199.845 97.851, 201.905 101.506, 202.648 102.123 C 204.946 104.030, 204.235 101.596, 200.077 93.314 C 195.498 84.192, 196.119 81.316, 201.423 87.081 C 207.140 93.296, 210.469 94.705, 221.280 95.485 C 232.344 96.284, 234.671 95.471, 237.614 89.779 C 239.169 86.772, 239.157 86.244, 237.418 81.126 C 236.007 76.975, 233.889 73.970, 228.533 68.517 C 220.010 59.841, 214.766 57.019, 205.804 56.286 C 199.349 55.759, 198.997 55.849, 196.054 58.793 C 192.738 62.108, 192.330 64.754, 194.093 71.500 C 194.669 73.700, 195.373 76.449, 195.659 77.609 C 196.006 79.014, 195.606 79.937, 194.463 80.376 C 192.296 81.207, 190 79.360, 190 76.784 C 190 75.696, 189.158 74.593, 188.122 74.322 C 187.089 74.052, 185.749 72.744, 185.143 71.415 C 184.070 69.060, 180 67.940, 180 70 C 180 70.550, 180.477 71, 181.059 71 C 181.641 71, 181.840 71.450, 181.500 72 C 181.160 72.550, 181.568 73, 182.406 73 C 183.244 73, 184.450 74.013, 185.087 75.250 C 185.724 76.487, 187.342 78.678, 188.683 80.119 L 191.122 82.737 184.632 87.369 C 181.062 89.916, 177.772 91.975, 177.321 91.943 C 176.869 91.912, 174.533 89.186, 172.130 85.886 C 165.397 76.642, 151.706 67.783, 139.972 65.079 C 134.248 63.760, 123.776 63.758, 118 65.075 C 106.379 67.723, 89.721 79.243, 83.906 88.652 C 82.726 90.561, 81.233 91.919, 80.586 91.672 C 79.940 91.424, 76.415 89.126, 72.752 86.566 L 66.093 81.911 70.047 78.339 C 72.413 76.201, 74.669 72.883, 75.666 70.077 C 77.064 66.141, 77.991 65.115, 81.426 63.694 C 83.678 62.762, 86.052 62, 86.700 62 C 87.446 62, 87.810 60.478, 87.690 57.855 C 87.458 52.784, 84.426 50.126, 77.913 49.282 C 74.863 48.886, 72.364 47.694, 69.821 45.421 C 63.839 40.075, 52.980 38.330, 46.272 41.637 M 127.775 42.250 C 127.533 42.938, 127.477 45.750, 127.650 48.500 C 127.823 51.250, 127.635 53.050, 127.232 52.500 C 126.204 51.095, 116.764 51.232, 116.284 52.658 C 115.726 54.319, 117.861 55.360, 119.327 54.143 C 120.119 53.487, 121.098 53.456, 122.034 54.057 C 124.085 55.377, 135.996 54.991, 136.015 53.605 C 136.025 52.916, 136.329 52.970, 136.824 53.750 C 137.447 54.731, 138.035 54.684, 139.559 53.532 C 141.735 51.886, 141.365 51.743, 134.500 51.590 L 130.500 51.500 130.198 46.250 C 129.914 41.322, 128.766 39.428, 127.775 42.250 M 49.500 43.007 C 48.213 43.565, 49.283 43.668, 52.500 43.296 C 55.250 42.978, 57.688 42.557, 57.917 42.359 C 58.784 41.612, 51.411 42.179, 49.500 43.007 M 62.500 44.879 C 66.535 46.730, 72 51.504, 72 53.178 C 72 53.677, 70.313 52.312, 68.250 50.146 C 58.206 39.598, 40.754 44.060, 36.961 58.146 C 36.360 60.377, 36.069 62.402, 36.314 62.647 C 36.559 62.892, 41.100 63.564, 46.406 64.141 C 54.428 65.013, 57.268 64.917, 63.276 63.572 C 71.995 61.619, 72.507 61.312, 73.376 57.500 C 73.910 55.163, 73.814 54.831, 72.944 56 C 72.043 57.210, 71.930 57.033, 72.363 55.084 C 72.703 53.554, 72.154 51.620, 70.866 49.811 C 68.862 46.997, 62.307 42.979, 59.790 43.022 C 59.080 43.034, 60.300 43.870, 62.500 44.879 M 144.605 51.588 C 143.582 54.252, 143.915 55, 146.122 55 C 147.785 55, 148.003 54.709, 147.131 53.658 C 146.519 52.920, 146.268 52.065, 146.575 51.758 C 146.882 51.451, 146.700 50.933, 146.171 50.606 C 145.642 50.279, 144.937 50.721, 144.605 51.588 M 105.186 52.109 C 102.354 53.178, 103.220 55, 106.559 55 C 108.018 55, 109 54.420, 109 53.559 C 109 51.528, 107.866 51.097, 105.186 52.109 M 78 52.566 C 78 52.877, 78.472 54.014, 79.050 55.093 C 79.913 56.706, 79.572 57.582, 77.127 60.027 C 73.595 63.559, 74.967 63.835, 80.492 60.706 C 84.969 58.171, 86.111 55.286, 83.418 53.316 C 81.618 52, 78 51.499, 78 52.566 M 151.500 53 C 150.674 54.336, 151.784 56, 153.500 56 C 155.540 56, 156.469 53.911, 154.878 52.904 C 153.071 51.759, 152.252 51.782, 151.500 53 M 160.669 54.664 C 160.301 55.032, 160 56.158, 160 57.167 C 160 59.056, 163.389 59.798, 164.417 58.134 C 165.097 57.033, 161.567 53.766, 160.669 54.664 M 26 56.752 C 22.003 58.748, 20.839 62.313, 23.689 63.826 C 24.685 64.354, 28.875 65.273, 33 65.866 C 44.612 67.538, 46.935 67.703, 46.388 66.819 C 46.110 66.369, 44.446 65.993, 42.691 65.985 C 38.299 65.964, 31.339 63.767, 29.344 61.773 C 27.807 60.236, 27.809 59.941, 29.369 57.560 C 31.346 54.542, 30.722 54.393, 26 56.752 M 92 57.066 C 92 58.065, 92.450 59.160, 93 59.500 C 93.550 59.840, 94 59.330, 94 58.368 C 94 56.788, 94.143 56.806, 95.468 58.559 C 96.880 60.425, 96.938 60.399, 96.968 57.875 C 96.994 55.733, 96.540 55.250, 94.500 55.250 C 92.751 55.250, 92 55.796, 92 57.066 M 31.979 58.013 C 30.836 58.720, 30.780 59.180, 31.726 60.126 C 32.671 61.071, 33.078 60.961, 33.591 59.624 C 33.952 58.683, 34.066 57.733, 33.845 57.511 C 33.623 57.290, 32.784 57.516, 31.979 58.013 M 199 59.236 C 196.916 60.330, 196.451 61.386, 196.204 65.585 C 195.454 78.366, 206.060 90.167, 220.812 92.964 C 233.419 95.355, 239.763 89.069, 234.534 79.368 C 232.633 75.841, 232.069 75.268, 232.484 77.287 C 233.297 81.245, 231.331 87.655, 228.749 89.463 C 224.693 92.304, 216.336 90.543, 211.264 85.778 C 210.019 84.608, 209 84.033, 209 84.500 C 209 84.967, 207.815 84.258, 206.368 82.924 C 203.149 79.960, 199.023 71.475, 199.010 67.793 C 199.001 65.292, 199.570 64.912, 206.468 62.814 C 214.490 60.375, 214.485 59.495, 206.447 58.523 C 203.221 58.132, 200.630 58.381, 199 59.236 M 168.553 60.915 C 168.231 61.436, 168.394 62.125, 168.915 62.447 C 169.436 62.769, 170.125 62.606, 170.447 62.085 C 170.769 61.564, 170.606 60.875, 170.085 60.553 C 169.564 60.231, 168.875 60.394, 168.553 60.915 M 212.813 62.683 C 213.534 62.972, 214.397 62.936, 214.729 62.604 C 215.061 62.272, 214.471 62.036, 213.417 62.079 C 212.252 62.127, 212.015 62.364, 212.813 62.683 M 208.882 64.927 C 208.816 65.242, 208.816 65.838, 208.882 66.250 C 208.947 66.662, 208.337 67, 207.526 67 C 206.715 67, 205.372 68.315, 204.541 69.921 C 203.268 72.382, 203.235 73.328, 204.327 75.925 C 205.769 79.355, 210.440 83.254, 216.500 86.087 C 223.242 89.238, 225.594 88.069, 222.004 83.351 C 220.810 81.781, 220.809 81.689, 221.998 82.750 C 223.673 84.243, 225.373 84.413, 224.500 83 C 224.160 82.450, 224.610 82, 225.500 82 C 226.468 82, 226.832 82.464, 226.405 83.155 C 225.981 83.840, 226.128 84.039, 226.769 83.643 C 228.555 82.539, 229.190 77.407, 228.043 73.334 C 226.399 67.490, 221.221 64.032, 214.384 64.212 C 211.423 64.290, 208.947 64.611, 208.882 64.927 M 176.020 66.524 C 176.716 67.362, 177.491 67.842, 177.743 67.591 C 178.436 66.897, 177.027 65, 175.819 65 C 175.155 65, 175.231 65.574, 176.020 66.524 M 119.500 67.434 C 102.977 70.842, 88.485 82.632, 82.096 97.865 L 79.846 103.229 82.359 105.865 C 85.074 108.711, 87.495 114, 86.084 114 C 85.607 114, 84.942 112.906, 84.607 111.570 C 83.463 107.011, 79 104.137, 79 107.959 C 79 113.621, 81.403 125.217, 82.677 125.706 C 84.595 126.442, 85.188 125.659, 86.041 121.261 L 86.770 117.500 86.885 121.750 L 87 126 95.696 126 L 104.392 126 101.263 122.750 C 99.542 120.963, 97.187 116.953, 96.029 113.841 C 93.595 107.297, 90.449 103.644, 91.494 108.575 L 92.114 111.500 90.645 109.013 C 89.050 106.313, 89.331 105, 91.502 105 C 93.311 105, 95.801 108.608, 97.025 113 C 98.338 117.714, 99.786 119.814, 100.750 118.400 C 101.162 117.795, 102.541 116.751, 103.814 116.080 C 106.828 114.492, 109 116.160, 109 120.063 C 109 123.161, 110.791 124.957, 111.973 123.044 C 112.535 122.134, 112.859 122.189, 113.272 123.266 C 113.669 124.302, 113.084 124.672, 111.161 124.600 C 108.905 124.515, 108.452 123.997, 108.182 121.193 C 107.799 117.199, 105.637 116.114, 102.936 118.558 C 100.962 120.344, 100.970 120.379, 103.952 123.104 L 106.958 125.849 132.979 125.948 C 148.850 126.008, 159 125.675, 159 125.095 C 159 124.571, 158.412 123.548, 157.694 122.821 C 156.976 122.095, 155.555 120.082, 154.536 118.348 C 152.894 115.553, 152.828 114.687, 153.946 110.693 C 156.077 103.083, 158.475 100, 162.263 100 C 164.074 100, 166.556 100.701, 167.779 101.558 C 169.003 102.415, 170.453 102.838, 171.002 102.499 C 171.551 102.160, 172 102.359, 172 102.941 C 172 104.530, 168.423 104.215, 167 102.500 C 165.696 100.929, 161.310 100.507, 159.362 101.765 C 157.494 102.972, 155 109.975, 155 114.014 C 155 116.768, 155.875 118.876, 158.250 121.840 C 161.333 125.688, 161.786 125.899, 167.059 125.948 C 170.264 125.978, 173.411 125.420, 174.490 124.631 C 176.287 123.317, 176.234 123.068, 173.181 118.460 C 171.431 115.818, 170.039 112.722, 170.086 111.579 C 170.151 109.996, 170.378 110.187, 171.034 112.381 C 171.509 113.965, 172.790 116.215, 173.882 117.381 C 174.974 118.546, 176.393 120.850, 177.036 122.500 L 178.206 125.500 179.117 123.126 C 179.618 121.820, 180.070 117.920, 180.122 114.459 C 180.433 93.733, 162.993 73.717, 139.264 67.568 C 132.236 65.747, 127.820 65.717, 119.500 67.434 M 60 68.042 C 56.975 68.460, 50.788 68.847, 46.250 68.901 C 41.712 68.955, 38 69.380, 38 69.845 C 38 70.310, 38.911 71.514, 40.024 72.521 C 41.583 73.933, 41.755 74.551, 40.774 75.218 C 39.805 75.876, 39.859 76.025, 41 75.839 C 41.825 75.704, 43.850 76.300, 45.500 77.163 C 47.150 78.026, 50.300 79.072, 52.500 79.486 C 55.832 80.113, 56.166 80.374, 54.500 81.049 C 52.790 81.742, 52.924 81.870, 55.417 81.930 C 57.021 81.968, 58.026 81.693, 57.651 81.318 C 57.276 80.943, 59.339 79.480, 62.235 78.068 C 66.910 75.788, 72 70.463, 72 67.852 C 72 66.879, 67.951 66.943, 60 68.042 M 71.965 71.085 C 71.248 72.816, 68.870 75.531, 66.680 77.117 C 64.491 78.702, 63.183 80, 63.773 80 C 66.595 80, 75.230 69.896, 73.708 68.375 C 73.467 68.133, 72.682 69.353, 71.965 71.085 M 139 71 C 139 71.550, 139.477 72, 140.059 72 C 140.641 72, 140.840 71.550, 140.500 71 C 140.160 70.450, 139.684 70, 139.441 70 C 139.198 70, 139 70.450, 139 71 M 115.750 72.706 C 116.987 72.944, 119.013 72.944, 120.250 72.706 C 121.487 72.467, 120.475 72.272, 118 72.272 C 115.525 72.272, 114.513 72.467, 115.750 72.706 M 145 72.551 C 145 73.367, 152.132 76.201, 152.716 75.617 C 152.991 75.342, 151.538 74.416, 149.486 73.559 C 145.357 71.833, 145 71.753, 145 72.551 M 125.500 74 C 124.181 74.567, 124.011 74.878, 125 74.914 C 125.825 74.945, 127.175 74.533, 128 74 C 129.828 72.819, 128.249 72.819, 125.500 74 M 126.595 77.500 C 122.800 81.016, 120.077 80.590, 123.250 76.977 C 123.938 76.194, 123.458 76.425, 122.184 77.491 C 120.010 79.310, 119.976 79.509, 121.625 80.715 C 122.591 81.422, 123.634 81.655, 123.941 81.234 C 124.248 80.813, 125.997 79.238, 127.827 77.734 C 129.656 76.230, 130.735 75, 130.223 75 C 129.711 75, 128.078 76.125, 126.595 77.500 M 133.437 77.902 C 134.502 79.095, 135.942 79.853, 136.636 79.586 C 137.331 79.320, 139.759 81.323, 142.033 84.039 C 145.755 88.485, 146.320 88.823, 147.707 87.436 C 148.731 86.412, 150.296 86.077, 152.374 86.436 L 155.500 86.976 152.586 85.850 C 150.401 85.006, 149.203 85.017, 147.800 85.893 C 146.180 86.905, 145.296 86.395, 141.214 82.096 C 138.621 79.365, 135.375 76.816, 134 76.432 L 131.500 75.734 133.437 77.902 M 226.624 78.539 C 225.659 81.053, 225.943 81.702, 227.122 79.675 C 227.706 78.671, 227.973 77.639, 227.715 77.382 C 227.458 77.124, 226.966 77.645, 226.624 78.539 M 44.733 79.124 C 45.412 79.808, 46.219 80.115, 46.526 79.807 C 46.834 79.499, 46.279 78.940, 45.293 78.564 C 43.868 78.022, 43.753 78.136, 44.733 79.124 M 192.861 84.059 L 190.500 86.119 193.250 84.444 C 194.762 83.523, 196 82.597, 196 82.385 C 196 81.604, 195.165 82.050, 192.861 84.059 M 127 85.332 C 127 85.553, 128.903 86.994, 131.229 88.533 L 135.458 91.331 131.479 92.644 C 129.291 93.365, 128.738 93.732, 130.250 93.459 C 133.905 92.798, 133.724 93.579, 129.750 95.610 C 127.963 96.523, 126.184 97.807, 125.797 98.462 C 125.287 99.327, 123.260 99.433, 118.402 98.848 C 114.721 98.405, 111.495 97.829, 111.234 97.568 C 110.973 97.307, 111.058 95.906, 111.422 94.456 C 111.865 92.690, 112.566 92.003, 113.542 92.378 C 114.421 92.715, 115 92.340, 115 91.433 C 115 88.835, 110.999 91.757, 110.384 94.804 C 109.866 97.367, 109.534 97.505, 103.669 97.606 C 99.490 97.677, 96.048 98.427, 93 99.929 C 88.501 102.147, 89.124 102.083, 98.500 99.370 C 102.589 98.186, 105.049 98.126, 112 99.039 C 123.429 100.540, 124 100.750, 124 103.451 C 124 104.926, 124.726 105.957, 126.001 106.290 C 127.102 106.578, 127.751 106.405, 127.442 105.907 C 127.134 105.408, 127.642 105, 128.572 105 C 129.929 105, 130.155 104.343, 129.720 101.664 C 129.075 97.689, 129.499 96.931, 133.750 94.459 C 135.537 93.419, 137 92.246, 137 91.852 C 137 91.071, 132.828 87.978, 129.250 86.107 C 128.012 85.459, 127 85.111, 127 85.332 M 156 87.457 C 156 87.737, 158.166 89.064, 160.813 90.405 C 163.461 91.747, 167.286 94.681, 169.313 96.925 C 171.341 99.170, 173 100.569, 173 100.036 C 173 99.503, 171.425 97.492, 169.500 95.567 C 167.308 93.374, 165.957 91.027, 165.884 89.283 C 165.814 87.592, 165.589 87.187, 165.311 88.250 C 164.748 90.403, 162.812 90.471, 158.950 88.474 C 157.328 87.635, 156 87.178, 156 87.457 M 124.500 95 C 124.160 95.550, 124.332 96, 124.882 96 C 125.432 96, 126.160 95.550, 126.500 95 C 126.840 94.450, 126.668 94, 126.118 94 C 125.568 94, 124.840 94.450, 124.500 95 M 115.269 95.693 C 116.242 95.947, 117.592 95.930, 118.269 95.656 C 118.946 95.382, 118.150 95.175, 116.500 95.195 C 114.850 95.215, 114.296 95.439, 115.269 95.693 M 126.250 99.968 C 123.809 103.882, 125.274 106.785, 128.020 103.476 C 128.861 102.463, 128.986 101.285, 128.392 99.958 C 127.502 97.967, 127.498 97.967, 126.250 99.968 M 187.750 110.805 C 182.462 111.144, 182.434 111.212, 183.898 120 L 184.648 124.500 185.399 119.500 C 186.499 112.171, 186.516 112.147, 191.196 111.810 C 193.563 111.640, 194.825 111.275, 194 111 C 193.175 110.725, 190.363 110.637, 187.750 110.805 M 56.750 115.553 C 53.038 118.031, 50 120.180, 50 120.329 C 50 120.477, 51.618 120.409, 53.596 120.179 C 55.574 119.948, 59.501 118.238, 62.323 116.379 C 70.125 111.241, 73.188 111.875, 77.411 119.500 C 78.386 121.260, 78.887 121.674, 78.624 120.500 C 78.377 119.400, 77.890 116.813, 77.542 114.750 L 76.909 111 70.205 111.024 C 63.940 111.046, 63.057 111.344, 56.750 115.553 M 92.072 115 C 92.049 116.375, 92.449 118.162, 92.961 118.971 C 94.485 121.382, 94.707 119.751, 93.365 116 C 92.280 112.968, 92.107 112.834, 92.072 115 M 196.751 114.246 C 196.506 114.982, 194.668 115.431, 192.171 115.366 L 188 115.256 188 119.628 L 188 124 192 124 C 194.649 124, 196.667 123.333, 197.975 122.025 C 199.061 120.939, 201.147 119.750, 202.611 119.383 L 205.273 118.715 202.887 116.829 C 198.732 113.546, 197.200 112.901, 196.751 114.246 M 63.696 116.978 C 58.888 120.027, 57.700 122, 60.671 122 C 61.590 122, 63.053 122.616, 63.921 123.368 C 64.790 124.120, 68.088 124.988, 71.250 125.296 L 77 125.855 77 123.004 C 77 119.697, 72.639 114, 70.107 114 C 69.163 114, 66.278 115.340, 63.696 116.978 M 49.784 123.061 C 48.177 123.998, 48.193 124.269, 50.030 127.281 C 51.109 129.051, 51.994 131.287, 51.996 132.250 C 52.001 134.698, 56.461 134.539, 59 132 C 61.403 129.597, 61.538 127.214, 59.443 124.223 C 57.761 121.821, 52.911 121.238, 49.784 123.061 M 181.079 123.583 C 181.127 124.748, 181.364 124.985, 181.683 124.188 C 181.972 123.466, 181.936 122.603, 181.604 122.271 C 181.272 121.939, 181.036 122.529, 181.079 123.583 M 200.246 123.154 C 198.343 125.057, 198.734 130.449, 200.918 132.425 C 205.268 136.362, 211.496 131.174, 209.449 125.318 C 208.658 123.056, 207.776 122.442, 204.978 122.204 C 203.060 122.042, 200.931 122.469, 200.246 123.154 M 210.564 123.293 C 210.940 124.279, 211.499 124.834, 211.807 124.526 C 212.115 124.219, 211.808 123.412, 211.124 122.733 C 210.136 121.753, 210.022 121.868, 210.564 123.293 M 214.834 127.706 C 215.120 130.154, 214.613 132.033, 213.120 134.051 C 211.954 135.629, 211 137.373, 211 137.928 C 211 138.482, 209.762 139.648, 208.250 140.518 C 205.660 142.008, 206.173 142.067, 217.030 141.523 C 223.371 141.205, 229.894 140.588, 231.525 140.152 L 234.490 139.359 231.495 136.560 C 229.848 135.020, 225.334 131.616, 221.464 128.994 L 214.428 124.228 214.834 127.706 M 44.667 125.667 C 43.115 127.218, 44.132 130.733, 46.498 131.999 C 49.903 133.821, 50.403 132.913, 48.358 128.624 C 46.627 124.994, 45.912 124.421, 44.667 125.667 M 65.062 128.163 C 66.958 131.064, 67.811 131.636, 69.162 130.913 C 72.092 129.345, 75.564 129.907, 77.826 132.314 C 82.316 137.095, 79.783 140.260, 71.831 139.805 C 66.915 139.524, 66.494 139.305, 66.428 137 C 66.389 135.625, 66.011 133.455, 65.588 132.177 C 64.864 129.989, 64.711 129.951, 62.977 131.521 C 61.964 132.438, 61.346 133.739, 61.605 134.412 C 62.429 136.559, 58.085 141.001, 55.177 140.985 C 51.801 140.965, 50.330 140.020, 49.866 137.572 C 49.652 136.444, 48.291 135.320, 46.585 134.864 C 43.132 133.941, 42.036 132.474, 42.015 128.750 C 42.007 127.237, 41.739 126, 41.419 126 C 40.544 126, 30.978 132.591, 27 135.935 C 24.724 137.848, 23.850 139.205, 24.500 139.815 C 25.050 140.331, 32.360 141.557, 40.744 142.539 C 55.489 144.266, 56.530 144.264, 72.494 142.455 C 84.361 141.111, 89 140.223, 89 139.293 C 89 138.479, 90.389 137.972, 92.750 137.924 C 94.813 137.882, 100.550 137.696, 105.500 137.511 C 110.450 137.325, 126.313 137.134, 140.750 137.086 C 156.181 137.036, 167 136.617, 167 136.071 C 167 135.505, 151.831 135.370, 128.184 135.726 C 106.834 136.046, 88.159 136.006, 86.684 135.635 C 84.415 135.066, 84 134.423, 84 131.481 C 84 128.545, 83.648 127.996, 81.750 127.975 C 72.659 127.874, 65.752 127.041, 64.335 125.873 C 63.302 125.022, 63.579 125.893, 65.062 128.163 M 184.653 126.692 C 184.541 126.798, 182.323 126.995, 179.724 127.129 L 175 127.374 175 131.187 C 175 133.514, 174.513 135.041, 173.750 135.106 C 173.063 135.165, 171.600 135.277, 170.500 135.356 C 168.100 135.529, 167.285 139.162, 169.275 140.813 C 170.696 141.993, 203.633 142.700, 204.758 141.575 C 205.074 141.259, 204.662 141, 203.841 141 C 201.663 141, 197.565 136.260, 197.530 133.701 C 197.507 132.044, 196.898 131.500, 195.065 131.500 C 192.901 131.500, 192.622 131.946, 192.565 135.500 L 192.500 139.500 186.500 139.500 L 180.500 139.500 180.194 135.815 C 179.831 131.453, 182.316 129.526, 187.350 130.265 C 189.067 130.517, 191.153 130.368, 191.986 129.934 C 192.818 129.501, 194.316 128.891, 195.313 128.580 C 198.872 127.470, 195.803 126.029, 190.377 126.262 C 187.341 126.393, 184.765 126.587, 184.653 126.692 M 212.195 128.500 C 212.215 130.150, 212.439 130.704, 212.693 129.731 C 212.947 128.758, 212.930 127.408, 212.656 126.731 C 212.382 126.054, 212.175 126.850, 212.195 128.500 M 93.250 128.798 C 87.284 129.082, 87 129.212, 87 131.662 L 87 134.229 129.250 133.511 C 152.488 133.116, 171.819 132.498, 172.208 132.138 C 172.598 131.778, 172.523 130.846, 172.042 130.067 C 171.315 128.891, 165.100 128.639, 135.333 128.576 C 115.625 128.534, 96.688 128.634, 93.250 128.798 M 70.250 132.662 C 69.563 132.940, 69 134.059, 69 135.151 C 69 136.667, 69.463 136.988, 70.962 136.512 C 72.041 136.169, 73.841 136.380, 74.962 136.980 C 76.669 137.893, 77 137.772, 77 136.235 C 77 132.856, 73.872 131.201, 70.250 132.662 M 183.750 133.080 C 181.042 134.657, 181.662 135.846, 185.575 136.580 C 189.930 137.397, 191.828 135.971, 189.493 133.636 C 187.622 131.765, 186.238 131.631, 183.750 133.080 M 206.979 136.013 C 206.175 136.510, 204.388 136.656, 203.008 136.337 L 200.500 135.757 202.750 138.101 L 205 140.444 207.194 138.250 C 209.538 135.907, 209.404 134.514, 206.979 136.013 M 52 137.566 C 52 138.677, 52.779 139.041, 54.673 138.816 C 58.566 138.356, 58.909 136, 55.083 136 C 52.951 136, 52 136.483, 52 137.566 M 109.816 140.749 C 120.440 140.911, 137.540 140.911, 147.816 140.748 C 158.092 140.586, 149.400 140.453, 128.500 140.454 C 107.600 140.454, 99.192 140.587, 109.816 140.749 M 220 143.559 C 211.374 144.382, 200.092 144.638, 188.750 144.267 C 175.289 143.828, 171 143.978, 171 144.888 C 171 145.548, 171.563 146.015, 172.250 145.925 C 172.938 145.836, 175.410 145.816, 177.744 145.882 C 181.545 145.988, 181.952 146.233, 181.646 148.236 C 181.398 149.863, 180.551 150.530, 178.537 150.685 C 177.014 150.802, 175.490 151.177, 175.149 151.518 C 174.808 151.859, 176.547 151.994, 179.014 151.819 C 183.418 151.506, 183.494 151.441, 183.186 148.250 C 182.804 144.299, 184.525 143.918, 185.439 147.750 C 185.800 149.262, 186.314 151.240, 186.581 152.144 C 187.005 153.576, 185.931 153.804, 178.256 153.907 L 169.445 154.026 169.836 149.926 C 170.051 147.671, 169.838 145.454, 169.363 144.999 C 168.888 144.544, 150.500 143.864, 128.500 143.488 C 97.918 142.966, 86.028 143.115, 78 144.124 C 65.762 145.661, 47.242 145.884, 38.101 144.604 C 33.302 143.932, 31.881 143.999, 32.420 144.870 C 32.815 145.510, 33.561 145.771, 34.078 145.452 C 36.209 144.135, 39 146.139, 39 148.986 C 39 153.395, 38.008 155, 35.285 155 C 33.148 155, 32.870 154.652, 33.382 152.614 C 33.846 150.767, 33.517 150.107, 31.929 149.692 C 30.659 149.359, 29.664 149.713, 29.315 150.621 C 28.518 152.700, 29.907 153.733, 31.131 151.971 C 32.023 150.686, 32.101 150.689, 31.749 152 C 31.276 153.762, 25 154.696, 25 153.004 C 25 152.387, 25.526 152.207, 26.170 152.605 C 26.944 153.084, 27.135 152.793, 26.733 151.747 C 26.368 150.796, 26.765 149.920, 27.730 149.550 C 28.953 149.081, 29.057 148.657, 28.167 147.767 C 26.422 146.022, 26.752 145, 29.059 145 C 30.191 145, 30.840 144.550, 30.500 144 C 30.160 143.450, 28.103 143, 25.929 143 L 21.976 143 22.633 147.250 C 22.995 149.588, 23.664 152.512, 24.120 153.750 C 25.094 156.389, 22.450 156.234, 62.672 156.008 L 90.843 155.849 96.672 160.598 C 101.509 164.540, 113.895 171.387, 114.737 170.585 C 114.868 170.461, 113.743 168.032, 112.237 165.188 L 109.500 160.017 102.750 160.008 L 96 160 96 154.527 L 96 149.054 128.250 148.777 C 145.988 148.625, 161.059 148.659, 161.743 148.854 C 162.908 149.186, 162.821 150.787, 161.340 156.250 C 160.897 157.884, 162.570 157.998, 186.683 157.962 C 209.008 157.930, 232 156.447, 233.331 154.953 C 234.160 154.024, 235.068 142.005, 234.300 142.135 C 233.860 142.210, 227.425 142.850, 220 143.559 M 31 147.531 C 31 148.339, 31.675 149, 32.500 149 C 33.325 149, 34 148.598, 34 148.107 C 34 147.616, 33.325 146.955, 32.500 146.638 C 31.586 146.288, 31 146.637, 31 147.531 M 35.639 147.694 C 34.513 148.820, 34.954 150, 36.500 150 C 37.325 150, 38 149.577, 38 149.059 C 38 147.798, 36.438 146.895, 35.639 147.694 M 35 152.500 C 33.980 153.729, 34.049 154, 35.378 154 C 36.270 154, 37 153.325, 37 152.500 C 37 151.675, 36.830 151, 36.622 151 C 36.415 151, 35.685 151.675, 35 152.500 M 98.548 152.250 C 98.129 153.213, 98.129 154.787, 98.548 155.750 C 99.273 157.417, 99.329 157.417, 99.728 155.750 C 99.958 154.787, 99.958 153.213, 99.728 152.250 C 99.329 150.583, 99.273 150.583, 98.548 152.250 M 102.768 153.432 C 102.493 154.871, 102.607 156.257, 103.020 156.513 C 104.087 157.172, 104.905 153.464, 104.012 152.019 C 103.538 151.252, 103.087 151.764, 102.768 153.432 M 106.564 152.707 C 106.022 154.132, 106.136 154.247, 107.124 153.267 C 107.808 152.588, 108.115 151.781, 107.807 151.474 C 107.499 151.166, 106.940 151.721, 106.564 152.707 M 110.079 152.583 C 110.127 153.748, 110.364 153.985, 110.683 153.188 C 110.972 152.466, 110.936 151.603, 110.604 151.271 C 110.272 150.939, 110.036 151.529, 110.079 152.583 M 112.791 153.500 C 112.140 156.678, 112.348 157.429, 113.720 156.854 C 114.184 156.659, 114.304 155.150, 113.985 153.500 L 113.405 150.500 112.791 153.500 M 116 152.559 C 116 153.416, 116.450 153.840, 117 153.500 C 117.550 153.160, 118 152.459, 118 151.941 C 118 151.423, 117.550 151, 117 151 C 116.450 151, 116 151.702, 116 152.559 M 119 151.882 C 119 152.432, 119.450 153.160, 120 153.500 C 120.550 153.840, 121 153.668, 121 153.118 C 121 152.568, 120.550 151.840, 120 151.500 C 119.450 151.160, 119 151.332, 119 151.882 M 129.600 152.601 C 128.713 154.912, 128.871 157, 129.934 157 C 130.447 157, 131.010 155.887, 131.184 154.526 C 131.436 152.550, 131.801 152.263, 133 153.102 C 134.134 153.896, 134.194 154.276, 133.244 154.662 C 131.889 155.211, 132.513 157, 134.059 157 C 134.577 157, 135 155.748, 135 154.218 C 135 152.003, 134.511 151.396, 132.600 151.238 C 131.204 151.122, 129.948 151.693, 129.600 152.601 M 136 152 C 136 152.550, 136.477 153, 137.059 153 C 137.641 153, 137.840 152.550, 137.500 152 C 137.160 151.450, 136.684 151, 136.441 151 C 136.198 151, 136 151.450, 136 152 M 139.926 151.750 C 139.885 152.162, 139.663 153.512, 139.432 154.750 C 139.201 155.988, 139.352 157, 139.767 157 C 140.182 157, 140.576 155.650, 140.644 154 C 140.711 152.350, 140.594 151, 140.383 151 C 140.172 151, 139.967 151.338, 139.926 151.750 M 144.500 152 C 144.840 152.550, 145.541 153, 146.059 153 C 146.577 153, 147 152.550, 147 152 C 147 151.450, 146.298 151, 145.441 151 C 144.584 151, 144.160 151.450, 144.500 152 M 151 152 C 151 152.550, 151.450 153, 152 153 C 152.550 153, 153 152.550, 153 152 C 153 151.450, 152.550 151, 152 151 C 151.450 151, 151 151.450, 151 152 M 154.459 153.067 C 154.096 153.653, 154.070 154.403, 154.400 154.733 C 154.730 155.063, 155 154.782, 155 154.108 C 155 153.434, 155.450 153.160, 156 153.500 C 156.550 153.840, 157 153.641, 157 153.059 C 157 151.686, 155.309 151.691, 154.459 153.067 M 149 154.941 C 149 156.073, 149.450 157, 150 157 C 150.550 157, 151 156.352, 151 155.559 C 151 154.766, 150.550 153.840, 150 153.500 C 149.450 153.160, 149 153.809, 149 154.941 M 143.638 155.500 C 143.258 156.491, 143.674 157, 144.865 157 C 145.856 157, 146.667 156.325, 146.667 155.500 C 146.667 154.675, 146.115 154, 145.440 154 C 144.766 154, 143.955 154.675, 143.638 155.500 M 116 156 C 116 156.550, 116.477 157, 117.059 157 C 117.641 157, 117.840 156.550, 117.500 156 C 117.160 155.450, 116.684 155, 116.441 155 C 116.198 155, 116 155.450, 116 156 M 119.500 156 C 119.160 156.550, 119.359 157, 119.941 157 C 120.523 157, 121 156.550, 121 156 C 121 155.450, 120.802 155, 120.559 155 C 120.316 155, 119.840 155.450, 119.500 156 M 41.356 158.705 C 40.727 158.920, 40.429 159.924, 40.693 160.935 C 41.341 163.412, 40.021 164.040, 35.656 163.332 C 32.964 162.895, 32 162.246, 32 160.869 C 32 159.647, 31.285 159, 29.934 159 C 28.269 159, 27.929 159.535, 28.184 161.750 C 28.485 164.369, 28.831 164.537, 35.448 165.267 C 39.270 165.689, 42.645 165.914, 42.948 165.767 C 44.048 165.234, 42.489 158.318, 41.356 158.705 M 46.176 158.870 C 45.379 159.375, 44.981 161.063, 45.176 163.105 C 45.428 165.743, 46.002 166.571, 47.750 166.820 C 49.802 167.111, 50 166.736, 50 162.570 C 50 157.973, 49.046 157.050, 46.176 158.870 M 222 159.119 C 217.875 159.460, 211.113 159.797, 206.974 159.869 L 199.447 160 199.829 164 C 200.209 167.984, 200.227 168, 204.488 168 C 207.927 168, 208.869 167.607, 209.290 165.999 C 209.602 164.806, 209.408 164.248, 208.811 164.617 C 208.241 164.969, 207.962 164.435, 208.165 163.380 C 208.362 162.359, 209.360 161.362, 210.382 161.165 C 211.977 160.858, 212.181 161.324, 211.816 164.447 C 211.441 167.659, 211.633 168.053, 213.446 167.794 C 214.955 167.578, 215.583 166.638, 215.813 164.250 C 215.986 162.463, 216.661 160.936, 217.313 160.858 C 223.280 160.142, 225.182 160.310, 225.676 161.597 C 225.977 162.383, 225.668 163.695, 224.989 164.513 C 223.964 165.748, 224.108 166, 225.842 166 C 228.145 166, 230.301 162.849, 229.813 160.198 C 229.539 158.712, 228.562 158.577, 222 159.119 M 112 161.050 C 112 161.627, 112.757 163.539, 113.682 165.300 L 115.364 168.500 115.977 166.002 C 116.577 163.552, 119.348 162.312, 124.500 162.189 L 126.500 162.141 124.500 163 C 123.400 163.473, 121.235 163.891, 119.690 163.930 C 117.064 163.995, 116.900 164.246, 117.190 167.750 C 117.472 171.163, 117.836 171.583, 121.242 172.424 C 123.300 172.933, 125.254 173.079, 125.583 172.750 C 125.912 172.421, 126.275 170.333, 126.390 168.110 C 126.648 163.085, 127.606 161.950, 128.442 165.678 C 128.790 167.230, 129.913 169.599, 130.936 170.942 C 132.675 173.222, 133.084 173.312, 137.149 172.299 C 144.283 170.522, 151.175 167.694, 156.750 164.256 C 159.637 162.475, 162 160.789, 162 160.509 C 162 160.229, 150.750 160, 137 160 C 120.211 160, 112 160.345, 112 161.050 M 189.958 161.922 C 191.284 164.398, 196.001 168.117, 197.019 167.488 C 197.450 167.222, 197.757 165.428, 197.703 163.502 C 197.605 160.053, 197.538 160, 193.267 160 C 189.298 160, 189.017 160.163, 189.958 161.922 M 72.415 167.137 C 71.661 168.357, 75.867 172.148, 77.438 171.664 C 79.502 171.028, 79.089 169.003, 76.945 169.247 C 75.721 169.386, 74.500 168.875, 74.231 168.111 C 73.931 167.263, 74.181 166.994, 74.870 167.420 C 75.492 167.804, 76 167.641, 76 167.059 C 76 165.644, 73.302 165.703, 72.415 167.137 M 218.750 166.662 C 219.438 166.940, 220.563 166.940, 221.250 166.662 C 221.938 166.385, 221.375 166.158, 220 166.158 C 218.625 166.158, 218.063 166.385, 218.750 166.662 M 181.306 168.644 C 180.650 168.911, 180.360 169.775, 180.663 170.565 C 180.966 171.354, 180.716 172, 180.107 172 C 179.498 172, 179 171.550, 179 171 C 179 170.450, 178.520 170, 177.933 170 C 177.321 170, 177.136 170.852, 177.498 171.994 C 177.984 173.524, 177.767 173.848, 176.565 173.387 C 175.704 173.056, 175 173.298, 175 173.924 C 175 176.582, 178.286 176.175, 181.320 173.141 C 183.048 171.414, 183.881 170, 183.172 170 C 182.462 170, 182.160 169.550, 182.500 169 C 183.165 167.924, 183.114 167.908, 181.306 168.644 M 127.192 171.075 C 127.389 171.666, 127.977 172.150, 128.500 172.150 C 129.022 172.150, 129.611 171.666, 129.808 171.075 C 130.005 170.484, 129.417 170, 128.500 170 C 127.583 170, 126.995 170.484, 127.192 171.075 M 169.683 176.594 C 167.400 177.842, 167.091 178.405, 168.056 179.567 C 169.491 181.297, 167.897 181.497, 166.200 179.800 C 164.876 178.476, 164.682 179.007, 165.607 181.418 C 165.941 182.288, 166.634 183, 167.147 183 C 168.749 183, 173.948 178.726, 173.409 177.852 C 173.127 177.396, 173.656 177.314, 174.585 177.671 C 175.762 178.122, 176.131 177.892, 175.804 176.909 C 175.140 174.916, 172.958 174.804, 169.683 176.594 M 84.624 176.800 C 84.352 177.240, 84.960 178.119, 85.976 178.753 C 87.421 179.656, 87.936 179.608, 88.348 178.536 C 88.637 177.782, 88.190 176.903, 87.355 176.583 C 85.394 175.830, 85.214 175.845, 84.624 176.800 M 92.531 181.950 C 91.807 183.122, 94.704 185.301, 95.956 184.527 C 97.703 183.448, 97.123 181.435, 95.020 181.276 C 93.931 181.194, 92.810 181.498, 92.531 181.950 M 161.688 181.646 C 160.569 182.765, 160.904 184.177, 162.112 183.431 C 162.723 183.053, 163.647 183.364, 164.166 184.122 C 164.889 185.180, 165.037 185.054, 164.804 183.583 C 164.480 181.539, 162.824 180.510, 161.688 181.646 M 103.736 185.597 C 102.551 186.782, 104.024 188, 106.642 188 C 108.215 188, 109.011 187.529, 108.755 186.750 C 108.294 185.350, 104.788 184.545, 103.736 185.597 M 134.215 186.879 C 134.568 188.710, 138.133 189.102, 138.708 187.375 C 138.915 186.756, 137.918 186.026, 136.493 185.754 C 134.493 185.372, 133.974 185.628, 134.215 186.879 M 232 186.629 C 230.075 187.481, 225.193 188.363, 221.151 188.587 C 217.057 188.814, 211.962 189.808, 209.651 190.830 C 204.308 193.194, 199.395 198.822, 197.952 204.233 C 196.705 208.909, 196.747 208.825, 192.649 214.990 C 188.252 221.607, 187.488 224.569, 189.419 227.517 C 191.370 230.494, 193.978 230.648, 199.434 228.107 C 204.037 225.963, 210.416 224.331, 208.052 225.901 C 205.547 227.565, 211.715 228.409, 217.173 227.150 C 223.354 225.723, 228.239 222.429, 232.238 216.991 C 234.835 213.460, 235.406 211.683, 235.633 206.441 C 235.845 201.537, 236.608 198.892, 239.071 194.528 C 242.121 189.124, 242.172 188.847, 240.463 186.959 C 238.351 184.625, 236.671 184.559, 232 186.629 M 116.218 187.154 C 116.440 187.820, 118.904 188.348, 122.051 188.404 L 127.500 188.500 127.769 210.750 C 127.935 224.444, 128.415 233, 129.019 233 C 129.630 233, 130 224.751, 130 211.107 C 130 192.569, 130.230 189.126, 131.500 188.638 C 132.325 188.322, 133 187.599, 133 187.031 C 133 186.403, 129.646 186, 124.417 186 C 118.377 186, 115.947 186.342, 116.218 187.154 M 231 189.264 C 227.405 190.887, 227.403 190.893, 229.856 192.612 C 231.606 193.837, 231.984 194.862, 231.597 197.322 C 231.324 199.051, 230.625 200.625, 230.044 200.819 C 229.463 201.012, 229.242 201.582, 229.553 202.085 C 229.864 202.588, 229.657 203, 229.094 203 C 228.531 203, 227.589 203.900, 227 205 C 226.411 206.100, 226.102 207, 226.312 207 C 228.318 207, 239 192.137, 239 189.345 C 239 187.711, 234.540 187.666, 231 189.264 M 212.791 191.988 C 206.698 193.825, 201.066 199.855, 199.470 206.250 L 198.783 209 205.142 208.996 C 212.389 208.992, 216.246 207.171, 220.306 201.835 C 224.005 196.975, 224.676 193.432, 222.154 192.082 C 219.839 190.843, 216.694 190.812, 212.791 191.988 M 225 196.383 C 225 196.594, 225.901 197.002, 227.001 197.290 C 228.102 197.578, 228.751 197.405, 228.442 196.907 C 227.904 196.036, 225 195.594, 225 196.383 M 224.500 199 C 224.840 199.550, 224.694 200, 224.176 200 C 223.657 200, 222.979 201.012, 222.668 202.250 L 222.104 204.500 224.052 202.139 C 226.218 199.515, 226.543 198, 224.941 198 C 224.359 198, 224.160 198.450, 224.500 199 M 219.833 204.851 C 219.650 205.318, 217.596 206.893, 215.270 208.351 C 212.132 210.316, 209.725 211, 205.948 211 C 199.105 211, 196.218 213.949, 199.096 218 C 199.908 219.143, 200.016 218.786, 199.551 216.500 C 199.214 214.850, 199.291 214.021, 199.722 214.658 C 200.152 215.295, 202.186 215.768, 204.241 215.710 C 206.703 215.640, 207.555 215.301, 206.739 214.715 C 205.924 214.131, 206.270 213.995, 207.751 214.320 C 209.200 214.637, 209.765 214.429, 209.337 213.737 C 208.917 213.057, 209.281 212.894, 210.324 213.294 C 211.233 213.643, 211.928 213.607, 211.870 213.214 C 211.578 211.260, 212.135 210.662, 213 212 C 213.838 213.297, 213.971 213.274, 213.985 211.832 C 213.993 210.914, 215.575 209.190, 217.500 208 C 219.425 206.810, 221 205.424, 221 204.918 C 221 203.764, 220.276 203.722, 219.833 204.851 M 231.882 205.750 C 231.816 206.162, 231.816 206.838, 231.882 207.250 C 231.947 207.662, 231.325 208, 230.500 208 C 229.675 208, 229 208.380, 229 208.844 C 229 209.885, 220.893 218, 219.853 218 C 219.439 218, 216.940 219.463, 214.300 221.250 L 209.500 224.500 213.382 224.818 C 215.517 224.993, 217.744 224.656, 218.332 224.068 C 218.919 223.481, 220.055 223, 220.856 223 C 222.805 223, 228.647 218.468, 230.662 215.393 C 232.545 212.520, 234.139 205, 232.866 205 C 232.390 205, 231.947 205.338, 231.882 205.750 M 221.001 212.148 C 215.955 216.708, 210.102 220, 207.040 220 C 205.918 220, 205 220.480, 205 221.067 C 205 221.680, 204.147 221.864, 203 221.500 C 201.147 220.912, 200.277 221.944, 201.551 223.218 C 203.379 225.046, 218.255 216.650, 223.924 210.591 C 227.482 206.788, 226.141 207.503, 221.001 212.148 M 216.872 212.750 C 215.629 214.336, 215.664 214.371, 217.250 213.128 C 218.916 211.821, 219.445 211, 218.622 211 C 218.415 211, 217.627 211.787, 216.872 212.750 M 193.176 218.426 C 189.224 225.125, 191.649 228.605, 198.464 226.014 C 201.130 225, 201.188 224.858, 199.452 223.588 C 198.437 222.847, 197.123 220.513, 196.531 218.402 L 195.454 214.565 193.176 218.426" stroke="none" fill="#212121" fill-rule="evenodd" fill-opacity="1"/>
</svg>