<svg xmlns="http://www.w3.org/2000/svg" width="1024" height="1024" viewBox="0 0 256 256" version="1.1" class="injected-svg" data-src="https://storage.googleapis.com/illustroke-c1d67.appspot.com/sKvoQfSqEHPmlLobzx5EfRxGct22/czbddrsi2ajrzpa9v09sqa-0.svg" xmlns:xlink="http://www.w3.org/1999/xlink"><rect width="1024" height="1024" fill="white"/>
	<path d="M 119.487 39.250 C 119.239 39.938, 118.833 42.525, 118.584 45 C 118.335 47.475, 117.247 53.100, 116.167 57.500 C 115.086 61.900, 112.576 74.725, 110.588 86 C 106.494 109.217, 104.854 116.048, 102.516 119.616 C 98.899 125.137, 95.412 123.250, 91.783 113.810 C 89.493 107.852, 87.442 104.906, 84.398 103.203 C 82.901 102.365, 82.916 102.058, 84.577 99.523 C 86.335 96.839, 86.332 96.716, 84.464 95.350 C 81.279 93.021, 79.618 94.071, 79.478 98.504 C 79.408 100.702, 78.187 105.013, 76.765 108.084 C 75.343 111.155, 72.739 119.030, 70.980 125.584 C 65.434 146.238, 62.459 152.160, 55.931 155.536 C 51.995 157.571, 50.473 157.382, 47.591 154.500 C 46.216 153.125, 44.347 152, 43.437 152 C 41.920 152, 41.813 148.616, 42.142 111 C 42.339 88.450, 42.232 70, 41.904 70 C 40.710 70, 39.963 100.897, 39.981 149.563 C 39.990 176.936, 40.111 199.369, 40.249 199.416 C 40.387 199.462, 85.500 199.271, 140.500 198.990 C 195.500 198.710, 237.384 198.373, 233.576 198.240 L 226.651 198 228.826 195.686 C 232.010 192.296, 231.500 191.893, 227.087 194.310 C 223.331 196.367, 223.032 196.386, 219.658 194.777 C 215.630 192.856, 212.330 187.771, 208.487 177.562 C 205.293 169.077, 202.624 165.195, 199.434 164.394 C 198.095 164.058, 197 163.355, 197 162.833 C 197 162.310, 197.399 162.128, 197.886 162.430 C 199.234 163.263, 200.031 158.926, 198.913 156.838 C 197.528 154.249, 195.160 154.555, 193.820 157.496 C 192.873 159.573, 193.003 160.352, 194.591 162.142 C 195.984 163.711, 196.157 164.412, 195.232 164.735 C 194.535 164.979, 193.276 165.867, 192.435 166.708 C 191.593 167.550, 190.707 168.040, 190.465 167.799 C 190.224 167.557, 188.902 162.927, 187.527 157.509 C 185.006 147.569, 180.746 137.486, 177.232 133.138 C 175.756 131.312, 174.115 130.692, 169.996 130.403 C 167.006 130.194, 164.085 130.515, 163.338 131.135 C 162.606 131.742, 160.624 134.960, 158.935 138.284 C 157.245 141.609, 154.431 146.524, 152.682 149.206 L 149.500 154.084 147.341 151.390 C 143.189 146.208, 139.860 131.992, 134.489 96.500 C 127.409 49.707, 126.986 48, 122.474 48 C 121.113 48, 120 47.550, 120 47 C 120 46.084, 121.406 45.595, 123.232 45.876 C 124.278 46.036, 125.325 41.290, 124.639 39.502 C 123.585 36.755, 122.339 37.951, 122.823 41.247 C 123.260 44.223, 123.156 44.375, 121.580 43.067 C 120.635 42.282, 120.075 40.821, 120.337 39.820 C 120.871 37.776, 120.184 37.315, 119.487 39.250 M 120.075 52.861 C 119.527 53.884, 118.130 60.296, 116.970 67.111 C 113.203 89.236, 109.983 106.276, 108.401 112.453 C 106.071 121.554, 102.781 125.905, 98.183 125.968 C 96.247 125.995, 95.978 126.371, 96.551 128.250 C 97.432 131.140, 99.945 134, 101.604 134 C 103.649 134, 107.399 128.139, 110.421 120.222 C 113.469 112.235, 115.145 110, 118.086 110 C 120.587 110, 123.209 114.349, 126.970 124.738 C 129.999 133.100, 137.100 149.260, 137.531 148.769 C 137.661 148.621, 136.960 144, 135.974 138.500 C 134.988 133, 132.999 118.600, 131.554 106.500 C 125.456 55.435, 124.685 51, 121.913 51 C 121.449 51, 120.622 51.837, 120.075 52.861 M 80.500 97 C 80.840 97.550, 81.766 98, 82.559 98 C 83.352 98, 84 97.550, 84 97 C 84 96.450, 83.073 96, 81.941 96 C 80.809 96, 80.160 96.450, 80.500 97 M 80.012 102.977 C 79.149 104.591, 79.234 104.847, 80.477 104.371 C 81.315 104.049, 82 103.159, 82 102.393 C 82 100.440, 81.253 100.659, 80.012 102.977 M 80.184 108.278 C 78.781 109.969, 76 116.506, 76 118.114 C 76 118.762, 77.104 118.101, 78.452 116.646 C 81.431 113.432, 83.631 113.305, 86.682 116.171 C 90.038 119.323, 90.463 117.893, 87.816 112.351 C 85.393 107.276, 82.359 105.657, 80.184 108.278 M 115.009 117.250 C 113.894 119.773, 111.872 130.439, 110.031 143.500 C 108.326 155.600, 106.047 171.724, 104.966 179.330 C 103.885 186.937, 103 194.024, 103 195.080 C 103 196.893, 103.890 197, 119.035 197 C 133.985 197, 135.009 196.882, 134.165 195.250 C 133.195 193.373, 130.470 181.065, 129.572 174.500 C 129.271 172.300, 128.158 164.875, 127.098 158 C 126.039 151.125, 124.407 139.875, 123.472 133 C 121.783 120.576, 119.648 113, 117.835 113 C 117.314 113, 116.042 114.912, 115.009 117.250 M 80.024 117.472 C 78.058 119.840, 75.937 131.299, 71.479 163.645 C 70.063 173.920, 66.492 192.554, 65.388 195.431 C 64.856 196.818, 66.724 197, 81.472 197 L 98.159 197 97.612 194.250 C 96.519 188.751, 94.104 172.353, 93.525 166.500 C 93.199 163.200, 92.293 156, 91.513 150.500 C 90.732 145, 89.564 136.450, 88.916 131.500 C 88.268 126.550, 87.319 121.384, 86.807 120.020 C 85.285 115.971, 82.224 114.820, 80.024 117.472 M 73.248 128.648 C 69.437 143.390, 66.929 149.080, 61.980 154.214 C 59.258 157.039, 56.156 159.219, 54.342 159.582 L 51.288 160.192 54.262 171.346 C 55.898 177.481, 58.612 185.200, 60.294 188.500 L 63.351 194.500 64.651 190.116 C 65.366 187.704, 67.566 175.329, 69.541 162.616 C 71.515 149.902, 73.787 135.273, 74.588 130.106 C 75.390 124.939, 75.912 120.579, 75.749 120.416 C 75.586 120.253, 74.460 123.957, 73.248 128.648 M 90.510 128 C 90.859 131.025, 91.987 139.800, 93.017 147.500 C 94.047 155.200, 95.160 163.975, 95.491 167 C 97.516 185.504, 100.864 201.326, 100.993 193 C 101.023 191.075, 101.482 187.700, 102.012 185.500 C 102.543 183.300, 103.861 174.525, 104.942 166 C 106.022 157.475, 107.583 146.018, 108.411 140.541 C 109.238 135.063, 109.785 130.451, 109.626 130.292 C 109.467 130.133, 108.714 131.166, 107.954 132.587 C 107.193 134.008, 105.399 135.777, 103.966 136.518 C 100.038 138.549, 97.052 136.569, 94.513 130.252 C 91.257 122.150, 89.738 121.295, 90.510 128 M 125.561 133.250 C 132.087 180.663, 135.088 196, 137.840 196 C 138.962 196, 141.750 189.851, 142.541 185.631 C 143.577 180.113, 140.193 156.926, 137.999 154.500 C 135.286 151.501, 129.444 140.202, 127.529 134.250 C 126.600 131.363, 125.645 129, 125.408 129 C 125.171 129, 125.240 130.912, 125.561 133.250 M 172.395 139.250 C 172.766 142.137, 173.503 148.550, 174.033 153.500 C 175.232 164.698, 179.014 188.821, 179.988 191.478 C 180.651 193.287, 180.843 193.202, 182.234 190.478 C 183.071 188.840, 184.796 184.249, 186.067 180.275 C 188.368 173.080, 188.370 173.018, 186.614 165.275 C 183.232 150.364, 179.023 139.166, 175.461 135.604 C 172.528 132.671, 171.680 133.679, 172.395 139.250 M 163.400 138.400 C 161.530 140.270, 160 142.633, 160 143.651 C 160 151.838, 154.316 191.566, 152.474 196.250 C 151.839 197.865, 152.844 198, 165.510 198 L 179.233 198 178.603 195.750 C 177.506 191.830, 173.184 162.956, 171.905 151 C 170.043 133.601, 169.300 132.500, 163.400 138.400 M 141.534 150 C 142.224 153.623, 144.486 156.847, 145.574 155.759 C 145.916 155.418, 144.997 153.194, 143.532 150.819 L 140.868 146.500 141.534 150 M 154.620 151.568 C 151.327 156.774, 148.496 159, 145.169 159 C 143.203 159, 142.877 159.396, 143.317 161.250 C 143.611 162.488, 144.150 166.200, 144.515 169.500 C 145.383 177.353, 148.928 192.838, 150.012 193.508 C 151.412 194.373, 151.962 192.609, 153.499 182.320 C 155.209 170.875, 157.970 147.637, 157.657 147.323 C 157.538 147.205, 156.172 149.115, 154.620 151.568 M 195.250 158.481 C 195.250 159.952, 195.822 161, 196.625 161 C 197.381 161, 198 160.380, 198 159.622 C 198 158.865, 197.381 157.731, 196.625 157.104 C 195.520 156.187, 195.250 156.458, 195.250 158.481 M 42 177 L 42 197 51.583 197 C 56.854 197, 61.017 196.662, 60.833 196.250 C 60.650 195.838, 59.078 192.575, 57.341 189 C 55.603 185.425, 52.965 177.775, 51.479 172 C 48.439 160.189, 46.844 157, 43.977 157 C 42.074 157, 42 157.744, 42 177 M 194.762 167.073 C 190.185 169.740, 190.793 176.737, 196.596 188.189 C 199.833 194.578, 203.155 196.757, 207.283 195.199 C 209.652 194.305, 210.091 194.309, 209.182 195.218 C 206.997 197.403, 207.970 198, 213.723 198 L 219.446 198 216.315 195.140 C 212.808 191.937, 209.950 186.775, 206.310 177.067 C 202.655 167.318, 199.310 164.424, 194.762 167.073 M 189.015 179.833 C 189.007 180.567, 187.650 184.538, 186 188.659 C 184.350 192.780, 183 196.567, 183 197.076 C 183 197.584, 186.822 198, 191.493 198 L 199.987 198 196.521 193.460 C 194.615 190.962, 192.593 187.250, 192.028 185.210 C 190.839 180.918, 189.040 177.706, 189.015 179.833 M 144.456 189.052 C 142.420 192.305, 140.055 197.388, 140.411 197.744 C 140.620 197.954, 142.568 197.985, 144.739 197.813 L 148.686 197.500 147.024 192.552 C 145.784 188.861, 145.132 187.972, 144.456 189.052 M 38.965 206.066 C 38.109 207.664, 38.086 208.892, 38.876 210.626 C 40.294 213.740, 42.748 213.647, 44.217 210.422 C 46.341 205.761, 41.345 201.618, 38.965 206.066 M 215.441 205.468 C 214.374 206.276, 214.014 206.951, 214.642 206.968 C 215.269 206.986, 216.066 208.125, 216.411 209.500 C 217.349 213.238, 218.470 212.509, 218.727 207.995 C 218.974 203.656, 218.410 203.222, 215.441 205.468 M 34.250 205.662 C 32.518 206.361, 32.681 207.667, 34.500 207.667 C 35.325 207.667, 36 207.067, 36 206.333 C 36 205.600, 35.888 205.036, 35.750 205.079 C 35.612 205.122, 34.938 205.385, 34.250 205.662 M 40.166 208.139 C 40.350 209.437, 40.950 210.387, 41.500 210.250 C 42.976 209.881, 42.716 206.739, 41.166 206.222 C 40.251 205.917, 39.937 206.520, 40.166 208.139" stroke="none" fill="#212121" fill-rule="evenodd" fill-opacity="1"/>
</svg>