<svg xmlns="http://www.w3.org/2000/svg" width="1024" height="1024" viewBox="0 0 256 256" version="1.1" class="injected-svg" data-src="https://storage.googleapis.com/illustroke-c1d67.appspot.com/sKvoQfSqEHPmlLobzx5EfRxGct22/kpy8iup34laclc09cqqzbq-2.svg" xmlns:xlink="http://www.w3.org/1999/xlink"><rect width="1024" height="1024" fill="white"/>
	<path d="M 121.077 29.077 C 117.001 33.153, 116.941 37.157, 120.912 40.093 C 122.809 41.496, 124.204 43.752, 124.912 46.566 C 126.344 52.253, 126.432 52, 123.020 52 C 121.381 52, 116.429 52.728, 112.014 53.617 C 106.397 54.749, 103.612 54.922, 102.735 54.195 C 101.611 53.263, 95.494 53.454, 92.256 54.522 C 91.571 54.748, 90.173 56.311, 89.148 57.996 C 88.124 59.681, 84.351 63.184, 80.764 65.780 C 77.177 68.376, 72.609 71.794, 70.613 73.375 C 68.597 74.972, 65.765 76.246, 64.242 76.241 C 56.254 76.213, 49.565 85.583, 52.996 91.993 C 53.785 93.466, 53.306 94.756, 50.702 98.177 C 48.892 100.555, 45.986 103.400, 44.244 104.500 C 41.563 106.193, 41.072 107.113, 41.045 110.500 C 41.027 112.700, 41.669 115.759, 42.471 117.297 C 44.520 121.224, 43.444 135.538, 40.849 138.885 C 37.917 142.666, 38.466 146.355, 42.407 149.362 C 45.485 151.709, 45.765 152.334, 45.298 155.818 C 44.979 158.196, 45.345 160.791, 46.253 162.587 C 47.063 164.189, 47.502 166.131, 47.229 166.903 C 46.838 168.004, 47.513 168.178, 50.372 167.714 C 53.639 167.184, 54.165 167.418, 55.497 169.993 C 56.509 171.952, 56.785 174.288, 56.365 177.352 C 55.826 181.284, 56.070 182.161, 58.330 184.420 C 60.325 186.416, 61.911 187, 65.337 187 C 68.965 187, 70.618 187.685, 74.495 190.796 C 77.124 192.905, 80.175 196.570, 81.363 199.046 C 84.087 204.723, 88.013 206.877, 91.487 204.600 C 93.690 203.157, 94.351 203.222, 100.328 205.472 C 103.881 206.809, 109.086 208.208, 111.894 208.580 C 114.702 208.953, 117 209.741, 117 210.331 C 117 210.922, 115.562 212.889, 113.804 214.702 C 112.046 216.516, 110.993 218, 111.463 218 C 111.933 218, 114.159 216.014, 116.409 213.587 C 120.265 209.427, 120.848 209.155, 126.567 208.844 C 132.557 208.518, 132.678 208.565, 136.067 212.507 C 139.958 217.032, 142.098 218.922, 143.387 218.968 C 143.875 218.986, 142.093 216.669, 139.428 213.820 C 136.763 210.970, 135.014 208.518, 135.541 208.369 C 140.378 207.006, 161.411 203.805, 164.714 203.930 C 170.204 204.136, 173.964 202.102, 177.486 197.020 C 179.056 194.755, 182.401 191.181, 184.920 189.079 C 188.794 185.847, 190.040 185.333, 193 185.745 C 195.870 186.145, 196.275 185.996, 195.250 184.916 C 193.367 182.934, 193.747 181, 196.019 181 C 197.721 181, 197.931 180.568, 197.353 178.250 C 196.747 175.815, 196.851 175.651, 198.266 176.816 C 199.680 177.981, 199.704 178.586, 198.477 182.066 C 196.730 187.016, 197.586 187.234, 199.624 182.358 C 200.461 180.355, 200.884 177.675, 200.565 176.403 C 199.736 173.100, 203.471 166.462, 206.976 165.010 C 209.996 163.759, 211.446 161.531, 210.371 159.792 C 209.159 157.831, 208.184 151.996, 209.171 152.605 C 209.756 152.967, 209.871 151.827, 209.466 149.672 C 208.932 146.823, 209.207 145.803, 210.903 144.351 C 212.247 143.200, 213 141.369, 213 139.249 C 213 134.669, 207.729 124.667, 203.563 121.343 C 200.950 119.258, 200.365 118.265, 201.174 117.291 C 203.803 114.122, 209 117.690, 209 122.663 C 209 123.884, 209.512 125.199, 210.138 125.586 C 211.856 126.647, 210.216 119.122, 208.057 116.034 C 206.361 113.607, 206.362 113.376, 208.081 110.581 C 209.684 107.976, 209.723 107.365, 208.444 104.892 C 206.605 101.335, 203.380 99.088, 201.006 99.709 C 198.170 100.450, 194.384 92.648, 195.931 89.251 C 197.098 86.691, 196.427 80.382, 194.887 79.430 C 193.672 78.679, 193.768 81.699, 195.035 84.066 C 195.750 85.401, 195.747 86.603, 195.027 87.949 C 194.080 89.719, 193.733 89.770, 191.242 88.500 C 189.734 87.731, 187.713 86.868, 186.750 86.582 C 184.586 85.940, 184.422 81.724, 186.495 80.004 C 187.317 79.322, 188.892 79, 189.996 79.289 C 191.159 79.593, 191.749 79.404, 191.400 78.839 C 191.069 78.303, 189.305 77.993, 187.479 78.150 C 184.603 78.398, 183.450 77.701, 178.830 72.921 C 175.899 69.888, 170.455 65.415, 166.734 62.980 C 160.551 58.936, 159.986 58.280, 160.182 55.369 C 160.491 50.778, 158.389 48.675, 154.172 49.359 C 152.291 49.665, 149.991 50.603, 149.061 51.444 C 147.726 52.653, 146.127 52.819, 141.455 52.235 L 135.539 51.497 135.852 46.998 C 136.040 44.306, 136.935 41.671, 138.083 40.436 C 141.695 36.546, 140.187 30.182, 135.020 27.510 C 130.033 24.932, 124.613 25.541, 121.077 29.077 M 123.161 31.523 C 120.415 35.013, 120.445 35.418, 123.635 37.927 C 126.565 40.232, 132.875 40.725, 134.800 38.800 C 136.423 37.177, 136.311 36, 134.535 36 C 133.730 36, 132.568 35.061, 131.954 33.914 C 130.580 31.348, 131.257 30.399, 132.980 32.476 C 133.676 33.314, 134.827 34, 135.539 34 C 136.251 34, 137.034 34.563, 137.280 35.250 C 137.525 35.938, 138.036 36.214, 138.414 35.865 C 138.793 35.516, 138.052 34.010, 136.768 32.517 C 135.066 30.538, 133.200 29.664, 129.878 29.290 C 125.798 28.830, 125.095 29.063, 123.161 31.523 M 126.527 46.992 C 127.425 51.781, 127.737 52.100, 130.811 51.363 C 132.290 51.009, 133.572 50.669, 133.661 50.609 C 133.749 50.549, 134.131 48.845, 134.508 46.823 L 135.195 43.145 130.533 43.323 L 125.871 43.500 126.527 46.992 M 151.986 51.711 L 148.500 53.241 152.882 55.216 C 156.464 56.830, 157.420 56.945, 158.117 55.845 C 160.649 51.850, 157.110 49.464, 151.986 51.711 M 122 54.673 C 120.625 54.885, 116.445 55.774, 112.710 56.647 C 106.462 58.108, 105.766 58.539, 103.974 62.051 C 100.650 68.566, 95.781 70.636, 91.248 67.461 C 89.261 66.069, 88.738 66.082, 85.775 67.598 C 83.974 68.519, 79.721 71.474, 76.325 74.163 L 70.150 79.053 70.692 84.776 C 70.991 87.924, 71.895 91.555, 72.702 92.844 C 75.888 97.934, 86.741 100.529, 107.496 101.164 L 118.491 101.500 119.091 97.040 C 119.600 93.248, 119.259 91.901, 116.809 88.040 C 113.790 83.282, 109.965 72.310, 110.049 68.645 C 110.076 67.465, 111.331 70.100, 112.839 74.500 C 114.347 78.900, 116.740 84.205, 118.158 86.288 L 120.736 90.076 124.525 80.501 C 128.387 70.743, 128.925 66.204, 127.183 58.075 C 126.397 54.409, 125.885 54.073, 122 54.673 M 128.375 57.125 C 128.719 58.844, 129 61.094, 129 62.125 C 129 65.371, 130.747 64.160, 131.447 60.429 C 131.816 58.465, 132.364 56.215, 132.666 55.429 C 133.058 54.405, 132.439 54, 130.482 54 C 127.955 54, 127.797 54.235, 128.375 57.125 M 133.975 58.250 C 133.368 60.587, 132.466 64.039, 131.970 65.920 C 131.408 68.047, 131.451 71.070, 132.083 73.920 C 133.677 81.109, 137.164 90.017, 138.146 89.410 C 139.381 88.647, 143.923 79.530, 146.072 73.500 C 147.052 70.750, 147.887 69.217, 147.927 70.093 C 148.041 72.586, 144.331 82.666, 141.112 88.609 C 138.791 92.895, 138.301 94.824, 138.727 98.002 C 139.022 100.201, 139.743 102, 140.329 102 C 140.915 102, 147.268 100.030, 154.447 97.623 C 161.626 95.215, 168.850 92.929, 170.500 92.542 C 172.150 92.155, 175.637 90.919, 178.250 89.796 C 182.820 87.831, 183 87.597, 182.999 83.627 C 182.998 80.057, 182.349 78.825, 178.191 74.500 C 175.547 71.750, 170.085 67.292, 166.053 64.593 C 160.051 60.576, 158.429 59.897, 157.111 60.849 C 154.117 63.011, 152.774 63.307, 150.133 62.384 C 148.164 61.696, 147.423 60.675, 147.194 58.334 C 146.858 54.888, 145.202 54.037, 138.789 54.014 C 135.258 54.001, 135.023 54.207, 133.975 58.250 M 95.750 56.662 C 96.438 56.940, 97.563 56.940, 98.250 56.662 C 98.938 56.385, 98.375 56.158, 97 56.158 C 95.625 56.158, 95.063 56.385, 95.750 56.662 M 148 57.378 C 148 59.647, 150.775 61.273, 153.487 60.593 C 156.888 59.739, 156.648 58.422, 152.851 57.098 C 148.754 55.670, 148 55.713, 148 57.378 M 97.930 63.204 C 97.067 64.375, 95.589 65.333, 94.647 65.333 C 93.431 65.333, 93.244 65.644, 94.002 66.402 C 95.396 67.796, 100.354 65.114, 100.816 62.716 C 101.267 60.378, 99.835 60.620, 97.930 63.204 M 126.170 83.606 L 122.909 93.192 125.506 96.596 C 126.933 98.468, 128.475 100, 128.932 100 C 129.389 100, 130.983 98.399, 132.476 96.443 L 135.188 92.886 132.990 84.693 C 131.780 80.187, 130.485 75.942, 130.111 75.260 C 129.732 74.568, 127.989 78.259, 126.170 83.606 M 58.013 80.750 C 56.242 82.364, 54.736 84.946, 54.367 87 L 53.739 90.500 58.824 85 C 61.621 81.975, 63.930 79.162, 63.955 78.750 C 64.055 77.085, 60.853 78.163, 58.013 80.750 M 64.250 87.216 C 60.505 91.826, 60.236 93, 62.929 93 C 65.375 93, 67.816 90.582, 68.625 87.357 C 69.695 83.094, 67.652 83.028, 64.250 87.216 M 181.500 89.577 C 180.400 90.410, 176.350 92.027, 172.500 93.171 C 161.921 96.315, 142.365 102.921, 143.500 102.968 C 153.251 103.363, 183.263 110.637, 194.335 115.288 L 199.170 117.319 201.501 114.410 C 203.533 111.874, 203.651 111.297, 202.416 109.921 C 200.033 107.265, 200.844 106.505, 203.449 108.952 L 205.898 111.253 206.576 108.553 C 206.949 107.068, 206.771 104.792, 206.180 103.495 C 205.220 101.388, 204.835 101.264, 202.553 102.319 C 201.148 102.969, 200.181 103.987, 200.404 104.583 C 200.627 105.179, 200.176 105.667, 199.401 105.667 C 198.509 105.667, 198.058 104.721, 198.170 103.083 C 198.267 101.662, 197.360 98.588, 196.153 96.250 C 194.518 93.082, 193.362 92, 191.615 92 C 190.325 92, 188.126 91.100, 186.727 90 C 183.730 87.643, 184.025 87.666, 181.500 89.577 M 188.441 89.532 C 190.645 91.199, 192 91.418, 192 90.107 C 192 89.145, 189.568 87.980, 187.668 88.032 C 187.026 88.049, 187.374 88.724, 188.441 89.532 M 65.500 94.076 C 63.845 95.141, 61.075 95.915, 59.322 95.804 C 57.024 95.657, 55.565 96.279, 54.055 98.050 C 50.967 101.672, 49.887 103.812, 50.849 104.407 C 51.319 104.697, 51.485 108.350, 51.217 112.525 L 50.730 120.115 55.328 117.011 C 65.577 110.095, 83.584 104.125, 94.940 103.880 C 100.486 103.760, 100.490 103.758, 96.500 102.961 C 94.300 102.522, 89.575 101.643, 86 101.008 C 79.185 99.797, 71.645 96.122, 70.649 93.527 C 69.912 91.607, 69.224 91.680, 65.500 94.076 M 122 99.500 C 122 101.512, 122.497 102, 124.547 102 C 127.073 102, 127.079 101.980, 125.297 99.531 C 122.996 96.371, 122 96.361, 122 99.500 M 133.580 100.190 C 131.817 102.707, 132.027 103.311, 134.357 102.417 C 135.261 102.070, 136 100.934, 136 99.893 C 136 97.439, 135.460 97.505, 133.580 100.190 M 96.500 106.072 C 82.429 107.479, 63.242 114.234, 55.317 120.570 L 52.500 122.823 54.837 125.319 C 56.123 126.691, 59.148 128.862, 61.561 130.142 L 65.947 132.468 70.223 128.339 C 78.509 120.338, 90.672 115.039, 107.500 112.100 C 116.120 110.595, 117.542 110.072, 117.802 108.307 C 118.305 104.907, 113.354 104.387, 96.500 106.072 M 132.015 107.028 C 133.173 109.191, 135 108.832, 135 106.441 C 135 105.648, 134.084 105, 132.965 105 C 131.230 105, 131.090 105.299, 132.015 107.028 M 140 107.303 C 140 109.281, 141.023 109.935, 147.250 111.937 C 156.876 115.033, 170.233 120.868, 177.679 125.233 L 183.711 128.768 190.539 123.755 C 196.578 119.320, 197.171 118.598, 195.676 117.505 C 191.016 114.097, 152.970 105, 143.379 105 C 140.518 105, 140 105.353, 140 107.303 M 121 107 C 121 107.550, 121.423 108, 121.941 108 C 122.459 108, 123.160 107.550, 123.500 107 C 123.840 106.450, 123.416 106, 122.559 106 C 121.702 106, 121 106.450, 121 107 M 136 107.500 C 136 108.325, 136.436 109, 136.969 109 C 137.501 109, 137.678 108.325, 137.362 107.500 C 137.045 106.675, 136.609 106, 136.393 106 C 136.177 106, 136 106.675, 136 107.500 M 47.750 107.574 C 46.599 108.740, 46.860 117.796, 48.067 118.541 C 49.945 119.702, 50.261 118.226, 49.370 112.453 C 48.892 109.352, 48.163 107.156, 47.750 107.574 M 126.500 108 C 126.160 108.550, 126.835 109, 128 109 C 129.165 109, 129.840 108.550, 129.500 108 C 129.160 107.450, 128.485 107, 128 107 C 127.515 107, 126.840 107.450, 126.500 108 M 43.607 110.582 C 42.801 112.681, 42.838 113, 43.883 113 C 44.369 113, 45.002 112.100, 45.290 111 C 45.907 108.638, 44.488 108.286, 43.607 110.582 M 123.299 112.893 C 122.660 113.916, 121.831 116.384, 121.457 118.377 C 120.913 121.277, 121.087 122, 122.330 122 C 123.183 122, 124.160 121.550, 124.500 121 C 125.560 119.285, 131.609 119.904, 134.273 122 C 137.483 124.525, 138 124.507, 138 121.868 C 138 119.798, 134.471 113.099, 132.756 111.912 C 132.289 111.589, 130.231 111.259, 128.184 111.178 C 125.528 111.074, 124.128 111.566, 123.299 112.893 M 138 112.550 C 138 112.852, 138.711 114.475, 139.581 116.156 C 140.947 118.799, 141.008 120.517, 140.028 128.856 C 139.405 134.160, 138.643 139.963, 138.334 141.750 L 137.773 145 142.821 145 C 150.460 145, 161.276 142.394, 168.252 138.873 C 175.143 135.395, 181 131.256, 181 129.864 C 181 128.060, 153.878 115.938, 143.500 113.104 C 138.965 111.865, 138 111.768, 138 112.550 M 106.101 114.083 C 92.907 116.673, 79.063 122.776, 71.451 129.356 C 67.639 132.651, 67.612 132.722, 69.765 133.874 C 75.538 136.964, 116.997 145.337, 118.597 143.736 C 118.986 143.347, 118.703 136.273, 117.968 128.015 L 116.632 113 113.566 113.110 C 111.880 113.170, 108.520 113.608, 106.101 114.083 M 192.188 124.598 C 188.784 127.127, 186 129.510, 186 129.893 C 186 130.276, 188.246 132.302, 190.992 134.396 C 194.913 137.386, 200.908 143.735, 204.730 148.944 C 204.909 149.189, 206.022 148.422, 207.203 147.241 C 209.207 145.238, 209.260 144.818, 207.996 140.988 C 206.902 137.673, 206.878 136.225, 207.873 133.474 C 208.733 131.095, 208.799 129.493, 208.091 128.170 C 206.948 126.034, 200.346 120, 199.153 120 C 198.725 120, 195.591 122.069, 192.188 124.598 M 46.079 122.668 C 46.036 123.311, 45.741 124.661, 45.424 125.668 C 44.877 127.409, 44.906 127.412, 45.995 125.712 C 46.626 124.729, 46.920 123.379, 46.650 122.712 C 46.295 121.837, 46.136 121.825, 46.079 122.668 M 124.196 126.032 C 122.918 127.223, 122.292 128.710, 122.628 129.757 C 125.010 137.178, 126.229 138.371, 128.800 135.800 C 129.460 135.140, 130 134.985, 130 135.455 C 130 135.925, 130.900 135.495, 132 134.500 C 134.261 132.454, 134.723 126.789, 132.750 125.304 C 130.539 123.640, 126.384 123.993, 124.196 126.032 M 48.132 128.501 C 46.566 131.154, 46.402 132, 47.452 132 C 50.340 132, 52 130.705, 52 128.452 C 52 124.708, 50.358 124.729, 48.132 128.501 M 53 129.878 C 53 132.351, 50.831 134.056, 47.343 134.324 C 43.798 134.597, 42.988 137.603, 45.909 139.649 C 48.316 141.335, 48.622 144.767, 46.611 147.517 C 45.847 148.562, 45.446 149.998, 45.718 150.708 C 46.457 152.632, 51.728 152.297, 52.920 150.250 C 53.481 149.287, 53.953 148.943, 53.970 149.485 C 53.986 150.027, 54.957 148.677, 56.126 146.485 C 57.296 144.293, 59.546 140.860, 61.126 138.856 C 62.707 136.852, 63.986 134.827, 63.968 134.356 C 63.933 133.401, 55.410 128, 53.938 128 C 53.422 128, 53 128.845, 53 129.878 M 176 136.519 C 167.591 142.293, 156.121 146.046, 144.750 146.742 C 136.344 147.256, 136 147.371, 136 149.663 C 136 152.653, 137.153 153.103, 156.450 157.646 C 173.098 161.565, 174.688 161.560, 187.500 157.543 C 196.642 154.678, 202 151.712, 202 149.518 C 202 146.532, 186.715 131.955, 183.660 132.028 C 183.022 132.043, 179.575 134.064, 176 136.519 M 64.695 136.785 C 60.949 140.924, 56 148.586, 56 150.247 C 56 151.540, 56.812 152, 59.093 152 C 60.794 152, 66.532 152.860, 71.843 153.910 C 86.584 156.826, 91.945 157.217, 106.548 156.443 L 120 155.730 120 151.445 C 120 147.570, 119.736 147.106, 117.250 146.606 C 115.737 146.302, 108.425 144.915, 101 143.523 C 89.769 141.419, 74.758 137.730, 67.961 135.404 C 67.114 135.114, 65.644 135.735, 64.695 136.785 M 209 138.059 C 209 139.844, 209.417 140.861, 210 140.500 C 210.550 140.160, 211 138.784, 211 137.441 C 211 136.098, 210.550 135, 210 135 C 209.450 135, 209 136.377, 209 138.059 M 122.006 136.795 C 122.009 137.183, 122.462 139.124, 123.014 141.110 C 123.883 144.239, 124.348 144.656, 126.508 144.243 C 128.889 143.788, 130.132 141, 127.955 141 C 127.380 141, 125.805 139.895, 124.455 138.545 C 123.105 137.195, 122.003 136.408, 122.006 136.795 M 132.750 138.377 C 130.089 140.504, 129.159 143.362, 130.798 144.375 C 132.242 145.268, 134.021 143.414, 135.001 139.996 C 135.532 138.146, 135.861 136.530, 135.733 136.406 C 135.605 136.281, 134.262 137.168, 132.750 138.377 M 44 142.941 C 44 144.623, 44.450 146, 45 146 C 45.550 146, 46 144.902, 46 143.559 C 46 142.216, 45.550 140.840, 45 140.500 C 44.417 140.139, 44 141.156, 44 142.941 M 40.494 142.009 C 39.690 143.311, 40.852 147, 42.067 147 C 42.580 147, 43 145.650, 43 144 C 43 141.049, 41.718 140.030, 40.494 142.009 M 121.366 148.332 C 121.715 149.339, 122.045 151.589, 122.100 153.332 C 122.194 156.333, 122.239 156.368, 122.947 154 L 123.695 151.500 124.106 154 C 124.430 155.967, 124.661 156.148, 125.189 154.850 C 125.608 153.820, 124.897 151.941, 123.296 149.850 C 121.886 148.007, 121.017 147.324, 121.366 148.332 M 128.079 148.583 C 128.127 149.748, 128.364 149.985, 128.683 149.188 C 128.972 148.466, 128.936 147.603, 128.604 147.271 C 128.272 146.939, 128.036 147.529, 128.079 148.583 M 206.094 150.387 C 205.384 151.242, 205.284 152.057, 205.847 152.405 C 206.366 152.726, 207.073 152.252, 207.419 151.351 C 208.267 149.141, 207.557 148.624, 206.094 150.387 M 197 155.637 C 193.425 157.383, 186.818 159.809, 182.318 161.029 C 174.378 163.182, 173.922 163.199, 166.909 161.616 C 162.935 160.718, 159.521 160.146, 159.323 160.344 C 159.125 160.542, 161.334 161.581, 164.231 162.652 C 168.747 164.323, 179.857 170.453, 185.093 174.163 C 186.347 175.051, 187.341 174.808, 189.760 173.019 C 192.143 171.258, 193.599 170.890, 196.231 171.384 C 199.328 171.965, 199.760 171.740, 201.140 168.826 C 202.566 165.816, 202.508 165.367, 200.146 161.066 C 197.767 156.734, 197.750 156.597, 199.819 158.405 C 201.019 159.453, 202 161.012, 202 161.869 C 202 163.238, 202.176 163.249, 203.434 161.964 C 205.588 159.765, 206.277 155.721, 204.795 153.981 C 203.652 152.640, 202.738 152.834, 197 155.637 M 54.619 153.808 C 53.607 155.444, 55.557 167.676, 57.239 170.242 C 58.373 171.973, 60.161 172.930, 63.156 173.409 C 65.516 173.786, 68.147 174.728, 69.001 175.501 C 70.803 177.132, 71.001 177.042, 81.818 169.628 C 85.728 166.948, 92.656 163.243, 97.214 161.394 L 105.500 158.034 94 158.010 C 86.318 157.994, 79.844 157.361, 74.500 156.104 C 64.036 153.643, 55.341 152.639, 54.619 153.808 M 134.667 153.667 C 133.197 155.136, 134.165 155.998, 137.250 155.968 C 140.324 155.938, 140.395 155.857, 138.559 154.468 C 136.403 152.838, 135.651 152.683, 134.667 153.667 M 50.337 156.750 C 51.101 158.262, 51.977 160.175, 52.284 161 C 52.591 161.825, 52.878 160.588, 52.921 158.250 C 52.988 154.623, 52.703 154, 50.974 154 C 49.095 154, 49.049 154.198, 50.337 156.750 M 49.015 159.191 C 49.007 160.121, 49.450 161.160, 50 161.500 C 51.266 162.282, 51.266 160.958, 50 159 C 49.165 157.707, 49.029 157.734, 49.015 159.191 M 111.500 159.510 C 99.375 161.326, 89.017 166.062, 75.128 176.141 C 73.438 177.367, 72.801 178.942, 72.607 182.371 C 72.390 186.217, 72.765 187.335, 74.924 189.280 C 80.330 194.149, 80.724 194.307, 83.180 192.587 C 86.820 190.037, 89.782 190.595, 92.011 194.250 C 93.101 196.037, 93.994 198.452, 93.996 199.616 C 93.999 201.292, 95.250 202.188, 100.009 203.923 C 107.257 206.566, 117.978 208.422, 119.162 207.238 C 119.632 206.768, 120.970 203.710, 122.134 200.442 C 124.412 194.050, 125.063 178.379, 123.292 172.582 L 122.400 169.664 120.700 174.332 C 119.765 176.899, 118.236 181.097, 117.303 183.660 C 116.370 186.222, 115.426 187.777, 115.205 187.114 C 114.650 185.450, 117.936 173.302, 120.154 168.814 C 121.854 165.373, 121.835 159.529, 120.121 158.635 C 119.779 158.457, 115.900 158.850, 111.500 159.510 M 124 159.559 C 124 160.416, 124.450 160.840, 125 160.500 C 125.550 160.160, 126 159.459, 126 158.941 C 126 158.423, 125.550 158, 125 158 C 124.450 158, 124 158.702, 124 159.559 M 46.638 160.500 C 46.955 161.325, 47.391 162, 47.607 162 C 47.823 162, 48 161.325, 48 160.500 C 48 159.675, 47.564 159, 47.031 159 C 46.499 159, 46.322 159.675, 46.638 160.500 M 138.172 163.590 C 142.524 169.565, 145.520 175.407, 146.457 179.750 C 147.516 184.657, 146.430 183.684, 143.106 176.750 C 140.014 170.299, 134.091 161.575, 133.324 162.342 C 132.078 163.589, 129.026 182.503, 129.023 189 C 129.020 194.803, 129.557 197.655, 131.396 201.604 L 133.773 206.708 142.594 205.404 C 158.553 203.045, 160.240 202.394, 162.500 197.731 C 163.600 195.461, 165.743 192.701, 167.261 191.598 C 169.700 189.827, 170.517 189.726, 174.261 190.733 C 178.389 191.844, 178.616 191.776, 182.918 188.144 C 189.970 182.190, 190.141 181.487, 185.500 177.535 C 174.884 168.495, 155.334 160.249, 142.156 159.253 L 134.595 158.681 138.172 163.590 M 207.125 160.836 C 205.722 163.381, 206.380 165.020, 208.110 163.290 C 208.703 162.697, 209.013 161.377, 208.800 160.356 C 208.452 158.690, 208.280 158.740, 207.125 160.836 M 126.989 163.250 C 124.847 166.763, 124.693 168.359, 125.904 174.500 C 126.834 179.216, 127.547 178.024, 128.891 169.500 C 129.412 166.200, 130.148 162.713, 130.526 161.750 C 131.725 158.701, 129.078 159.824, 126.989 163.250 M 49.068 165.126 C 49.636 166.188, 50.528 166.792, 51.050 166.469 C 52.602 165.510, 52.137 164.269, 50.017 163.715 C 48.322 163.272, 48.184 163.476, 49.068 165.126 M 190.750 174.080 C 188.619 175.321, 188.498 177.339, 190.457 178.964 C 192.373 180.555, 195.402 178.424, 195.738 175.250 C 196 172.781, 193.848 172.276, 190.750 174.080 M 61 175.690 C 61 177.022, 68.383 184, 69.792 184 C 71.408 184, 71.314 182.508, 69.474 178.950 C 68.600 177.260, 67.140 176, 66.056 176 C 65.015 176, 63.452 175.727, 62.582 175.393 C 61.712 175.059, 61 175.193, 61 175.690 M 57.815 177.750 C 57.585 178.713, 57.555 180.175, 57.749 181 C 58.281 183.267, 62.772 186.174, 65.190 185.816 C 67.184 185.521, 67.063 185.181, 63.415 180.814 C 59.042 175.579, 58.416 175.236, 57.815 177.750 M 85.128 193.345 C 84.514 194.085, 83.739 196.053, 83.406 197.719 C 82.920 200.152, 83.257 201.067, 85.123 202.373 C 86.400 203.268, 88.245 204, 89.223 204 C 92.257 204, 91.179 201.456, 87.376 199.642 C 85.383 198.692, 83.991 197.675, 84.283 197.383 C 84.575 197.091, 86.184 197.561, 87.857 198.426 C 91.822 200.476, 92 200.439, 92 197.557 C 92 196.165, 91.043 194.443, 89.777 193.557 C 87.064 191.656, 86.550 191.633, 85.128 193.345 M 166.368 195.571 C 162.247 199.941, 162.062 201.436, 165.750 200.574 C 173.072 198.862, 177.562 194.197, 173.418 192.607 C 170.672 191.553, 169.820 191.911, 166.368 195.571 M 125.449 196.500 C 125.028 197.600, 123.861 200.637, 122.856 203.250 C 120.791 208.620, 120.759 208.596, 128.276 207.354 C 132.028 206.734, 132.042 206.714, 130.441 204.270 C 129.555 202.917, 128.241 200.166, 127.522 198.155 C 126.379 194.960, 126.119 194.752, 125.449 196.500" stroke="none" fill="#212121" fill-rule="evenodd" fill-opacity="1"/>
</svg>