<svg xmlns="http://www.w3.org/2000/svg" width="1024" height="1024" viewBox="0 0 256 256" version="1.1" class="injected-svg" data-src="https://storage.googleapis.com/illustroke-c1d67.appspot.com/sKvoQfSqEHPmlLobzx5EfRxGct22/w14tr1tus2xwsqlhbhiw-0.svg" xmlns:xlink="http://www.w3.org/1999/xlink"><rect width="1024" height="1024" fill="white"/>
	<path d="M 139.938 36.117 C 139.042 37.789, 139.124 38.552, 140.325 39.753 C 143.188 42.617, 147.576 38.604, 144.989 35.487 C 143.251 33.392, 141.263 33.640, 139.938 36.117 M 148.638 35.500 C 147.705 37.932, 149.042 40, 151.548 40 C 154.365 40, 155.346 38.666, 154.497 35.991 C 153.745 33.620, 149.497 33.264, 148.638 35.500 M 158.152 35.885 C 156.417 36.984, 157.005 39.974, 159.231 41.376 C 161.877 43.042, 164.608 40.005, 163.062 37.117 C 161.860 34.869, 160.352 34.491, 158.152 35.885 M 131.709 36.624 C 130.504 37.830, 130.925 40.693, 132.500 42 C 134.506 43.664, 137.216 41.512, 136.798 38.588 C 136.503 36.518, 133.120 35.213, 131.709 36.624 M 166.309 39.636 C 165.641 41.377, 166.943 44.148, 168.705 44.735 C 169.290 44.930, 170.494 44.363, 171.382 43.475 C 172.606 42.251, 172.746 41.395, 171.963 39.931 C 170.702 37.575, 167.171 37.391, 166.309 39.636 M 123.338 41.562 C 122.978 42.499, 123.179 44.057, 123.783 45.025 C 124.388 45.993, 124.609 47.058, 124.274 47.392 C 123.026 48.641, 121.216 47.934, 120.710 46 C 120.403 44.827, 119.346 44, 118.153 44 C 115.460 44, 114.657 45.491, 116 48 C 117.629 51.044, 116.150 52.407, 114.042 49.804 C 112.496 47.894, 111.993 47.761, 110.626 48.895 C 109.743 49.629, 109.130 51.409, 109.262 52.863 C 109.393 54.313, 109.050 55.612, 108.500 55.750 C 107.950 55.888, 107.500 55.438, 107.500 54.750 C 107.500 52.908, 103.358 52.624, 102.669 54.419 C 101.855 56.542, 103.815 61.715, 105.711 62.443 C 107.549 63.148, 112 60.514, 112 58.720 C 112 58.042, 113.912 56.892, 116.250 56.165 C 118.588 55.438, 121.175 54.256, 122 53.539 C 122.825 52.822, 127.100 51.004, 131.500 49.498 C 148.403 43.714, 165.294 48.076, 177.814 61.461 C 189.394 73.839, 194.374 88.259, 194.404 109.500 C 194.427 125.373, 192.173 134.697, 184.815 149.167 C 178.497 161.593, 172.318 169.724, 158.204 184.184 C 147.794 194.849, 145.791 198, 149.421 198 C 150.138 198, 155.858 192.713, 162.134 186.250 C 182.501 165.274, 192.019 149.277, 197.029 127.597 C 198.934 119.354, 199.185 116.096, 198.721 105.706 C 198.089 91.601, 195.736 82.138, 190.219 71.516 C 185.912 63.225, 175.854 52.727, 168.425 48.770 C 157.978 43.204, 143.486 41.432, 133.409 44.489 C 130.709 45.308, 128.482 45.983, 128.461 45.989 C 128.439 45.995, 128.439 44.763, 128.461 43.250 C 128.491 41.143, 127.973 40.425, 126.246 40.180 C 124.833 39.979, 123.747 40.495, 123.338 41.562 M 175.145 44.325 C 173.278 46.575, 174.851 49.155, 177.878 48.804 C 179.927 48.566, 180.500 47.954, 180.500 46 C 180.500 43.089, 177.063 42.014, 175.145 44.325 M 183.250 49.662 C 181.551 50.348, 181.671 53.482, 183.452 54.960 C 186.788 57.729, 190.729 53.788, 187.960 50.452 C 186.732 48.972, 185.480 48.762, 183.250 49.662 M 131.915 56.370 C 113.360 60.365, 93.944 78.908, 75.763 110 C 68.760 121.974, 65.975 125.577, 64.973 123.957 C 64.561 123.290, 64.450 121.061, 64.727 119.002 C 65.246 115.128, 63.712 112.888, 61.830 114.770 C 60.720 115.880, 60.484 123.798, 61.468 126.899 C 61.817 127.998, 63.075 129.207, 64.265 129.584 C 67.159 130.503, 71.177 125.804, 79.123 112.211 C 97.661 80.494, 115.671 63.491, 134.310 60.109 C 153.096 56.700, 171.024 71.491, 178.680 96.715 C 181.072 104.598, 181.080 124.024, 178.695 132.877 C 173.884 150.731, 163.657 167.526, 148.373 182.672 C 139.849 191.120, 138.351 193.046, 139.540 194.033 C 140.700 194.996, 142.105 194.240, 146.933 190.058 C 162.677 176.418, 175.047 157.819, 181.553 138 C 184.053 130.385, 184.349 128.042, 184.396 115.500 C 184.458 98.898, 182.566 91.213, 175.368 78.837 C 168.252 66.601, 158.218 58.757, 146.554 56.311 C 139.412 54.814, 139.139 54.815, 131.915 56.370 M 96.933 58.581 C 95.903 59.821, 95.877 60.573, 96.810 62.068 C 97.465 63.116, 98 64.879, 98 65.986 C 98 68.309, 101.124 68.761, 102.845 66.687 C 103.651 65.716, 103.395 64.285, 101.863 61.187 C 99.589 56.592, 98.890 56.223, 96.933 58.581 M 189.309 58.636 C 187.836 62.475, 193.149 65.296, 195.333 61.834 C 196.096 60.625, 196.023 59.733, 195.070 58.584 C 193.359 56.523, 190.109 56.552, 189.309 58.636 M 90.707 64.013 C 89.309 69.359, 93.538 74.891, 96.647 71.782 C 98.225 70.203, 98.163 69.845, 95.651 66.049 C 92.660 61.529, 91.483 61.044, 90.707 64.013 M 195.471 67.032 C 193.763 68.919, 193.763 69.081, 195.471 70.968 C 197.603 73.324, 201 72.115, 201 69 C 201 65.885, 197.603 64.676, 195.471 67.032 M 86.101 69.378 C 85.295 70.350, 85.254 71.538, 85.963 73.404 C 87.148 76.520, 89.477 77.679, 91.380 76.099 C 92.514 75.159, 92.471 74.411, 91.117 71.520 C 89.380 67.808, 87.921 67.185, 86.101 69.378 M 81.337 74.564 C 81.007 75.424, 81.237 77.224, 81.847 78.564 C 82.564 80.138, 82.600 81, 81.947 81 C 81.392 81, 80.678 80.325, 80.362 79.500 C 79.556 77.400, 78 77.627, 78 79.845 C 78 80.860, 77.104 82.501, 76.009 83.492 C 72.917 86.290, 65.003 102.386, 65.958 103.933 C 67.243 106.012, 68.783 104.380, 72.497 97.005 C 75.188 91.662, 77.268 89.141, 81.972 85.521 C 85.288 82.970, 88 80.416, 88 79.846 C 88 77.929, 84.582 73, 83.253 73 C 82.529 73, 81.667 73.704, 81.337 74.564 M 199.147 76.322 C 198.223 77.437, 198.378 78.245, 199.870 80.088 C 201.525 82.131, 201.986 82.256, 203.434 81.055 C 205.676 79.194, 205.045 75.578, 202.412 75.202 C 201.264 75.038, 199.795 75.542, 199.147 76.322 M 131.754 78.099 C 123.720 79.960, 115.832 85.042, 106.541 94.343 C 95.494 105.403, 87.674 116.768, 78.005 135.819 C 73.932 143.843, 70.358 149.758, 69.875 149.275 C 69.401 148.801, 68.713 145.546, 68.347 142.044 C 67.819 136.991, 67.095 135.036, 64.847 132.587 L 62.013 129.500 58.257 133.561 C 56.190 135.794, 53.731 139.062, 52.790 140.822 C 51.554 143.136, 49.416 144.744, 45.070 146.629 C 38.226 149.597, 37.070 151.618, 39.684 156.043 C 41.504 159.123, 48.550 164.201, 52.750 165.460 C 54.056 165.852, 55 166.931, 55 168.032 C 55 169.822, 57.671 172, 59.867 172 C 60.416 172, 61.136 171.148, 61.466 170.108 C 61.969 168.523, 63.278 168.154, 69.524 167.839 C 78.910 167.365, 79.949 166.403, 84.551 153.939 C 90.081 138.962, 97.782 124.375, 105.728 113.827 C 116.438 99.609, 125.483 92.996, 134.210 93.004 C 140.338 93.009, 144.264 95.797, 147.521 102.454 C 154.921 117.578, 149.630 139.528, 135.079 154.079 C 126.951 162.207, 117.506 167.193, 110.023 167.306 C 104.052 167.396, 100.766 165.192, 102.949 162.562 C 104 161.295, 103.949 160.918, 102.661 160.423 C 100.295 159.515, 99 160.794, 99 164.036 C 99 171.420, 111.099 172.726, 123.363 166.665 C 145.575 155.687, 159.131 127.019, 152.340 105.384 C 148.764 93.992, 139.254 87.535, 129.750 90.046 C 113.057 94.456, 92.400 121.747, 81.521 153.759 L 78.771 161.853 75.353 157.376 C 71.937 152.900, 71.937 152.898, 73.780 150.199 C 74.794 148.715, 77.786 143.225, 80.428 138 C 96.025 107.155, 111.584 89.146, 128.036 82.894 C 140.879 78.014, 152.146 83.303, 158.492 97.190 C 167.923 117.831, 161.628 143.701, 142.598 162.500 C 131.896 173.072, 123.655 177.337, 113 177.816 C 106.446 178.111, 104.885 177.823, 100.623 175.537 C 97.940 174.098, 95.522 173.144, 95.249 173.417 C 93.970 174.696, 96.408 177.293, 100.647 179.168 C 104.507 180.876, 106.762 181.158, 113.638 180.797 C 120.775 180.423, 123.002 179.831, 129.298 176.635 C 163.190 159.433, 176.883 113.369, 155.959 86.949 C 150.572 80.146, 139.847 76.225, 131.754 78.099 M 202.618 85.525 C 200.579 87.564, 202.116 91, 205.067 91 C 207.454 91, 208.705 88.342, 207.338 86.174 C 205.904 83.901, 204.443 83.700, 202.618 85.525 M 203.610 96.573 C 202.742 98.835, 204.839 101.166, 207.412 100.798 C 208.893 100.587, 209.500 99.773, 209.500 98 C 209.500 96.046, 208.927 95.434, 206.878 95.196 C 205.145 94.995, 204.037 95.462, 203.610 96.573 M 125.808 106.384 C 119.064 108.832, 110.901 117.267, 103.947 128.973 C 99.468 136.512, 91.797 155.137, 89.466 164.129 C 87.690 170.985, 87.690 171.002, 89.250 170.992 C 89.953 170.988, 91.936 166.500, 93.780 160.742 C 101.563 136.441, 111.048 120.246, 122.400 111.876 C 133.746 103.510, 141.884 114.543, 135.990 130.298 C 132.356 140.010, 125.881 146.646, 116.198 150.581 C 113.064 151.855, 110.500 153.483, 110.500 154.199 C 110.500 157.548, 122.557 152.293, 129.450 145.940 C 146.478 130.244, 143.684 99.895, 125.808 106.384 M 204.530 105.952 C 203.256 108.013, 205.059 111.133, 207.336 110.808 C 210.390 110.373, 210.397 105.628, 207.344 105.193 C 206.159 105.024, 204.892 105.365, 204.530 105.952 M 204.389 116.430 C 203.393 119.025, 204.788 121.169, 207.246 120.820 C 208.898 120.585, 209.500 119.833, 209.500 118 C 209.500 116.167, 208.898 115.415, 207.246 115.180 C 205.893 114.988, 204.750 115.488, 204.389 116.430 M 117.417 128.425 C 112.562 133.492, 108.504 140.575, 109.945 141.466 C 110.457 141.782, 112.210 140.119, 113.842 137.771 C 118.120 131.611, 122.948 127, 125.119 127 C 130.705 127, 122.155 140.123, 114.750 142.914 C 111.956 143.967, 110.901 147, 113.329 147 C 115.628 147, 123.693 141.092, 126.605 137.274 C 128.687 134.544, 129.412 132.450, 129.449 129.055 L 129.500 124.500 125.643 124.183 C 122.190 123.900, 121.327 124.344, 117.417 128.425 M 202.465 127.112 C 201.162 131.217, 206.851 133.436, 208.391 129.423 C 209.296 127.064, 207.929 125, 205.460 125 C 203.972 125, 202.893 125.760, 202.465 127.112 M 199.362 136.500 C 198.417 138.962, 199.776 141, 202.362 141 C 205.147 141, 206.573 138.395, 204.895 136.373 C 203.379 134.547, 200.082 134.623, 199.362 136.500 M 195.445 147.174 C 194.738 149.402, 197.337 152.388, 199.388 151.704 C 201.068 151.144, 202.343 148.337, 201.691 146.636 C 200.742 144.165, 196.278 144.550, 195.445 147.174 M 191.229 155.171 C 189.539 156.861, 189.686 159.665, 191.500 160.362 C 194.169 161.386, 196.128 159.915, 195.804 157.131 C 195.469 154.251, 193.145 153.255, 191.229 155.171 M 185.046 164.444 C 182.345 167.699, 186.815 171.614, 189.811 168.618 C 191.084 167.344, 191.215 166.563, 190.376 165.231 C 188.916 162.913, 186.601 162.571, 185.046 164.444 M 178.163 172.878 C 177.427 173.345, 176.977 174.800, 177.163 176.113 C 177.416 177.902, 178.126 178.500, 180 178.500 C 181.874 178.500, 182.584 177.902, 182.837 176.113 C 183.126 174.072, 181.707 172.031, 180 172.031 C 179.725 172.031, 178.898 172.412, 178.163 172.878 M 169.389 182.430 C 168.393 185.025, 169.788 187.169, 172.246 186.820 C 173.898 186.585, 174.500 185.833, 174.500 184 C 174.500 182.167, 173.898 181.415, 172.246 181.180 C 170.893 180.988, 169.750 181.488, 169.389 182.430 M 111.370 205.250 C 111.701 206.488, 111.979 210.313, 111.986 213.750 C 111.994 217.241, 112.441 220, 113 220 C 113.588 220, 114 216.500, 114 211.500 C 114 204.339, 113.745 203, 112.383 203 C 111.195 203, 110.926 203.596, 111.370 205.250 M 117 211.500 C 117 216.500, 117.412 220, 118 220 C 118.588 220, 119 216.500, 119 211.500 C 119 206.500, 118.588 203, 118 203 C 117.412 203, 117 206.500, 117 211.500 M 83 212 L 83 220 88.521 220 C 93.362 220, 94.176 219.707, 95.124 217.626 C 95.862 216.006, 95.885 214.654, 95.196 213.366 C 94.640 212.328, 94.431 210.198, 94.730 208.633 C 95.419 205.028, 93.918 204.035, 87.750 204.015 L 83 204 83 212 M 129 212 L 129 220 133.977 220 C 138.146 220, 139.213 219.605, 140.548 217.567 C 141.801 215.655, 141.901 214.684, 141.016 213.029 C 140.396 211.872, 140.176 210.020, 140.527 208.914 C 141.554 205.680, 139.280 204, 133.878 204 L 129 204 129 212 M 86 207.934 C 86 209.574, 86.634 210, 89.073 210 C 91.460 210, 92.073 209.609, 91.815 208.250 C 91.615 207.195, 90.395 206.374, 88.741 206.184 C 86.535 205.929, 86 206.271, 86 207.934 M 131.713 206.621 C 129.833 208.500, 131.116 210.115, 134.250 209.813 C 138.202 209.432, 138.752 206.646, 134.963 206.204 C 133.567 206.041, 132.104 206.229, 131.713 206.621 M 102 208.694 C 97.912 210.155, 96.751 215.560, 99.912 218.420 C 102.111 220.410, 107.111 220.213, 107.803 218.109 C 108.141 217.082, 107.635 216.875, 105.872 217.317 C 104.558 217.647, 102.812 217.492, 101.992 216.974 C 100.920 216.296, 101.696 216.026, 104.750 216.015 C 108.586 216.001, 109 215.762, 109 213.557 C 109 212.165, 108.043 210.443, 106.777 209.557 C 104.403 207.893, 104.295 207.874, 102 208.694 M 169.530 209.967 C 167.461 212.253, 167.206 216.338, 168.997 218.497 C 170.744 220.601, 177 220.512, 177 218.383 C 177 217.272, 176.390 216.926, 175.046 217.278 C 173.972 217.559, 172.285 217.175, 171.296 216.426 C 169.699 215.214, 170.026 215.060, 174.250 215.032 C 179.591 214.996, 180.441 213.441, 177 210 C 174.465 207.465, 171.804 207.454, 169.530 209.967 M 183.250 208.706 C 181.246 209.092, 181 209.733, 181 214.570 C 181 220.972, 182.747 221.912, 183.193 215.750 C 183.466 211.965, 183.774 211.500, 186 211.500 C 188.226 211.500, 188.534 211.965, 188.807 215.750 C 189.229 221.578, 191 221.134, 191 215.200 C 191 208.553, 189.700 207.463, 183.250 208.706 M 144 213.378 C 144 218.594, 145.246 219.858, 150.250 219.712 L 154 219.604 154 214.302 C 154 211.386, 153.550 209, 153 209 C 152.450 209, 152 210.318, 152 211.929 C 152 215.011, 149.483 218.417, 147.919 217.450 C 147.414 217.138, 147 215.109, 147 212.941 C 147 210.105, 146.580 209, 145.500 209 C 144.395 209, 144 210.153, 144 213.378 M 156.668 209.750 C 155.865 211.088, 159.709 219.491, 161.266 219.802 C 162.284 220.005, 163.302 218.561, 164.388 215.374 C 166.248 209.915, 166.347 209, 165.078 209 C 164.570 209, 163.634 210.579, 162.997 212.509 C 161.676 216.511, 160.451 216.328, 159.497 211.989 C 158.870 209.131, 157.629 208.149, 156.668 209.750 M 101.667 211.667 C 100.307 213.026, 101.072 214, 103.500 214 C 105.056 214, 106 213.433, 106 212.500 C 106 211, 102.925 210.409, 101.667 211.667 M 171 212 C 171 212.550, 171.900 213, 173 213 C 174.100 213, 175 212.550, 175 212 C 175 211.450, 174.100 211, 173 211 C 171.900 211, 171 211.450, 171 212 M 86 214.937 C 86 216.636, 86.630 217, 89.573 217 C 92.436 217, 93.081 216.652, 92.815 215.250 C 92.597 214.097, 91.377 213.393, 89.242 213.187 C 86.532 212.925, 86 213.212, 86 214.937 M 131 215 C 131 216.839, 131.498 217.080, 134.750 216.810 C 137.279 216.601, 138.500 216.011, 138.500 215 C 138.500 213.989, 137.279 213.399, 134.750 213.190 C 131.498 212.920, 131 213.161, 131 215" stroke="none" fill="#212121" fill-rule="evenodd" fill-opacity="1"/>
</svg>