<svg xmlns="http://www.w3.org/2000/svg" width="1024" height="1024" viewBox="0 0 256 256" version="1.1" class="injected-svg" data-src="https://storage.googleapis.com/illustroke-c1d67.appspot.com/sKvoQfSqEHPmlLobzx5EfRxGct22/g6ncc62gliurs0z925vs-2.svg" xmlns:xlink="http://www.w3.org/1999/xlink"><rect width="1024" height="1024" fill="white"/>
	<path d="M 77.577 28.521 C 67.719 29.305, 59.169 30.433, 58.577 31.026 C 57.307 32.299, 57.448 216.862, 58.720 218.098 C 60.079 219.420, 152.078 221.310, 176.404 220.515 L 199.309 219.767 198.459 171.134 C 197.553 119.323, 197.277 60.817, 197.849 42.149 C 198.041 35.905, 197.815 30.443, 197.349 30.010 C 194.683 27.537, 104.099 26.410, 77.577 28.521 M 81 29.925 C 76.325 30.354, 69.719 31.037, 66.320 31.443 L 60.140 32.180 59.342 38.840 C 58.903 42.503, 58.534 69.479, 58.522 98.786 C 58.504 141.936, 58.752 152.229, 59.824 152.891 C 62.399 154.482, 89.836 154.920, 115.507 153.780 C 134.171 152.950, 143.348 152.926, 148.007 153.692 C 155.749 154.966, 185 153.804, 192.398 151.929 L 197.297 150.688 196.638 136.594 C 195.090 103.491, 194.795 68.778, 195.911 51.086 C 196.751 37.755, 196.770 32.372, 195.978 31.586 C 194.715 30.333, 197.631 30.425, 136.500 29.701 C 110.650 29.395, 85.675 29.496, 81 29.925 M 63.032 39.613 C 63.214 44.708, 61.936 112.765, 61.398 126.610 L 60.695 144.720 64.098 145.326 C 65.969 145.660, 84.150 146.217, 104.500 146.566 C 143.476 147.233, 164.059 146.405, 183.789 143.376 C 193.282 141.919, 194.973 141.393, 194.423 140.072 C 193.232 137.208, 191.797 66.712, 192.693 55.076 C 193.168 48.899, 193.216 43.633, 192.799 43.376 C 188.814 40.913, 62.948 37.263, 63.032 39.613 M 85.199 41.744 C 89.984 41.927, 98.084 41.928, 103.199 41.746 C 108.315 41.564, 104.400 41.414, 94.500 41.413 C 84.600 41.412, 80.415 41.561, 85.199 41.744 M 95.911 42.685 L 65.323 43.028 64.647 80.264 C 64.275 100.744, 63.688 122.489, 63.343 128.586 L 62.714 139.672 90.607 140.334 C 128.283 141.228, 181.581 141.075, 186.500 140.057 C 188.700 139.602, 190.024 139.178, 189.441 139.115 C 188.859 139.052, 187.509 138.339, 186.441 137.530 C 184.683 136.199, 184.803 136.171, 187.712 137.235 C 189.478 137.881, 191.069 138.205, 191.246 137.955 C 191.424 137.705, 191.197 124.675, 190.741 109 C 190.286 93.325, 190.053 72.738, 190.225 63.252 L 190.536 46.004 187.518 45.519 C 172.612 43.126, 141.759 42.171, 95.911 42.685 M 76.669 48.798 L 69.838 49.095 70.115 90.610 C 70.268 113.443, 70.666 132.294, 71.001 132.501 C 72.213 133.250, 115.269 134.980, 149.137 135.641 L 183.775 136.316 184.349 96.908 C 184.664 75.234, 185.208 55.866, 185.557 53.869 L 186.191 50.237 148.346 49.608 C 127.531 49.262, 104.425 48.871, 97 48.739 C 89.575 48.608, 80.426 48.634, 76.669 48.798 M 71.764 50.693 C 71.530 51.137, 71.540 69.334, 71.786 91.131 L 72.233 130.762 79.866 131.418 C 89.166 132.217, 148.127 133.932, 167.648 133.971 L 181.795 134 182.373 97.750 C 182.691 77.813, 183.228 59.415, 183.567 56.867 L 184.183 52.235 152.341 51.625 C 134.829 51.289, 109.630 50.761, 96.344 50.450 C 83.059 50.139, 71.998 50.249, 71.764 50.693 M 168.139 60.061 L 165.778 62 168.139 63.939 C 170.475 65.858, 170.521 65.858, 172.472 63.939 C 174.435 62.009, 174.435 61.991, 172.472 60.061 C 170.521 58.142, 170.475 58.142, 168.139 60.061 M 104.250 67.430 C 103.013 68.004, 102 69.268, 102 70.237 C 102 71.623, 102.843 72, 105.941 72 C 111.319 72, 112.079 70.318, 108 67.443 C 106.954 66.705, 105.819 66.701, 104.250 67.430 M 138.973 67.704 C 135.343 70.205, 134.268 71.977, 133.650 76.471 C 132.986 81.304, 135.668 87.513, 139.674 90.417 C 143.002 92.829, 149.661 92.923, 153.195 90.608 C 158.734 86.978, 160.594 78.126, 157.040 72.299 C 153.421 66.363, 144.288 64.040, 138.973 67.704 M 143.264 68.718 C 144.784 68.947, 147.034 68.941, 148.264 68.704 C 149.494 68.467, 148.250 68.279, 145.500 68.286 C 142.750 68.294, 141.744 68.488, 143.264 68.718 M 138.344 71.693 C 136.254 72.102, 134.362 76.159, 135.446 77.912 C 136.400 79.456, 141 77.843, 141 75.965 C 141 74.974, 141.273 73.452, 141.607 72.582 C 141.941 71.712, 141.828 71.061, 141.357 71.136 C 140.886 71.211, 139.530 71.462, 138.344 71.693 M 143.607 72.582 C 143.273 73.452, 143 75.151, 143 76.358 C 143 78.316, 143.433 78.512, 147 78.171 C 151.068 77.783, 151.439 77.241, 150.370 73.250 C 149.644 70.541, 144.582 70.041, 143.607 72.582 M 152.130 74.943 C 152.815 76.907, 153.875 78, 155.098 78 C 158.532 78, 157.117 73.774, 153.282 72.578 C 151.185 71.923, 151.122 72.053, 152.130 74.943 M 153.345 81.543 C 153.019 82.392, 153.014 83.347, 153.333 83.667 C 154.342 84.676, 157 83.128, 157 81.531 C 157 79.535, 154.112 79.545, 153.345 81.543 M 145 82 C 148.599 83.153, 151 83.153, 151 82 C 151 81.450, 149.088 81.045, 146.750 81.100 C 143.140 81.184, 142.876 81.320, 145 82 M 136 82.944 C 136 83.464, 137.087 85.151, 138.416 86.694 L 140.833 89.500 141.511 86.807 C 141.883 85.326, 141.894 83.638, 141.535 83.057 C 140.725 81.746, 136 81.650, 136 82.944 M 144 86.500 C 144 89.548, 146.939 89.928, 148.701 87.108 C 150.114 84.844, 149.472 84, 146.333 84 C 144.511 84, 144 84.548, 144 86.500 M 88.044 94.671 C 86.438 96.713, 85.666 97.066, 84.771 96.171 C 82.833 94.233, 81.922 94.842, 82.617 97.611 C 83.200 99.934, 83.037 100.147, 81.136 99.543 C 78.701 98.770, 78.109 100.721, 80.500 101.638 C 82.675 102.473, 82.340 103.935, 79.750 104.918 C 77.515 105.765, 77.518 105.779, 80.311 107.074 C 82.549 108.111, 83.004 108.848, 82.542 110.688 C 81.882 113.319, 81.948 113.350, 85.423 112.029 C 87.677 111.172, 88.049 111.349, 88.597 113.529 C 89.323 116.422, 90.509 116.720, 91.460 114.250 C 92.082 112.637, 92.223 112.657, 93.265 114.500 C 94.356 116.429, 94.418 116.411, 95.020 114 C 95.487 112.127, 96.218 111.565, 97.932 111.758 C 99.941 111.984, 100.140 111.693, 99.560 109.381 C 99.044 107.325, 99.217 106.869, 100.351 107.305 C 102.820 108.252, 103.122 106.759, 100.934 104.430 C 99.589 102.998, 99.231 101.975, 99.925 101.546 C 101.707 100.445, 101.134 98, 99.094 98 C 97.680 98, 97.322 97.483, 97.710 96 C 98.277 93.834, 96.515 93.201, 95.622 95.250 C 95.248 96.108, 94.556 95.794, 93.416 94.250 C 91.288 91.365, 90.602 91.419, 88.044 94.671 M 89.986 96.027 C 89.377 97.165, 87.781 98.513, 86.439 99.023 C 84.407 99.796, 84 100.627, 84 104.007 C 84 106.967, 84.473 108.231, 85.750 108.683 C 86.713 109.025, 88.278 109.972, 89.229 110.788 C 90.758 112.100, 91.024 112.100, 91.529 110.784 C 91.897 109.825, 92.970 109.463, 94.550 109.765 C 96.671 110.170, 97.016 109.848, 97.118 107.367 C 97.184 105.790, 97.168 104.115, 97.083 103.645 C 96.999 103.174, 97.451 102.162, 98.087 101.395 C 98.992 100.305, 98.910 100, 97.711 100 C 96.868 100, 95.034 98.640, 93.635 96.979 C 91.152 94.027, 91.068 94.005, 89.986 96.027 M 151.710 115 C 151.397 116.197, 150.346 117, 149.094 117 C 147.942 117, 147 117.450, 147 118 C 147 118.550, 147.914 119, 149.031 119 C 150.149 119, 151.322 119.675, 151.638 120.500 C 151.955 121.325, 152.616 122, 153.107 122 C 153.598 122, 154 121.325, 154 120.500 C 154 119.647, 154.898 119, 156.083 119 C 157.316 119, 157.988 118.490, 157.730 117.750 C 157.489 117.063, 156.552 116.632, 155.646 116.794 C 154.559 116.988, 154 116.394, 154 115.044 C 154 112.419, 152.393 112.388, 151.710 115 M 66.250 141.813 C 64.463 141.986, 63 142.477, 63 142.906 C 63 144.752, 148.872 145.729, 162.500 144.038 C 166.208 143.578, 155.892 143.197, 135.500 143.040 C 117.350 142.900, 95.075 142.497, 86 142.143 C 76.925 141.789, 68.037 141.641, 66.250 141.813 M 193.250 153.706 C 191.290 154.083, 191 154.757, 191 158.930 C 191 161.565, 190.714 165.809, 190.364 168.360 L 189.728 173 193.364 173 L 197 173 197 163 C 197 157.500, 196.662 153.061, 196.250 153.136 C 195.838 153.211, 194.488 153.467, 193.250 153.706 M 120.500 155 C 113.725 155.468, 116.197 155.634, 130.500 155.670 C 143.139 155.702, 147.659 155.464, 144 154.958 C 137.790 154.100, 133.413 154.108, 120.500 155 M 59.398 159 C 59.717 160.925, 59.983 168.688, 59.989 176.250 L 60 190 82.750 189.986 C 110.497 189.968, 180.961 188.290, 190.250 187.425 L 197 186.797 197 180.748 L 197 174.699 186.750 175.364 C 181.113 175.730, 172.803 176.441, 168.285 176.944 C 156.779 178.223, 93.751 180.502, 91.694 179.713 C 90.244 179.156, 90 177.476, 90 168.050 C 90 155.011, 91.726 156.198, 72.159 155.783 L 58.819 155.500 59.398 159 M 162 165.500 L 162 175 170.250 174.930 C 175.789 174.883, 177.843 174.577, 176.500 174 C 175.400 173.527, 173.318 173.109, 171.872 173.070 C 170.427 173.032, 168.669 172.306, 167.965 171.458 C 165.779 168.824, 168.404 167.580, 178.786 166.331 L 188.500 165.162 178.599 165.331 C 171.602 165.450, 168.574 165.144, 168.277 164.286 C 167.970 163.396, 170.617 162.995, 178.179 162.786 C 191.467 162.418, 191.871 160.599, 178.750 160.214 C 171.520 160.002, 169 160.247, 169 161.164 C 169 162.125, 168.733 162.133, 167.800 161.200 C 166.867 160.267, 166.867 159.733, 167.800 158.800 C 169.812 156.788, 169.164 156, 165.500 156 L 162 156 162 165.500 M 173.500 156.997 C 172.167 157.572, 174.437 157.883, 180.309 157.930 C 185.154 157.968, 188.876 157.608, 188.580 157.129 C 187.875 155.989, 176.076 155.885, 173.500 156.997 M 95.250 157.688 L 92 158.127 92 167.500 L 92 176.874 95.250 176.476 C 97.037 176.258, 108.175 175.835, 120 175.537 C 131.825 175.238, 145.662 174.704, 150.750 174.349 L 160 173.704 160 165.852 L 160 158 134.750 157.947 C 120.862 157.918, 107.025 157.749, 104 157.572 C 100.975 157.395, 97.037 157.447, 95.250 157.688 M 178.271 168.967 C 167.825 169.918, 168.168 171, 178.917 171 C 185.613 171, 188.057 170.672, 187.771 169.813 C 187.248 168.243, 186.727 168.197, 178.271 168.967 M 167 190.058 C 157.925 190.449, 130.137 191.119, 105.250 191.547 L 60 192.326 60 205.018 L 60 217.710 67.750 217.605 C 72.013 217.547, 96.944 217.890, 123.153 218.367 C 149.362 218.844, 176.699 218.906, 183.903 218.505 L 197 217.777 197 203.388 L 197 189 190.250 189.174 C 186.537 189.270, 176.075 189.668, 167 190.058 M 83.225 202.784 C 79.223 206.478, 75.961 210.134, 75.975 210.910 C 75.996 212.111, 83.056 212.231, 123.761 211.720 C 168.261 211.161, 175.038 210.820, 174.976 209.143 C 174.943 208.258, 163.435 200.630, 158.290 198.084 C 154.285 196.102, 152.529 196.002, 122.290 196.034 L 90.500 196.069 83.225 202.784 M 87.500 201 C 83.968 204.686, 85.388 204.964, 89.500 201.390 L 92.500 198.783 123 199.481 L 153.500 200.179 158.928 203.089 C 164.939 206.313, 168.963 207.090, 165.500 204.359 C 164.400 203.491, 161.250 201.710, 158.500 200.400 C 153.562 198.049, 153.107 198.019, 121.937 198.010 L 90.374 198 87.500 201 M 92.500 203 C 91.771 204.180, 92.717 206, 94.059 206 C 94.577 206, 95 205.100, 95 204 C 95 201.891, 93.545 201.309, 92.500 203 M 97 204.059 C 97 204.641, 97.450 204.840, 98 204.500 C 98.550 204.160, 99 203.684, 99 203.441 C 99 203.198, 98.550 203, 98 203 C 97.450 203, 97 203.477, 97 204.059 M 101 204.500 C 101 205.325, 101.402 206, 101.893 206 C 102.384 206, 103.045 205.325, 103.362 204.500 C 103.712 203.586, 103.363 203, 102.469 203 C 101.661 203, 101 203.675, 101 204.500 M 108.756 203.664 C 109.447 203.943, 109.722 204.641, 109.367 205.215 C 109.008 205.795, 109.311 206.063, 110.048 205.817 C 112.435 205.022, 112.276 202.996, 109.833 203.079 C 108.550 203.122, 108.065 203.386, 108.756 203.664 M 117 204.583 C 117 205.454, 117.534 205.989, 118.188 205.771 C 120.042 205.153, 120.349 203, 118.583 203 C 117.713 203, 117 203.713, 117 204.583 M 152 203.934 C 152 204.447, 150.762 205.055, 149.250 205.284 C 147.738 205.513, 148.949 205.768, 151.941 205.850 C 156.925 205.987, 157.219 205.877, 155.441 204.532 C 153.182 202.823, 152 202.618, 152 203.934 M 81.500 207.578 L 77.500 209.967 80.595 209.984 C 83.348 209.998, 87 207.539, 87 205.671 C 87 204.600, 85.772 205.026, 81.500 207.578 M 124.813 205.683 C 125.534 205.972, 126.397 205.936, 126.729 205.604 C 127.061 205.272, 126.471 205.036, 125.417 205.079 C 124.252 205.127, 124.015 205.364, 124.813 205.683 M 133.813 205.683 C 134.534 205.972, 135.397 205.936, 135.729 205.604 C 136.061 205.272, 135.471 205.036, 134.417 205.079 C 133.252 205.127, 133.015 205.364, 133.813 205.683 M 141.750 205.662 C 142.438 205.940, 143.563 205.940, 144.250 205.662 C 144.938 205.385, 144.375 205.158, 143 205.158 C 141.625 205.158, 141.063 205.385, 141.750 205.662 M 170 208 C 170 208.550, 170.477 209, 171.059 209 C 171.641 209, 171.840 208.550, 171.500 208 C 171.160 207.450, 170.684 207, 170.441 207 C 170.198 207, 170 207.450, 170 208 M 87 209 C 87 209.550, 87.900 210, 89 210 C 90.100 210, 91 209.550, 91 209 C 91 208.450, 90.100 208, 89 208 C 87.900 208, 87 208.450, 87 209 M 92 209 C 92 209.550, 92.873 210, 93.941 210 C 95.009 210, 96.160 209.550, 96.500 209 C 96.851 208.433, 96.010 208, 94.559 208 C 93.152 208, 92 208.450, 92 209 M 100 209 C 100 209.632, 107.147 210, 119.441 210 C 131.323 210, 139.122 209.611, 139.500 209 C 139.904 208.346, 133.177 208, 120.059 208 C 107.353 208, 100 208.367, 100 209 M 145 209 C 145 209.550, 146.463 209.993, 148.250 209.985 C 150.716 209.973, 151.138 209.736, 150 209 C 148.035 207.730, 145 207.730, 145 209 M 154.995 209.024 C 153.891 209.722, 154.415 209.969, 157 209.969 C 161.679 209.969, 164.205 208.369, 159.789 208.203 C 157.974 208.135, 155.817 208.505, 154.995 209.024" stroke="none" fill="#212121" fill-rule="evenodd" fill-opacity="1"/>
</svg>