<svg xmlns="http://www.w3.org/2000/svg" width="1024" height="1024" viewBox="0 0 256 256" version="1.1" class="injected-svg" data-src="https://storage.googleapis.com/illustroke-c1d67.appspot.com/sKvoQfSqEHPmlLobzx5EfRxGct22/19fjj8qbejfojzg6s2lgbj-1.svg" xmlns:xlink="http://www.w3.org/1999/xlink"><rect width="1024" height="1024" fill="white"/>
	<path d="M 139.872 63.664 C 138.616 65.187, 138.710 65.216, 141 64 C 143.283 62.788, 143.382 62.816, 142.138 64.324 C 141.389 65.232, 141.037 66.655, 141.357 67.487 C 142.041 69.272, 141.911 69.297, 138.565 68.025 C 137.154 67.488, 136 67.436, 136 67.908 C 136 68.746, 139.317 69.959, 141.683 69.986 C 142.333 69.994, 143.151 69.100, 143.500 68 C 143.909 66.711, 145.088 65.952, 146.817 65.864 L 149.500 65.728 147 65.268 C 145.625 65.015, 144.140 64.176, 143.700 63.404 C 142.648 61.557, 141.549 61.631, 139.872 63.664 M 144.427 75.670 C 144.780 76.591, 144.492 77.706, 143.784 78.155 C 142.912 78.708, 143.256 78.974, 144.857 78.985 C 146.598 78.996, 147.055 78.587, 146.607 77.418 C 146.273 76.548, 146 75.423, 146 74.918 C 146 74.413, 145.502 74, 144.893 74 C 144.270 74, 144.066 74.730, 144.427 75.670 M 137.629 83.750 C 137.266 88.013, 136.739 92.625, 136.457 94 C 135.954 96.451, 135.963 96.456, 136.951 94.219 C 138.031 91.774, 139.621 76, 138.788 76 C 138.513 76, 137.991 79.487, 137.629 83.750 M 99 80.840 C 99 82.090, 101.293 84.512, 104.144 86.274 C 106.713 87.861, 110.785 95.187, 114.830 105.500 C 115.909 108.250, 118.413 114.308, 120.396 118.962 C 122.378 123.617, 124 128.088, 124 128.898 C 124 129.708, 124.926 131.357, 126.058 132.562 L 128.116 134.753 124.308 133.979 C 115.061 132.101, 113.334 131.631, 110.587 130.247 C 105.968 127.921, 97 125.033, 97 125.871 C 97 126.291, 99.588 127.455, 102.750 128.457 C 107.438 129.942, 108.131 130.425, 106.500 131.069 C 104.817 131.734, 104.976 131.873, 107.500 131.945 C 109.150 131.992, 111.162 132.450, 111.972 132.962 C 113.802 134.119, 113.504 134.242, 102.500 136.887 C 98.100 137.944, 90 140.473, 84.500 142.506 C 79 144.540, 73.277 146.177, 71.783 146.144 C 68.644 146.076, 67.246 147.650, 68.946 149.337 C 69.840 150.223, 69.972 150.114, 69.501 148.878 C 69.006 147.577, 69.394 147.353, 71.457 147.747 C 74.600 148.348, 75.736 149.920, 73.878 151.096 C 72.835 151.757, 72.811 151.973, 73.781 151.985 C 75.554 152.006, 76.562 148.965, 75.085 148.053 C 72.898 146.701, 106.034 136.064, 112.583 136.015 C 113.729 136.007, 114.991 135.676, 115.387 135.280 C 116.152 134.514, 122.926 134.841, 124.338 135.711 C 125.206 136.245, 123.992 137.028, 115.474 141.422 C 112.710 142.849, 108.008 146.150, 105.027 148.758 C 102.045 151.366, 99.469 153.387, 99.303 153.250 C 98.269 152.396, 97.158 153.247, 97.646 154.519 C 98.130 155.780, 97.786 155.869, 95.614 155.043 C 92.238 153.760, 92.216 155.129, 95.588 156.694 C 97.938 157.784, 98.421 157.591, 101.178 154.450 C 102.838 152.560, 105.981 149.599, 108.163 147.871 C 111.347 145.349, 112.363 144.982, 113.315 146.011 C 114.233 147.005, 114.221 147.136, 113.261 146.595 C 112.430 146.126, 112.219 146.407, 112.618 147.448 C 113.468 149.661, 114.510 149.371, 115.788 146.566 C 116.490 145.025, 116.540 143.952, 115.923 143.641 C 115.388 143.371, 115.524 143.275, 116.225 143.428 C 116.926 143.581, 118.978 142.422, 120.785 140.853 C 124.881 137.295, 127 137.175, 127 140.500 C 127 141.907, 126.479 142.891, 125.809 142.750 C 125.155 142.613, 124.436 143.341, 124.213 144.368 C 123.959 145.538, 124.218 145.983, 124.904 145.559 C 126.673 144.466, 126.209 147.670, 122.918 159.289 C 121.223 165.273, 120.039 170.372, 120.287 170.620 C 120.535 170.868, 122.034 166.443, 123.619 160.786 L 126.500 150.500 127.041 165.500 L 127.582 180.500 127.796 168.500 C 127.914 161.900, 128.299 152.141, 128.652 146.813 L 129.293 137.126 133.397 136.430 C 135.654 136.047, 140.650 135.623, 144.500 135.489 C 148.350 135.354, 156.054 134.900, 161.620 134.479 C 168.818 133.935, 172.716 134.067, 175.120 134.936 C 179.973 136.691, 188.439 138.894, 188.830 138.503 C 189.013 138.320, 185.349 137.007, 180.687 135.585 C 171.804 132.876, 161.589 132.282, 151.746 133.902 C 149.132 134.332, 145.342 134.416, 143.325 134.088 C 139.862 133.525, 140.156 133.357, 148.578 131.090 C 164.071 126.918, 166.552 126.137, 164.500 126.073 C 163.400 126.039, 157.550 127.356, 151.500 129 C 145.450 130.644, 139.300 131.991, 137.833 131.994 C 136.367 131.997, 135.017 132.391, 134.833 132.868 C 134.650 133.345, 133.430 134.069, 132.122 134.476 L 129.744 135.216 131.622 132.640 C 132.655 131.222, 134.089 130.049, 134.809 130.031 C 135.529 130.014, 135.882 129.618, 135.593 129.151 C 134.993 128.180, 140.735 120, 142.017 120 C 142.481 120, 143.005 119.023, 143.180 117.828 C 143.356 116.634, 144.175 115.436, 145 115.166 C 146.317 114.735, 146.323 114.908, 145.053 116.587 C 144.256 117.639, 145.993 116.250, 148.911 113.500 C 152.936 109.708, 154.054 109.043, 153.541 110.750 C 153.013 112.508, 153.262 112.997, 154.683 112.985 C 157.368 112.962, 159.367 111.403, 158.503 110.005 C 157.913 109.050, 157.584 109.055, 156.984 110.025 C 156.451 110.889, 156.004 110.587, 155.509 109.027 C 154.818 106.852, 154.692 106.894, 150.899 110.598 C 148.755 112.692, 147 113.891, 147 113.262 C 147 112.633, 147.450 111.840, 148 111.500 C 149.466 110.594, 149.220 108, 147.669 108 C 146.937 108, 145.708 109.237, 144.939 110.750 C 141.019 118.456, 129 134.811, 129 132.440 C 129 131.868, 129.563 130.794, 130.250 130.053 C 131.250 128.976, 131.250 128.848, 130.250 129.412 C 129.406 129.889, 129.005 129.368, 129.015 127.809 C 129.028 125.927, 129.218 125.777, 130.046 127 C 130.789 128.099, 130.880 127.725, 130.385 125.601 C 129.905 123.544, 130.041 122.907, 130.854 123.410 C 131.637 123.894, 132.011 122.911, 132.035 120.309 C 132.054 118.214, 132.761 113.575, 133.606 110 C 135.350 102.617, 136.271 96.918, 135.434 98.694 C 135.124 99.350, 134.225 99.640, 133.435 99.337 C 132.497 98.977, 132 99.447, 132 100.693 C 132 102.568, 130.259 105, 128.917 105 C 128.541 105, 127.998 104.100, 127.710 103 C 127.423 101.900, 126.400 101, 125.439 101 C 123.799 101, 123.794 101.115, 125.369 102.855 C 126.293 103.876, 126.807 105.339, 126.512 106.107 C 126.217 106.876, 126.832 108.039, 127.879 108.692 C 129.504 109.707, 129.714 109.624, 129.321 108.120 C 128.864 106.370, 131.547 103.214, 132.599 104.266 C 133.644 105.311, 131.729 114.271, 130.116 115.884 C 129.227 116.773, 128.468 118.513, 128.429 119.750 C 128.231 125.964, 127.931 128, 127.210 128 C 126.776 128, 124.414 121.482, 121.960 113.515 C 119.507 105.549, 117.353 99.705, 117.174 100.529 C 116.995 101.353, 117.623 104.383, 118.570 107.263 C 121.223 115.333, 121.271 115.756, 119.104 112 C 117.994 110.075, 116.322 106.250, 115.388 103.500 C 114.453 100.750, 112.634 96.821, 111.345 94.770 C 110.055 92.718, 109 90.769, 109 90.438 C 109 90.107, 107.403 87.888, 105.452 85.507 C 102.076 81.387, 99 79.162, 99 80.840 M 158 95.994 C 156.667 96.888, 156.667 97.112, 158 98.006 C 160.104 99.416, 163.500 98.795, 163.500 97 C 163.500 95.205, 160.104 94.584, 158 95.994 M 159.500 97 C 159.160 97.550, 159.359 98, 159.941 98 C 160.523 98, 161 97.550, 161 97 C 161 96.450, 160.802 96, 160.559 96 C 160.316 96, 159.840 96.450, 159.500 97 M 110 101.378 C 110 101.585, 110.685 102.324, 111.523 103.019 C 112.796 104.076, 112.943 104.014, 112.416 102.641 C 111.878 101.240, 110 100.257, 110 101.378 M 175.512 106.750 C 175.696 107.713, 175.895 108.725, 175.954 109 C 176.013 109.275, 176.509 108.731, 177.057 107.792 C 177.665 106.749, 178.691 106.328, 179.690 106.711 C 180.786 107.132, 181.089 106.953, 180.605 106.170 C 180.207 105.526, 178.823 105, 177.529 105 C 175.828 105, 175.270 105.484, 175.512 106.750 M 107.637 110.696 C 106.586 111.748, 108.302 114, 110.155 114 C 111.222 114, 113.246 115.237, 114.651 116.750 C 116.710 118.967, 116.605 118.639, 114.107 115.059 C 111.274 110.999, 108.921 109.412, 107.637 110.696 M 167.981 112.631 C 165.516 113.808, 163.163 114.571, 162.752 114.328 C 161.416 113.536, 158.502 116.442, 158.433 118.634 C 158.373 120.535, 158.667 120.663, 161.122 119.808 C 162.759 119.237, 163.675 118.317, 163.378 117.542 C 162.683 115.732, 170.723 112, 175.316 112 C 177.342 112, 179 112.450, 179 113 C 179 113.550, 178.550 114, 178 114 C 177.450 114, 177 114.477, 177 115.059 C 177 115.641, 177.450 115.840, 178 115.500 C 178.550 115.160, 179 115.359, 179 115.941 C 179 116.523, 177.988 117.007, 176.750 117.015 C 175.512 117.024, 173.825 117.473, 173 118.014 C 171.944 118.706, 172.536 118.808, 175 118.358 C 179.658 117.507, 180.811 116.462, 180.262 113.589 C 179.615 110.208, 173.976 109.768, 167.981 112.631 M 154.991 118.511 C 153.986 119.722, 154.047 120, 155.319 120 C 157.185 120, 158.406 118.369, 157.130 117.580 C 156.633 117.273, 155.671 117.692, 154.991 118.511 M 79.322 119.382 C 75.872 120.596, 73.984 122, 75.802 122 C 76.426 122, 76.722 122.563, 76.458 123.250 C 76.128 124.109, 77.119 124.500, 79.627 124.500 C 82.863 124.500, 83.308 124.192, 83.567 121.766 C 83.934 118.341, 83.296 117.983, 79.322 119.382 M 79 121 C 77.707 121.835, 77.734 121.971, 79.191 121.985 C 80.121 121.993, 81.160 121.550, 81.500 121 C 82.282 119.734, 80.958 119.734, 79 121 M 84.500 121 C 84.160 121.550, 84.359 122, 84.941 122 C 85.523 122, 86 121.550, 86 121 C 86 120.450, 85.802 120, 85.559 120 C 85.316 120, 84.840 120.450, 84.500 121 M 87 120.809 C 87 122.698, 89.744 124.798, 93 125.401 L 96.500 126.050 93.188 123.025 C 90.040 120.149, 87 119.061, 87 120.809 M 116.032 120.667 C 116.085 122.087, 121.066 127.268, 121.734 126.599 C 122.082 126.252, 121.469 124.766, 120.372 123.297 C 118.349 120.586, 115.974 119.147, 116.032 120.667 M 150 120.706 C 149.175 121.008, 147.600 122.045, 146.500 123.012 C 145.400 123.978, 142.700 125.701, 140.500 126.840 C 138.300 127.980, 137.059 128.931, 137.743 128.956 C 138.427 128.980, 142.240 126.975, 146.217 124.500 C 152.837 120.381, 153.953 119.261, 150 120.706 M 194.532 137.899 C 194.165 139.055, 193.419 140, 192.874 140 C 192.328 140, 192.156 140.443, 192.491 140.985 C 192.825 141.526, 194.201 141.878, 195.548 141.767 C 197.509 141.604, 197.875 141.159, 197.386 139.532 C 196.412 136.292, 195.253 135.629, 194.532 137.899 M 133.510 138.016 C 133.856 138.575, 134.557 138.774, 135.069 138.457 C 136.456 137.600, 136.198 137, 134.441 137 C 133.584 137, 133.165 137.457, 133.510 138.016 M 82.250 139.265 C 81.013 139.837, 80 140.687, 80 141.153 C 80 142.284, 83.127 142.205, 84.992 141.026 C 87.332 139.546, 84.950 138.015, 82.250 139.265 M 131 138.882 C 131 139.432, 131.450 140.160, 132 140.500 C 132.550 140.840, 133 140.668, 133 140.118 C 133 139.568, 132.550 138.840, 132 138.500 C 131.450 138.160, 131 138.332, 131 138.882 M 139.500 139 C 139.840 139.550, 140.879 139.993, 141.809 139.985 C 143.266 139.971, 143.293 139.835, 142 139 C 140.042 137.734, 138.718 137.734, 139.500 139 M 150.557 140.092 C 151.101 140.972, 150.547 141.103, 148.475 140.583 C 145.992 139.960, 145.808 140.063, 146.948 141.437 C 147.661 142.297, 148.861 143, 149.614 143 C 150.367 143, 151.545 143.900, 152.232 145 C 153.704 147.357, 155.479 147.690, 154.618 145.448 C 154.291 144.594, 154.355 144.088, 154.761 144.323 C 155.168 144.558, 156.235 144.469, 157.134 144.125 C 158.354 143.658, 157.635 142.917, 154.292 141.196 C 151.830 139.929, 150.149 139.432, 150.557 140.092 M 184.151 142.500 C 184.461 144.278, 184.001 144.478, 180 144.301 C 177.208 144.177, 176.069 144.412, 177 144.920 C 178.750 145.875, 189 147.298, 189 146.586 C 189 146.320, 187.830 144.842, 186.401 143.302 C 184.188 140.917, 183.853 140.798, 184.151 142.500 M 140 145.659 C 140 146.847, 144.810 151.523, 145.413 150.921 C 145.644 150.689, 144.521 149.188, 142.917 147.583 C 141.313 145.979, 140 145.113, 140 145.659 M 119.733 147.124 C 120.412 147.808, 121.219 148.115, 121.526 147.807 C 121.834 147.499, 121.279 146.940, 120.293 146.564 C 118.868 146.022, 118.753 146.136, 119.733 147.124 M 163.804 148.122 C 165.758 150.345, 165.872 150.835, 164.554 151.341 C 163.699 151.669, 163 152.669, 163 153.564 C 163 154.459, 162.070 156.498, 160.933 158.095 C 158.482 161.537, 157.099 161.099, 150.924 154.924 C 148.766 152.766, 147 151.380, 147 151.845 C 147 152.310, 147.903 153.507, 149.006 154.506 C 150.110 155.504, 150.848 156.485, 150.647 156.686 C 149.964 157.370, 139.506 151.513, 137.821 149.503 C 136.402 147.810, 135.937 147.713, 134.821 148.875 C 133.781 149.957, 133.766 150.348, 134.750 150.708 C 135.438 150.960, 136 151.801, 136 152.576 C 136 153.351, 137.441 155.226, 139.201 156.742 C 140.962 158.259, 143.345 160.400, 144.497 161.500 C 145.649 162.600, 147.133 163.545, 147.795 163.600 C 150.676 163.839, 151.099 164.131, 152 166.500 C 152.582 168.031, 153.736 169, 154.975 169 C 157.679 169, 157.530 168.317, 154.220 165.532 C 152.691 164.245, 151.367 162.220, 151.277 161.031 L 151.115 158.870 154.614 160.935 C 156.539 162.071, 158.833 163, 159.712 163 C 161.128 163, 161.113 163.218, 159.575 164.917 C 158.215 166.420, 158.074 167.269, 158.920 168.851 C 160.545 171.886, 160.283 172.221, 156.875 171.473 C 154.702 170.995, 153.958 171.123, 154.434 171.893 C 154.810 172.502, 156.397 173, 157.959 173 C 160.524 173, 160.912 173.464, 161.945 177.771 C 162.575 180.395, 163.241 185.076, 163.425 188.173 C 163.610 191.270, 164.055 194.280, 164.414 194.861 C 164.773 195.442, 163.541 198.973, 161.676 202.709 C 158.882 208.305, 158.181 211.031, 157.695 218.198 C 157.370 222.983, 156.424 228.213, 155.592 229.822 C 154.760 231.430, 154.397 233.141, 154.785 233.623 C 155.173 234.105, 154.118 233.262, 152.440 231.750 C 148.740 228.413, 147.992 228.328, 148.027 231.250 C 148.061 234.157, 157.457 240.290, 160.484 239.381 C 163.774 238.393, 163.967 237.857, 165.140 226.442 C 166.597 212.275, 167.433 209.218, 170.979 205.092 L 173.909 201.685 178.527 205.469 C 181.068 207.550, 183.592 210.434, 184.137 211.877 C 184.681 213.320, 186.191 215.625, 187.491 217 C 190.724 220.420, 197 231.746, 197 234.162 C 197 239.643, 203.080 242.304, 205.768 238 C 206.455 236.900, 206.635 236, 206.169 236 C 205.703 236, 204.808 234.875, 204.182 233.500 C 203.370 231.718, 203.357 231, 204.136 231 C 204.805 231, 204.637 230.096, 203.707 228.675 C 202.869 227.396, 200.364 222.936, 198.140 218.763 C 193.863 210.737, 193.968 210, 199.386 210 C 203.379 210, 210.661 204.434, 214.481 198.461 C 218.820 191.679, 219.155 192.295, 206.007 182.896 C 201.086 179.378, 197.194 176.050, 197.358 175.500 C 197.853 173.840, 202.052 173.737, 203.832 175.342 C 208.179 179.258, 214 178.155, 214 173.416 C 214 171.463, 213.145 170.824, 208.818 169.539 C 205.969 168.692, 202.706 167.990, 201.568 167.978 C 198.511 167.946, 191.993 164.745, 186.599 160.628 C 181.570 156.789, 177.809 156.078, 174.473 158.334 C 173.388 159.067, 171.707 159.955, 170.738 160.307 C 169.090 160.905, 169.077 160.751, 170.540 157.923 C 172.418 154.290, 171.694 151.343, 168.699 150.436 C 167.489 150.070, 165.375 148.809, 164 147.635 L 161.500 145.500 163.804 148.122 M 164.404 155.526 C 164.055 156.916, 162.883 158.527, 161.799 159.107 C 158.843 160.690, 160.500 161.450, 163.866 160.055 C 165.952 159.191, 166.920 158, 167.225 155.921 C 167.767 152.230, 165.317 151.887, 164.404 155.526 M 138 154.430 C 138 154.705, 138.900 155.411, 140 156 C 141.100 156.589, 142 156.845, 142 156.570 C 142 156.295, 141.100 155.589, 140 155 C 138.900 154.411, 138 154.155, 138 154.430 M 116.667 156.667 C 116.300 157.033, 116 158.379, 116 159.657 C 116 161.849, 116.108 161.888, 117.912 160.343 C 118.964 159.443, 119.591 158.097, 119.305 157.353 C 118.741 155.882, 117.717 155.616, 116.667 156.667 M 144.988 157.977 C 146.131 160.113, 149.842 162.492, 150.697 161.636 C 151.323 161.010, 146.099 156, 144.819 156 C 144.330 156, 144.406 156.890, 144.988 157.977 M 105.682 159.652 C 104.412 160.922, 104.991 164, 106.500 164 C 107.325 164, 107.993 163.438, 107.985 162.750 C 107.962 160.888, 106.463 158.871, 105.682 159.652 M 175.963 164.678 C 173.907 174.583, 175.615 179.551, 183.249 185.874 C 184.921 187.258, 186.710 187.942, 187.684 187.568 C 189.094 187.027, 188.969 186.569, 186.773 184.220 C 182.424 179.571, 180.689 174.958, 180.203 166.750 C 179.636 157.203, 177.710 156.261, 175.963 164.678 M 182.424 162.447 C 181.540 165.970, 182.532 168, 185.140 168 C 186.351 168, 188.213 168.787, 189.276 169.750 C 191.181 171.474, 200.369 172.407, 199.360 170.774 C 199.097 170.348, 199.471 169.986, 200.191 169.970 C 202.432 169.918, 198.852 168.320, 194.913 167.613 C 192.940 167.260, 189.467 165.379, 187.195 163.434 L 183.064 159.899 182.424 162.447 M 172.490 163.016 C 172.144 163.575, 171.443 163.774, 170.931 163.457 C 170.419 163.141, 170 163.347, 170 163.915 C 170 164.484, 168.650 165.647, 167 166.500 C 163.172 168.480, 163.047 171.938, 166.553 178.918 C 169.233 184.255, 170.318 184.832, 173.350 182.535 C 174.992 181.291, 175.062 180.717, 173.974 177.421 C 173.257 175.248, 172.969 171.280, 173.280 167.854 C 173.811 161.996, 173.666 161.113, 172.490 163.016 M 114.285 165.273 C 113.527 166.938, 113.437 168.152, 114.045 168.528 C 115.225 169.257, 116.294 166.768, 115.832 164.367 C 115.566 162.984, 115.242 163.174, 114.285 165.273 M 161.386 164.765 C 160.764 165.176, 160.578 166.353, 160.964 167.434 C 161.656 169.371, 162.152 169.016, 163.314 165.750 C 163.970 163.907, 163.247 163.538, 161.386 164.765 M 182 171.011 C 182 175.297, 186.181 180.812, 197.450 191.393 L 209.741 202.935 212.965 197.749 L 216.189 192.563 213.345 190.268 C 208.966 186.735, 185.722 171.336, 183.750 170.661 C 182.787 170.332, 182 170.490, 182 171.011 M 202 170.955 C 202 171.530, 202.654 172, 203.453 172 C 205.791 172, 209.985 174.215, 209.410 175.146 C 209.119 175.616, 209.584 176, 210.441 176 C 212.325 176, 212.429 174.924, 210.750 172.803 C 209.264 170.924, 202 169.390, 202 170.955 M 146 171.786 C 146 172.389, 146.450 173.160, 147 173.500 C 147.550 173.840, 148 175.216, 148 176.559 C 148 177.902, 148.450 179, 149 179 C 150.775 179, 150.062 174.366, 148 172.500 C 146.900 171.505, 146 171.183, 146 171.786 M 196 173 C 195.099 173.582, 194.975 173.975, 195.691 173.985 C 196.346 173.993, 197.160 173.550, 197.500 173 C 198.267 171.758, 197.921 171.758, 196 173 M 120.086 177.500 C 120.190 179.394, 121.856 182.584, 121.914 181 C 121.945 180.175, 121.533 178.825, 121 178 C 120.467 177.175, 120.055 176.950, 120.086 177.500 M 164.031 179.500 C 164.031 180.050, 164.467 181.175, 165 182 C 165.533 182.825, 165.969 183.050, 165.969 182.500 C 165.969 181.950, 165.533 180.825, 165 180 C 164.467 179.175, 164.031 178.950, 164.031 179.500 M 112.898 185.422 C 111.305 190.857, 111.644 200.840, 113.280 196.671 C 113.675 195.664, 113.731 193.777, 113.405 192.477 C 113.079 191.177, 113.192 189.526, 113.656 188.807 C 114.208 187.952, 114.673 189.054, 115 191.991 C 115.391 195.501, 115.937 196.550, 117.500 196.795 C 119.136 197.051, 119.227 196.924, 118 196.100 C 117.071 195.475, 116.119 192.212, 115.500 187.525 L 114.500 179.959 112.898 185.422 M 121.128 187.405 C 120.508 189.869, 120.042 193.149, 120.094 194.693 C 120.146 196.237, 120.808 194.375, 121.567 190.556 C 123.128 182.694, 122.838 180.614, 121.128 187.405 M 125.474 189.250 C 124.290 198.683, 125.039 201.851, 128.008 199.974 C 129.274 199.173, 129.235 199.028, 127.750 199.015 C 125.368 198.994, 125.535 196.319, 128 195 C 130.617 193.600, 130.717 190.638, 128.120 191.462 C 126.422 192.001, 126.289 191.619, 126.750 187.529 C 127.030 185.038, 127.035 183, 126.759 183 C 126.484 183, 125.905 185.813, 125.474 189.250 M 171.843 186 C 170.116 187.650, 169.172 189, 169.745 189 C 170.317 189, 168.425 193.711, 165.539 199.468 C 160.750 209.021, 160.232 210.726, 159.609 218.983 C 159.233 223.958, 158.641 228.772, 158.293 229.679 C 157.867 230.790, 158.044 231.091, 158.839 230.600 C 159.554 230.157, 160.333 230.727, 160.823 232.052 C 161.494 233.863, 161.822 233.325, 162.768 228.866 C 164.674 219.887, 165.380 210, 164.116 210 C 162.118 210, 162.940 208.234, 165.250 207.567 C 166.488 207.209, 169.682 204.199, 172.349 200.878 C 175.015 197.558, 178.872 193.648, 180.919 192.191 L 184.640 189.541 180.726 186.271 C 178.572 184.472, 176.399 183, 175.896 183 C 175.393 183, 173.569 184.350, 171.843 186 M 189 188.566 C 189 188.877, 189.476 190.021, 190.058 191.108 C 190.918 192.715, 190.690 193.431, 188.840 194.928 C 186.979 196.435, 186.789 197.041, 187.798 198.257 C 188.476 199.074, 189.704 202.007, 190.526 204.775 C 192.014 209.786, 192.034 209.803, 195.260 208.945 C 197.042 208.472, 199.625 207.860, 201 207.585 C 202.375 207.311, 204.400 206.417, 205.500 205.599 C 207.427 204.166, 207.209 203.818, 199.523 196.056 C 192.616 189.080, 189 186.506, 189 188.566 M 182.762 192.840 C 181.255 193.752, 179.793 195.098, 179.511 195.833 C 178.934 197.336, 188.713 217, 190.038 217 C 190.507 217, 192.531 220.120, 194.535 223.934 C 197.027 228.678, 198.624 230.698, 199.589 230.327 C 200.365 230.030, 201 229.315, 201 228.739 C 201 227.375, 194.190 215.041, 192.120 212.656 C 191.240 211.641, 189.345 207.591, 187.910 203.656 C 186.474 199.720, 184.951 195.690, 184.524 194.699 C 183.845 193.125, 184.109 192.989, 186.624 193.615 C 189.223 194.263, 189.368 194.172, 188.128 192.666 C 186.501 190.691, 186.302 190.698, 182.762 192.840 M 176 199.845 C 176 200.310, 176.900 201.505, 178 202.500 C 180.250 204.536, 180.636 203.422, 178.608 200.750 C 177.187 198.878, 176 198.466, 176 199.845 M 119.443 203.821 C 118.091 204.794, 117.717 208, 118.956 208 C 119.530 208, 120.067 209.463, 120.150 211.250 L 120.300 214.500 120.740 211.503 C 120.982 209.855, 121.505 208.280, 121.902 208.003 C 122.299 207.726, 122.120 206.520, 121.505 205.321 C 120.890 204.123, 119.962 203.448, 119.443 203.821 M 157 232.833 C 157 233.292, 157.655 233.667, 158.456 233.667 C 159.257 233.667, 159.680 233.292, 159.397 232.833 C 159.114 232.375, 158.459 232, 157.941 232 C 157.423 232, 157 232.375, 157 232.833 M 198.473 234.044 C 197.666 235.349, 199.777 238, 201.622 238 C 203.120 238, 203.336 237.040, 202.393 234.582 C 201.705 232.788, 199.441 232.477, 198.473 234.044" stroke="none" fill="#212121" fill-rule="evenodd" fill-opacity="1"/>
</svg>