<svg xmlns="http://www.w3.org/2000/svg" width="1024" height="1024" viewBox="0 0 256 256" version="1.1" class="injected-svg" data-src="https://storage.googleapis.com/illustroke-c1d67.appspot.com/sKvoQfSqEHPmlLobzx5EfRxGct22/w14tr1tus2xwsqlhbhiw-2.svg" xmlns:xlink="http://www.w3.org/1999/xlink"><rect width="1024" height="1024" fill="white"/>
	<path d="M 109.321 79.189 C 106.182 80.706, 104.422 85.436, 105.839 88.545 C 106.574 90.159, 106.606 91, 105.933 91 C 105.370 91, 103.812 92.097, 102.470 93.439 L 100.031 95.878 97.093 92.939 C 94.820 90.667, 93.246 90, 90.154 90 C 85.789 90, 80.632 93.433, 79.463 97.117 C 78.844 99.067, 78.742 99.077, 76.860 97.373 C 73.776 94.582, 68.206 95.059, 65.370 98.356 C 64.067 99.871, 63 101.732, 63 102.491 C 63 105.619, 65.131 109.098, 67.730 110.215 C 69.253 110.869, 70.623 111.474, 70.774 111.559 C 70.924 111.644, 70.777 112.418, 70.447 113.278 C 69.920 114.651, 69.428 114.595, 66.407 112.813 C 61.878 110.140, 57.025 110.993, 53.600 115.063 C 51.094 118.041, 49.287 124.037, 50.367 125.785 C 50.693 126.313, 48.892 126.504, 46.109 126.236 C 41.870 125.829, 40.897 126.120, 38.081 128.636 C 35.756 130.714, 34.721 132.659, 34.310 135.722 C 33.795 139.567, 34.060 140.260, 37.272 143.472 C 40.096 146.296, 41.574 147, 44.677 147 C 46.810 147, 49.603 146.266, 50.883 145.369 C 53.725 143.379, 56.306 137.541, 55.487 134.959 C 54.940 133.236, 55.165 133.162, 57.960 134.136 C 59.652 134.726, 62.221 134.910, 63.670 134.547 C 67.515 133.582, 72 128.366, 72 124.859 C 72 122.273, 72.227 122.051, 73.934 122.965 C 80.057 126.242, 87.400 122.156, 87.400 115.473 C 87.400 112.494, 87.735 112, 89.750 112 C 92.923 112, 97.704 109.422, 98.991 107.017 C 100.034 105.067, 100.063 105.068, 103.271 107.023 C 107.127 109.375, 109.161 109.485, 112.909 107.547 C 116.804 105.533, 118.704 100.703, 117.185 96.678 C 116.283 94.289, 116.300 93.431, 117.262 92.832 C 118.131 92.291, 118.686 93.153, 119.124 95.723 C 120.016 100.961, 124.802 105, 130.116 105 C 135.443 105, 141 99.915, 141 95.041 C 141 93.051, 141.396 92.127, 142.071 92.544 C 142.722 92.946, 142.889 94.697, 142.498 97.012 C 141.770 101.318, 143.783 106.278, 146.945 107.970 C 150.320 109.777, 156.789 109.211, 159.092 106.908 L 161.183 104.817 162.652 106.914 C 164.364 109.358, 169.091 112, 171.750 112 C 173.210 112, 173.600 112.765, 173.600 115.630 C 173.600 122.387, 182.056 126.451, 187.777 122.443 C 189.904 120.954, 190 120.999, 190 123.493 C 190 130.344, 195.137 134.583, 202.440 133.760 C 206.932 133.253, 207 133.289, 207 136.172 C 207 140.236, 209.358 144.386, 212.472 145.805 C 222.406 150.332, 231.552 140.770, 226.547 131.091 C 224.770 127.655, 220.233 125.637, 215.522 126.187 C 212.112 126.585, 212 126.492, 212 123.250 C 212 113.789, 202.611 108.891, 194.250 113.989 L 191 115.971 191 113.485 C 191 112.088, 191.580 111, 192.326 111 C 193.055 111, 194.630 109.958, 195.826 108.686 C 199.863 104.388, 197.904 96.946, 192.370 95.557 C 189.598 94.861, 184 96.577, 184 98.121 C 184 100.077, 182.174 98.830, 181.582 96.469 C 180.820 93.434, 175.585 90.009, 171.700 90.004 C 168.455 89.999, 163.392 92.381, 162.716 94.229 C 162.391 95.119, 161.607 94.830, 160.098 93.262 C 158.914 92.031, 156.867 90.754, 155.550 90.423 C 153.468 89.901, 153.225 89.385, 153.696 86.484 C 154.131 83.805, 153.731 82.640, 151.664 80.573 C 147.768 76.677, 141.370 77.698, 139.149 82.571 C 138.140 84.787, 137.918 84.839, 135.289 83.467 C 131.572 81.528, 126.990 81.618, 124.035 83.688 C 122.065 85.068, 121.541 85.124, 121.165 83.995 C 120.294 81.383, 116.088 78, 113.795 78.068 C 112.533 78.105, 110.520 78.609, 109.321 79.189 M 110.571 83.571 C 108.540 85.603, 108.591 86.320, 110.917 88.425 C 114.513 91.679, 119.231 86.631, 115.800 83.200 C 114.170 81.570, 112.450 81.692, 110.571 83.571 M 143.468 84.035 C 141.676 86.015, 141.681 86.125, 143.630 88.074 C 145.924 90.369, 148.606 89.818, 149.545 86.860 C 150.215 84.748, 148.512 82, 146.533 82 C 145.860 82, 144.481 82.916, 143.468 84.035 M 125.174 88.314 C 120.723 93.053, 123.637 101, 129.826 101 C 133.381 101, 137 97.287, 137 93.640 C 137 90.260, 132.941 86, 129.720 86 C 128.416 86, 126.370 87.042, 125.174 88.314 M 85.116 96.580 C 82.351 100.094, 82.444 102.535, 85.455 105.545 C 89.385 109.476, 93.759 108.411, 96.011 102.975 C 97.146 100.232, 97.064 99.561, 95.299 97.186 C 92.441 93.342, 87.877 93.070, 85.116 96.580 M 147.443 96.447 C 145.049 100.100, 147.289 104.382, 151.822 104.818 C 155.912 105.212, 158 103.594, 158 100.033 C 158 94.315, 150.507 91.770, 147.443 96.447 M 167 96 C 164.297 98.703, 164.482 102.572, 167.455 105.545 C 170.183 108.273, 170.793 108.409, 174.312 107.071 C 177.184 105.979, 179.066 101.410, 177.919 98.310 C 176.295 93.920, 170.340 92.660, 167 96 M 105.750 96.080 C 103.216 97.556, 103.456 102.638, 106.126 104.068 C 110.714 106.523, 115.318 101.327, 112.333 97.065 C 110.761 94.821, 108.494 94.482, 105.750 96.080 M 68.410 101.375 C 67.211 104.498, 68.424 106.500, 71.514 106.500 C 74.165 106.500, 74.500 106.164, 74.500 103.500 C 74.500 100.969, 74.069 100.450, 71.744 100.183 C 69.986 99.981, 68.779 100.412, 68.410 101.375 M 186.485 102.048 C 185.137 106.296, 190.917 108.700, 193.307 104.886 C 194.923 102.306, 193.409 100, 190.099 100 C 187.990 100, 186.947 100.591, 186.485 102.048 M 79 105 C 79 105.550, 79.477 106, 80.059 106 C 80.641 106, 80.840 105.550, 80.500 105 C 80.160 104.450, 79.684 104, 79.441 104 C 79.198 104, 79 104.450, 79 105 M 75.200 112.200 C 73.558 113.842, 73.690 117.498, 75.445 118.954 C 77.463 120.629, 81.015 119.887, 82.622 117.454 C 85.321 113.367, 78.711 108.689, 75.200 112.200 M 178.571 112.571 C 176.619 114.524, 176.618 115.009, 178.557 117.777 C 181.286 121.674, 187 120.133, 187 115.500 C 187 111.222, 181.747 109.396, 178.571 112.571 M 59.543 115.931 C 59.226 116.443, 59.425 117.144, 59.984 117.490 C 61.177 118.227, 63 117.291, 63 115.941 C 63 114.724, 60.293 114.716, 59.543 115.931 M 196.223 117.557 C 193.098 119.746, 193.098 126.254, 196.223 128.443 C 201.618 132.222, 208 129.152, 208 122.777 C 208 117.076, 201.207 114.065, 196.223 117.557 M 136 143 L 136 169 182 169 C 227.333 169, 228 168.971, 228 167 C 228 165.030, 227.333 165, 183.500 165 L 139 165 139 141 C 139 120.333, 138.792 117, 137.500 117 C 136.205 117, 136 120.556, 136 143 M 55 123 C 55 124.289, 55.506 124.998, 56.250 124.750 C 56.938 124.521, 57.500 123.733, 57.500 123 C 57.500 122.267, 56.938 121.479, 56.250 121.250 C 55.506 121.002, 55 121.711, 55 123 M 65.500 122 C 64.771 123.180, 65.717 125, 67.059 125 C 67.577 125, 68 124.100, 68 123 C 68 120.891, 66.545 120.309, 65.500 122 M 59.496 129.007 C 59.153 129.561, 59.596 130.292, 60.480 130.631 C 62.394 131.365, 63.461 130.556, 62.541 129.067 C 61.711 127.723, 60.306 127.696, 59.496 129.007 M 40.073 132.635 C 38.933 134.084, 38 135.823, 38 136.500 C 38 138.777, 42.126 143, 44.350 143 C 48.183 143, 51 140.246, 51 136.500 C 51 130.298, 43.889 127.783, 40.073 132.635 M 213 132 C 211.900 133.100, 211 135.125, 211 136.500 C 211 137.875, 211.900 139.900, 213 141 C 214.100 142.100, 216.125 143, 217.500 143 C 218.875 143, 220.900 142.100, 222 141 C 223.100 139.900, 224 137.875, 224 136.500 C 224 135.125, 223.100 133.100, 222 132 C 220.900 130.900, 218.875 130, 217.500 130 C 216.125 130, 214.100 130.900, 213 132 M 33 167 C 33 168.961, 33.667 169, 67 169 C 100.333 169, 101 168.961, 101 167 C 101 165.039, 100.333 165, 67 165 C 33.667 165, 33 165.039, 33 167" stroke="none" fill="#212121" fill-rule="evenodd" fill-opacity="1"/>
</svg>