<svg xmlns="http://www.w3.org/2000/svg" width="1024" height="1024" viewBox="0 0 256 256" version="1.1" class="injected-svg" data-src="https://storage.googleapis.com/illustroke-c1d67.appspot.com/sKvoQfSqEHPmlLobzx5EfRxGct22/tz3l9dibs8o3nx0sijf7w-1.svg" xmlns:xlink="http://www.w3.org/1999/xlink"><rect width="1024" height="1024" fill="white"/>
	<path d="M 180.959 94.289 C 168.698 98.003, 156.597 105.677, 139 120.899 C 134.875 124.467, 130.783 127.980, 129.906 128.707 C 128.530 129.847, 127.232 129.119, 120.406 123.382 C 96.155 103, 71.917 93.037, 53.713 95.969 C 31.629 99.525, 16.864 122.345, 22.061 144.888 C 24.444 155.229, 31.733 165.608, 39.500 169.722 C 47.661 174.046, 61.762 175.225, 72.540 172.485 C 85.241 169.256, 100.622 160.045, 117.041 145.833 C 121.701 141.800, 126.236 137.934, 127.119 137.242 C 128.480 136.176, 129.699 136.770, 135.112 141.137 C 151.943 154.715, 171.849 165.493, 184.809 168.042 C 205.692 172.151, 223.729 163.690, 232.537 145.653 C 236.793 136.938, 237.592 130.609, 235.623 121.224 C 232.915 108.314, 226.515 99.687, 216 94.772 C 208.955 91.480, 191.050 91.233, 180.959 94.289 M 183.679 98.032 C 175.706 100.370, 170.760 102.768, 162.500 108.301 C 154.982 113.337, 139.476 125.818, 135.500 130.033 L 132.500 133.214 136.331 136.357 C 144.511 143.067, 157.835 152.149, 165 155.899 C 177.595 162.491, 184.131 164.302, 195.552 164.363 C 204.665 164.412, 206.113 164.154, 211.052 161.609 C 218.271 157.887, 224.143 152.060, 228.191 144.600 C 231.282 138.902, 231.499 137.874, 231.482 129 C 231.467 120.897, 231.082 118.681, 228.871 113.933 C 225.758 107.248, 220.122 101.483, 214 98.721 C 207.343 95.718, 192.707 95.385, 183.679 98.032 M 51 100.708 C 41.403 104.230, 32.882 111.538, 28.869 119.688 C 26.811 123.868, 26.500 125.946, 26.503 135.500 C 26.506 145.498, 26.759 147.016, 29.284 152.161 C 32.486 158.689, 38.254 164.306, 44.878 167.349 C 48.649 169.081, 51.341 169.462, 59.500 169.415 C 68.299 169.364, 70.468 168.976, 77.554 166.182 C 81.984 164.435, 88.124 161.491, 91.200 159.639 C 97.820 155.652, 111.285 145.214, 119 138.089 L 124.500 133.009 120.500 129.407 C 106.541 116.836, 85.971 104.609, 73.540 101.494 C 67.792 100.053, 54.087 99.576, 51 100.708" stroke="none" fill="#212121" fill-rule="evenodd" fill-opacity="1"/>
</svg>