<svg xmlns="http://www.w3.org/2000/svg" width="1024" height="1024" viewBox="0 0 256 256" version="1.1" class="injected-svg" data-src="https://storage.googleapis.com/illustroke-c1d67.appspot.com/sKvoQfSqEHPmlLobzx5EfRxGct22/6jpqc2fwdo63wrgiiit2vr-1.svg" xmlns:xlink="http://www.w3.org/1999/xlink"><rect width="1024" height="1024" fill="white"/>
	<path d="M 161.500 25.094 C 145.260 28.355, 129.404 35.355, 116.500 44.963 C 112.100 48.239, 107.521 51.643, 106.324 52.526 C 104.295 54.025, 103.584 53.948, 95.824 51.399 C 88.444 48.974, 85.970 48.661, 74 48.636 C 61.981 48.612, 59.614 48.903, 52.422 51.294 C 37.671 56.196, 26.041 65.652, 19.600 77.979 C 11.463 93.552, 10.770 107.867, 17.458 122.213 C 20.592 128.936, 22.529 131.778, 27.842 137.446 L 32.125 142.016 30.071 144.901 C 26.370 150.098, 22.075 160.274, 20.394 167.830 C 15.285 190.796, 24.012 214.636, 42.656 228.642 C 51.737 235.464, 57.675 238.305, 68.500 241.010 C 93.650 247.295, 119.387 237.793, 143.324 213.387 L 150.598 205.969 156.549 208.021 C 182.739 217.048, 212.952 207.434, 227.193 185.542 C 238.050 168.852, 237.522 147.278, 225.903 132.748 L 222.902 128.995 225.341 125.748 C 232.773 115.851, 237.295 101.650, 237.361 88 C 237.417 76.202, 235.957 69.860, 230.681 59 C 223.595 44.412, 209.971 32.953, 193.054 27.350 C 184.444 24.499, 169.713 23.446, 161.500 25.094 M 161.108 29.460 C 150.908 31.388, 137.321 36.450, 129.134 41.373 C 122.157 45.568, 109.069 55.089, 109.027 56 C 109.014 56.275, 110.915 57.709, 113.252 59.187 C 128.191 68.634, 138.915 84.134, 150.006 112.307 C 153.461 121.084, 154.565 122.984, 155.880 122.421 C 169.119 116.758, 174.584 115.533, 186.500 115.555 C 197.070 115.575, 199.292 115.891, 205.143 118.204 C 208.796 119.648, 213.647 122.061, 215.921 123.567 C 220.774 126.778, 220.599 126.905, 226.382 116 C 235.592 98.634, 235.959 78.523, 227.384 61.098 C 220.608 47.330, 205.854 35.235, 190.242 30.648 C 182.420 28.350, 169.720 27.832, 161.108 29.460 M 64 52.659 C 41.073 56.204, 24.864 69.872, 18.612 90.932 C 14.501 104.781, 18.616 120.708, 29.639 133.611 L 34.258 139.017 38.600 135.015 C 47.614 126.706, 59.168 120.960, 69.750 119.525 C 74.877 118.829, 75 118.735, 75 115.517 C 75 110.445, 77.880 96.128, 80.133 90 C 83.391 81.136, 88.071 73.034, 94.687 64.803 L 100.874 57.105 95.245 55.469 C 84.608 52.377, 72.732 51.309, 64 52.659 M 99.308 65.534 C 93.087 72.695, 87.746 81.506, 84.541 89.894 C 81.833 96.978, 79 110.016, 79 115.388 L 79 118.599 87.750 119.858 C 98.258 121.370, 107.227 125.403, 117.926 133.429 C 122.010 136.493, 125.742 139, 126.220 139 C 126.697 139, 132.283 135.993, 138.632 132.317 C 152.221 124.450, 151.793 126.505, 143.747 107.760 C 136.661 91.254, 130.739 81.098, 123.751 73.471 C 117.886 67.069, 108.381 60, 105.638 60 C 104.801 60, 101.952 62.490, 99.308 65.534 M 173.500 120.410 C 167.199 121.856, 156 126.424, 156 127.548 C 156 129.125, 164.087 145.267, 166.996 149.495 C 170.135 154.057, 170.272 154.130, 174.347 153.470 C 187.929 151.268, 203.779 143.151, 212.815 133.771 L 217.130 129.292 212.315 126.240 C 209.667 124.562, 205.250 122.420, 202.500 121.480 C 195.843 119.204, 181.123 118.661, 173.500 120.410 M 65.275 124.539 C 57.536 126.623, 49.098 131.207, 43.142 136.562 C 38.050 141.140, 37.928 141.371, 39.682 143.097 C 43.231 146.588, 53.578 152.087, 60.489 154.157 C 70.228 157.072, 82.841 157.027, 93.760 154.037 C 98.304 152.793, 102.226 151.443, 102.478 151.036 C 103.228 149.822, 93.606 136.124, 87.961 130.368 C 80.725 122.991, 75.760 121.715, 65.275 124.539 M 92.237 128.822 C 94.718 131.475, 98.927 136.987, 101.591 141.072 C 104.254 145.158, 106.569 148.696, 106.735 148.935 C 107.145 149.527, 121 142.774, 121 141.981 C 121 139.648, 105.688 129.546, 97.452 126.446 C 87.864 122.837, 87.005 123.229, 92.237 128.822 M 140.089 136.127 L 129.677 142.234 134.996 145.588 C 141.599 149.751, 150.560 152.786, 158.770 153.638 L 165.039 154.289 161.089 147.529 C 158.916 143.811, 156.155 138.345, 154.953 135.384 C 153.751 132.423, 152.257 130.004, 151.634 130.010 C 151.010 130.015, 145.815 132.768, 140.089 136.127 M 213.695 138.544 C 206.434 145.388, 195.111 152.082, 186.836 154.425 C 171.174 158.858, 172.791 157.810, 171.297 164.500 C 169.209 173.852, 165.320 183.169, 159.418 192.959 C 156.438 197.902, 154 202.141, 154 202.379 C 154 202.617, 156.137 203.581, 158.750 204.520 C 165.939 207.106, 183.829 207.644, 192 205.519 C 207.402 201.515, 220.217 191.410, 226.811 178.069 C 230.390 170.826, 230.500 170.275, 230.500 159.552 C 230.500 149.868, 230.207 147.943, 228.136 144 C 225.378 138.751, 221.203 132.984, 220.199 133.036 C 219.815 133.057, 216.888 135.535, 213.695 138.544 M 31.978 149.695 C 26.135 158.909, 23 170.163, 23 181.926 C 23 206.120, 40.055 228.019, 65.326 236.274 C 73.738 239.022, 91.905 239.212, 100.500 236.641 C 108.158 234.351, 119.426 228.319, 127.324 222.282 C 134.014 217.169, 146.026 205.569, 145.957 204.290 C 145.934 203.855, 142.774 201.348, 138.936 198.718 C 135.028 196.041, 129.543 190.980, 126.472 187.218 C 121.774 181.464, 106.703 158.478, 105.679 155.506 C 105.479 154.922, 102.684 155.438, 98.919 156.753 C 78.967 163.721, 58.452 161.069, 41.260 149.299 L 34.963 144.988 31.978 149.695 M 116.693 149.091 L 108.887 153.081 111.129 156.791 C 123.855 177.851, 126.146 181.095, 133.500 188.476 C 137.900 192.892, 143.224 197.404, 145.331 198.502 L 149.161 200.500 151.489 197.599 C 158.153 189.293, 166.002 172.090, 167.553 162.397 L 168.208 158.300 160.354 157.730 C 150.334 157.002, 141.264 154.140, 132.801 149.036 C 129.121 146.816, 125.747 145.022, 125.305 145.050 C 124.862 145.077, 120.987 146.896, 116.693 149.091" stroke="none" fill="#000000" fill-rule="evenodd" fill-opacity="1"/>
</svg>