<svg xmlns="http://www.w3.org/2000/svg" width="1024" height="1024" viewBox="0 0 256 256" version="1.1" class="injected-svg" data-src="https://storage.googleapis.com/illustroke-c1d67.appspot.com/sKvoQfSqEHPmlLobzx5EfRxGct22/tz3l9dibs8o3nx0sijf7w-0.svg" xmlns:xlink="http://www.w3.org/1999/xlink"><rect width="1024" height="1024" fill="white"/>
	<path d="M 60.250 20.750 C 81.013 20.901, 114.988 20.901, 135.750 20.750 C 156.513 20.599, 139.525 20.475, 98 20.475 C 56.475 20.475, 39.488 20.599, 60.250 20.750 M 19.183 22.217 C 18.297 23.103, 18.060 36.086, 18.240 73.950 L 18.481 124.500 18.750 74.591 C 18.940 39.242, 19.349 24.284, 20.152 23.317 C 21.593 21.581, 20.762 20.638, 19.183 22.217 M 207.750 21.749 L 235 22.032 235.212 45.766 L 235.423 69.500 235.962 47.500 C 236.258 35.400, 236.174 24.488, 235.775 23.250 L 235.050 21 207.775 21.233 L 180.500 21.466 207.750 21.749 M 235.252 73.500 C 235.263 75.700, 235.468 76.482, 235.707 75.238 C 235.946 73.994, 235.937 72.194, 235.687 71.238 C 235.437 70.282, 235.241 71.300, 235.252 73.500 M 182.409 92.321 C 179.609 93.663, 174.828 97.312, 171.783 100.430 L 166.248 106.100 161.706 103.034 C 155.242 98.672, 149.757 97, 141.909 97 C 128.602 97, 123.384 100.088, 102.203 120.493 L 88.927 133.283 80.713 125.285 C 71.445 116.259, 68.332 114.363, 60.360 112.889 C 45.282 110.102, 32.967 120.611, 33.022 136.217 C 33.074 151.033, 43.558 161.651, 59.253 162.783 C 68.311 163.435, 73.317 161.412, 82.533 153.375 C 86.553 149.869, 90.075 147, 90.359 147 C 90.644 147, 92.309 148.309, 94.060 149.908 C 98.771 154.211, 111.958 158.331, 118.249 157.466 C 128.427 156.066, 135.872 151.068, 151.813 134.934 L 166.500 120.069 176.277 128.961 C 182.187 134.336, 187.253 138.116, 189.087 138.519 C 191.875 139.131, 192.012 139.350, 190.774 141.213 C 188.986 143.907, 181.205 148, 177.872 148 C 176.386 148, 174.950 147.312, 174.615 146.439 C 174.081 145.048, 173.688 145.071, 171.008 146.654 C 167.267 148.864, 167.251 149.561, 170.903 151.450 C 173.455 152.769, 173.873 152.773, 174.371 151.475 C 174.686 150.655, 176.196 150, 177.772 150 C 181.728 150, 190.952 145.198, 192.182 142.499 C 193.042 140.613, 194.212 140.177, 199.562 139.747 C 212.547 138.705, 222.143 128.848, 222.143 116.550 C 222.143 109.791, 220.220 105.284, 214.826 99.406 C 209.383 93.473, 203.790 90.963, 194.667 90.358 C 188.525 89.950, 186.772 90.231, 182.409 92.321 M 235.232 95 C 235.232 96.925, 235.438 97.713, 235.689 96.750 C 235.941 95.787, 235.941 94.213, 235.689 93.250 C 235.438 92.287, 235.232 93.075, 235.232 95 M 181.441 94.555 C 179.577 96.049, 179.589 96.067, 181.750 95.020 C 182.988 94.420, 184 93.720, 184 93.465 C 184 92.700, 183.481 92.921, 181.441 94.555 M 186.921 94.367 C 182.454 95.964, 180.473 97.349, 174.031 103.375 C 170.150 107.004, 169.160 108.488, 169.967 109.461 C 170.798 110.462, 172.385 109.446, 177.124 104.881 C 185.752 96.568, 193.863 94.276, 203.110 97.539 C 210.945 100.303, 217.021 108.265, 216.978 115.710 C 216.954 119.935, 214.193 126.775, 211.669 128.863 C 210.763 129.613, 210.238 130.576, 210.502 131.004 C 211.213 132.154, 206.242 135.120, 201.049 136.646 L 196.500 137.982 201.268 137.612 C 209.559 136.968, 217.170 129.868, 219.946 120.187 C 221.174 115.905, 219.369 108.772, 215.666 103.275 C 209.740 94.476, 197.353 90.638, 186.921 94.367 M 176.872 97.750 C 175.629 99.336, 175.664 99.371, 177.250 98.128 C 178.213 97.373, 179 96.585, 179 96.378 C 179 95.555, 178.179 96.084, 176.872 97.750 M 190.813 98.683 C 191.534 98.972, 192.397 98.936, 192.729 98.604 C 193.061 98.272, 192.471 98.036, 191.417 98.079 C 190.252 98.127, 190.015 98.364, 190.813 98.683 M 199.813 98.683 C 200.534 98.972, 201.397 98.936, 201.729 98.604 C 202.061 98.272, 201.471 98.036, 200.417 98.079 C 199.252 98.127, 199.015 98.364, 199.813 98.683 M 129.518 101.092 C 126.974 102.058, 122.801 104.561, 120.245 106.656 C 113.404 112.261, 91 134.091, 91 135.151 C 91 135.653, 91.678 136.323, 92.506 136.641 C 93.515 137.028, 98.493 132.802, 107.565 123.859 C 125.985 105.702, 131.848 102, 142.181 102 C 147.682 102, 152.801 103.848, 157.745 107.619 C 160.979 110.086, 164.577 110.230, 163.787 107.861 C 163.579 107.236, 160.504 105.223, 156.954 103.390 C 151.510 100.577, 149.220 99.999, 142.322 99.695 C 136.249 99.428, 132.954 99.787, 129.518 101.092 M 235.286 103.500 C 235.294 106.250, 235.488 107.256, 235.718 105.736 C 235.947 104.216, 235.941 101.966, 235.704 100.736 C 235.467 99.506, 235.279 100.750, 235.286 103.500 M 186.500 102.916 C 183.750 104.510, 179.802 107.573, 177.726 109.723 L 173.953 113.633 182.474 121.275 C 193.312 130.996, 196.862 132.270, 203.683 128.888 C 212.758 124.389, 215.217 114.572, 209.159 107.032 C 203.182 99.593, 194.848 98.079, 186.500 102.916 M 206.890 101.793 C 208.205 102.853, 210.156 104.795, 211.227 106.110 C 212.298 107.424, 212.841 107.825, 212.435 107 C 211.229 104.552, 208.661 101.882, 206.511 100.840 C 204.984 100.100, 205.075 100.329, 206.890 101.793 M 137.500 104 C 134.889 104.664, 135.149 104.777, 139.500 104.866 C 143.065 104.940, 144.069 104.691, 143 104 C 142.175 103.467, 141.275 103.077, 141 103.134 C 140.725 103.190, 139.150 103.580, 137.500 104 M 179.405 105.250 L 177.500 107.500 179.750 105.595 C 180.988 104.547, 182 103.535, 182 103.345 C 182 102.545, 181.195 103.136, 179.405 105.250 M 80 106.500 C 80 107.722, 78.333 108, 71 108 C 63.096 108, 62 108.213, 61.998 109.750 C 61.997 111.340, 63.141 111.472, 74.498 111.193 C 84.340 110.951, 87 110.591, 87 109.500 C 87 107.950, 83.248 105, 81.277 105 C 80.575 105, 80 105.675, 80 106.500 M 131 106 C 130.175 106.533, 129.950 106.969, 130.500 106.969 C 131.050 106.969, 132.175 106.533, 133 106 C 133.825 105.467, 134.050 105.031, 133.500 105.031 C 132.950 105.031, 131.825 105.467, 131 106 M 133.176 108.150 C 128.941 109.777, 124.749 113.148, 112.676 124.638 C 104.329 132.582, 97.361 139.479, 97.192 139.964 C 97.023 140.450, 98.836 141.991, 101.221 143.389 C 107.187 146.885, 115.100 147.694, 122.446 145.559 C 127.785 144.007, 129.383 142.729, 143.737 128.534 L 159.256 113.187 155.079 110.550 C 146.794 105.320, 141.930 104.787, 133.176 108.150 M 67.750 109.662 C 68.438 109.940, 69.563 109.940, 70.250 109.662 C 70.938 109.385, 70.375 109.158, 69 109.158 C 67.625 109.158, 67.063 109.385, 67.750 109.662 M 123.872 110.750 C 122.629 112.336, 122.664 112.371, 124.250 111.128 C 125.916 109.821, 126.445 109, 125.622 109 C 125.415 109, 124.627 109.787, 123.872 110.750 M 214.069 111.682 C 214.654 113.221, 214.887 116.059, 214.586 117.990 C 214.113 121.026, 214.188 121.205, 215.143 119.316 C 216.333 116.962, 215.554 110.460, 213.964 109.478 C 213.406 109.133, 213.450 110.054, 214.069 111.682 M 235.165 170.809 C 235.056 212.135, 235.337 232.910, 236 232.500 C 237.156 231.785, 237.197 134.513, 236.047 118.500 C 235.639 112.814, 235.259 135.383, 235.165 170.809 M 166.120 111.355 C 165.249 112.405, 165.305 113.008, 166.355 113.880 C 167.405 114.751, 168.008 114.695, 168.880 113.645 C 169.751 112.595, 169.695 111.992, 168.645 111.120 C 167.595 110.249, 166.992 110.305, 166.120 111.355 M 49.759 115.379 C 44.210 117.425, 41.278 119.620, 38.547 123.774 C 30.480 136.047, 36.023 153.074, 49.877 158.580 C 53.699 160.098, 55.194 160.173, 61.657 159.168 C 65.728 158.535, 70.597 157.226, 72.476 156.259 C 77.473 153.686, 87.009 144.186, 86.341 142.446 C 86.036 141.651, 85.571 141, 85.308 141 C 85.045 141, 81.817 143.678, 78.134 146.951 C 66.051 157.690, 57.688 159.578, 48.020 153.750 C 36.208 146.629, 34.345 131.572, 44.131 122.311 C 49.898 116.853, 56.605 115.566, 63.782 118.541 C 65.827 119.388, 71.431 123.985, 76.235 128.756 C 82.689 135.164, 85.264 137.136, 86.092 136.308 C 86.921 135.479, 85.017 132.976, 78.806 126.722 C 74.182 122.066, 69.071 117.571, 67.448 116.732 C 62.993 114.428, 54.170 113.753, 49.759 115.379 M 170.985 116.076 C 169.783 116.873, 170.914 118.402, 176.908 124.091 C 186.094 132.807, 190.211 135, 197.395 135 C 202.993 135, 208.797 133.463, 207.625 132.291 C 207.266 131.932, 208.216 130.283, 209.736 128.625 L 212.500 125.612 209 128.467 C 207.075 130.037, 205.581 131.604, 205.679 131.949 C 205.778 132.294, 203.407 132.679, 200.411 132.804 C 193.788 133.082, 190.535 131.547, 183.029 124.609 C 172.889 115.235, 172.582 115.017, 170.985 116.076 M 146 131.328 C 137.475 139.739, 128.883 147.369, 126.906 148.283 C 117.718 152.533, 106.243 151.359, 98.389 145.364 C 95.816 143.399, 93.818 142.485, 93.439 143.098 C 92.397 144.784, 95.943 147.847, 102.905 151.274 C 108.087 153.825, 110.715 154.499, 115.478 154.500 C 119.665 154.500, 121.427 154.130, 121.262 153.286 C 121.120 152.564, 121.654 152.314, 122.579 152.669 C 126.209 154.062, 135.983 146.733, 151.876 130.702 C 162.631 119.854, 165.382 115.937, 162.191 116.017 C 161.811 116.027, 154.525 122.917, 146 131.328 M 50.804 122.776 C 40.308 127.671, 38.974 142.407, 48.391 149.433 C 57.183 155.993, 66.099 155.005, 75.759 146.399 C 79.192 143.342, 82 140.484, 82 140.049 C 82 138.682, 67.044 124.582, 63.696 122.792 C 59.610 120.608, 55.464 120.603, 50.804 122.776 M 183.226 132.579 C 184.176 133.570, 185.168 134.166, 185.431 133.903 C 185.694 133.640, 184.917 132.829, 183.705 132.100 C 181.598 130.835, 181.577 130.857, 183.226 132.579 M 19.252 138.500 C 19.263 140.700, 19.468 141.482, 19.707 140.238 C 19.946 138.994, 19.937 137.194, 19.687 136.238 C 19.437 135.282, 19.241 136.300, 19.252 138.500 M 192 137 C 192 137.550, 192.702 138, 193.559 138 C 194.416 138, 194.840 137.550, 194.500 137 C 194.160 136.450, 193.459 136, 192.941 136 C 192.423 136, 192 136.450, 192 137 M 87.110 138.367 C 86.246 139.409, 86.346 140.042, 87.530 141.025 C 89.441 142.611, 91.574 140.939, 90.664 138.567 C 89.923 136.637, 88.608 136.563, 87.110 138.367 M 19.328 151.500 C 19.333 155.350, 19.513 156.802, 19.730 154.728 C 19.946 152.653, 19.943 149.503, 19.722 147.728 C 19.501 145.952, 19.324 147.650, 19.328 151.500 M 42 146.313 C 42 146.485, 43.462 147.948, 45.250 149.563 L 48.500 152.500 45.563 149.250 C 42.825 146.221, 42 145.540, 42 146.313 M 107.813 148.683 C 108.534 148.972, 109.397 148.936, 109.729 148.604 C 110.061 148.272, 109.471 148.036, 108.417 148.079 C 107.252 148.127, 107.015 148.364, 107.813 148.683 M 119.813 148.683 C 120.534 148.972, 121.397 148.936, 121.729 148.604 C 122.061 148.272, 121.471 148.036, 120.417 148.079 C 119.252 148.127, 119.015 148.364, 119.813 148.683 M 19.079 162.583 C 19.127 163.748, 19.364 163.985, 19.683 163.188 C 19.972 162.466, 19.936 161.603, 19.604 161.271 C 19.272 160.939, 19.036 161.529, 19.079 162.583 M 18.078 214.699 C 18.146 227.342, 18.510 232.178, 19.449 232.958 C 20.323 233.683, 37.140 233.933, 72.613 233.750 L 124.500 233.482 72.250 233.241 L 20 233 19.985 216.750 C 19.976 207.701, 19.530 199.835, 18.977 199 C 18.302 197.980, 18.014 203.008, 18.078 214.699 M 145.250 234.728 C 147.313 234.944, 150.688 234.944, 152.750 234.728 C 154.813 234.513, 153.125 234.336, 149 234.336 C 144.875 234.336, 143.188 234.513, 145.250 234.728 M 161.750 234.737 C 164.637 234.939, 169.363 234.939, 172.250 234.737 C 175.137 234.535, 172.775 234.370, 167 234.370 C 161.225 234.370, 158.863 234.535, 161.750 234.737 M 231.813 234.683 C 232.534 234.972, 233.397 234.936, 233.729 234.604 C 234.061 234.272, 233.471 234.036, 232.417 234.079 C 231.252 234.127, 231.015 234.364, 231.813 234.683 M 194.302 235.746 C 199.693 235.926, 208.243 235.925, 213.302 235.744 C 218.361 235.563, 213.950 235.416, 203.500 235.417 C 193.050 235.418, 188.911 235.566, 194.302 235.746" stroke="none" fill="#212121" fill-rule="evenodd" fill-opacity="1"/>
</svg>