<svg xmlns="http://www.w3.org/2000/svg" width="1024" height="1024" viewBox="0 0 256 256" version="1.1" class="injected-svg" data-src="https://storage.googleapis.com/illustroke-c1d67.appspot.com/sKvoQfSqEHPmlLobzx5EfRxGct22/kpy8iup34laclc09cqqzbq-1.svg" xmlns:xlink="http://www.w3.org/1999/xlink"><rect width="1024" height="1024" fill="white"/>
	<path d="M 80.281 22.350 C 73.384 24.734, 72.195 25.692, 68.925 31.500 C 63.744 40.703, 63.500 41.479, 63.573 48.500 C 63.660 56.783, 65.421 60.809, 71.373 66.326 C 76.346 70.937, 79.210 72.520, 85.380 74.074 C 89.313 75.064, 90.338 75.012, 91.781 73.743 C 92.727 72.913, 95.987 71.071, 99.026 69.650 C 104.772 66.964, 110.560 62.063, 111.400 59.173 C 117.735 37.384, 116.963 30.581, 107.647 26.071 C 105.294 24.932, 102.588 24, 101.635 24 C 100.681 24, 98.616 23.336, 97.046 22.524 C 92.310 20.075, 87.021 20.020, 80.281 22.350 M 140.329 22.458 C 138.585 23.216, 136.672 24.744, 136.079 25.853 C 132.628 32.301, 137.452 41, 144.478 41 C 154.560 41, 157.605 26.888, 148.460 22.548 C 144.564 20.699, 144.376 20.697, 140.329 22.458 M 88.770 23.563 C 88.422 23.911, 88.380 24.827, 88.676 25.598 C 88.997 26.435, 88.579 27, 87.638 27 C 86.772 27, 86.279 26.438, 86.542 25.750 C 86.845 24.963, 86.128 24.500, 84.607 24.500 C 83.278 24.500, 82.400 24.837, 82.655 25.250 C 83.759 27.037, 81.732 28.017, 80.463 26.310 C 79.376 24.848, 78.770 24.722, 77.309 25.657 C 76.314 26.293, 75.603 27.278, 75.730 27.846 C 75.856 28.414, 75.035 29.171, 73.905 29.530 C 71.077 30.428, 65.241 42.913, 67.110 44.068 C 68.156 44.715, 68.076 45.259, 66.710 46.768 C 64.645 49.049, 64.604 50.699, 66.528 54 C 67.920 56.388, 67.957 56.298, 67.356 52 L 66.726 47.500 68.715 49.732 C 69.808 50.959, 71 51.752, 71.363 51.494 C 71.727 51.235, 71.387 51.746, 70.610 52.629 C 69.374 54.030, 69.594 54.994, 72.348 60.242 C 76.195 67.577, 80.166 70.787, 86.457 71.649 L 91.233 72.304 89.910 69.902 C 88.793 67.872, 88.531 67.771, 88.220 69.250 C 87.701 71.727, 86.518 71.439, 82.969 67.970 C 80.836 65.885, 80.003 64.247, 80.298 62.720 L 80.728 60.500 80.864 62.719 C 80.965 64.359, 81.436 64.770, 82.674 64.295 C 83.891 63.828, 84.189 64.066, 83.766 65.167 C 83.447 66, 83.533 67.245, 83.959 67.933 C 84.573 68.927, 85.183 68.909, 86.927 67.842 C 88.831 66.678, 89.294 66.732, 90.421 68.250 C 91.704 69.977, 95.021 70.705, 94.978 69.250 C 94.924 67.429, 91.281 64.124, 89 63.826 C 86.968 63.561, 86.439 62.864, 86.176 60.105 C 85.994 58.199, 86.381 56.383, 87.058 55.964 C 87.881 55.455, 87.588 55.004, 86.132 54.542 C 83.467 53.696, 83.340 52, 85.941 52 C 87.009 52, 88.160 51.550, 88.500 51 C 88.851 50.433, 88.010 50, 86.559 50 C 85.152 50, 84 50.505, 84 51.122 C 84 51.883, 83.502 51.832, 82.454 50.962 C 81.604 50.257, 81.181 48.964, 81.514 48.090 C 81.979 46.868, 81.844 46.772, 80.932 47.677 C 80.019 48.584, 80.222 49.623, 81.817 52.204 C 83.985 55.712, 84.140 59.120, 82.163 59.779 C 81.523 59.992, 81 59.406, 81 58.476 C 81 57.411, 80.464 56.992, 79.551 57.342 C 78.547 57.727, 78.286 57.418, 78.702 56.334 C 79.181 55.087, 78.815 54.904, 76.901 55.432 C 74.857 55.997, 74.763 55.931, 76.271 54.986 C 77.247 54.375, 77.722 53.360, 77.330 52.725 C 76.222 50.931, 75.849 45.092, 76.741 43.498 C 77.263 42.566, 77.555 43.369, 77.573 45.780 C 77.612 51.226, 78.828 55, 80.542 55 C 81.874 55, 81.872 54.734, 80.520 52.671 C 78.348 49.356, 78.867 45.239, 81.458 45.232 C 82.581 45.229, 84.445 44.915, 85.601 44.535 C 87.702 43.844, 90.316 45.548, 91.274 48.232 C 91.523 48.929, 92.090 49.161, 92.534 48.746 C 93.759 47.602, 88.947 43, 86.526 43 C 85.357 43, 83.899 43.501, 83.287 44.113 C 81.673 45.727, 79.572 44.221, 81.013 42.484 C 81.753 41.592, 83.323 41.340, 85.717 41.729 C 88.425 42.168, 89.122 42.007, 88.545 41.073 C 88.047 40.267, 88.850 40.388, 90.843 41.419 C 92.968 42.518, 94.226 44.152, 94.948 46.752 C 96.326 51.716, 96.292 52.058, 94.250 53.608 C 92.424 54.994, 93.632 55.522, 95.666 54.227 C 97.318 53.177, 97.658 42.497, 96.099 40.619 C 95.407 39.785, 93.248 38.577, 91.301 37.934 C 88.440 36.990, 87.597 37.028, 86.896 38.133 C 86.230 39.185, 86.027 39.067, 86.015 37.620 C 86.002 35.969, 86.575 35.805, 90.717 36.272 C 93.312 36.564, 95.599 37.298, 95.801 37.902 C 96.002 38.506, 96.735 39, 97.431 39 C 98.126 39, 99.227 40.013, 99.878 41.250 C 100.848 43.093, 100.965 43.138, 100.528 41.500 C 100.003 39.529, 100.017 39.528, 101.498 41.441 C 103.275 43.737, 103.476 45.413, 101.855 44.410 C 101.061 43.920, 100.870 44.539, 101.231 46.430 C 101.561 48.153, 101.274 49.341, 100.454 49.656 C 99.739 49.930, 98.890 50.845, 98.566 51.689 C 98.162 52.741, 98.431 53.048, 99.424 52.668 C 100.220 52.362, 101.012 52.469, 101.185 52.904 C 101.358 53.339, 103.446 54, 105.824 54.371 C 108.677 54.817, 109.932 54.699, 109.515 54.024 C 109.167 53.461, 109.584 53, 110.441 53 C 111.298 53, 111.916 52.663, 111.812 52.250 C 111.709 51.837, 111.988 49.501, 112.433 47.057 C 113.147 43.131, 112.981 42.403, 111.010 40.807 C 109.275 39.402, 109.137 39, 110.389 39 C 111.512 39, 112 38.092, 112 36 C 112 33.704, 111.548 33, 110.071 33 C 109.011 33, 107.538 32.438, 106.798 31.750 C 106.058 31.063, 104.792 30.351, 103.986 30.170 C 103.179 29.988, 102.243 29.393, 101.906 28.848 C 100.683 26.868, 95.695 27.155, 93.954 29.305 C 92.321 31.322, 92.281 31.274, 92.389 27.456 C 92.468 24.653, 92.059 23.450, 90.951 23.234 C 90.099 23.067, 89.118 23.215, 88.770 23.563 M 139.223 25.557 C 136.553 27.426, 136.454 29.090, 138.707 34.197 C 139.781 36.631, 141.282 38.284, 142.754 38.653 C 146.296 39.542, 146.566 38.344, 143.214 36.611 C 138.172 34.003, 137.859 29.484, 142.546 26.975 C 144.710 25.817, 145.280 25.852, 146.655 27.226 C 148.116 28.687, 147.966 28.809, 144.875 28.661 C 142.054 28.526, 141.446 28.879, 141.173 30.805 C 140.743 33.840, 142.777 36.205, 145.166 35.447 C 146.354 35.070, 146.949 35.293, 146.775 36.050 C 146.237 38.400, 148.900 38.082, 150.525 35.603 C 155.119 28.590, 146.204 20.666, 139.223 25.557 M 77.229 32.188 C 77.447 32.841, 78.160 33.553, 78.813 33.771 C 79.544 34.015, 79.767 33.557, 79.394 32.584 C 78.696 30.766, 76.629 30.388, 77.229 32.188 M 101.165 34.324 C 99.964 35.602, 99.282 36.949, 99.649 37.316 C 100.573 38.240, 103 36.069, 103 34.319 C 103 33.528, 103.450 33.160, 104 33.500 C 104.550 33.840, 105 33.641, 105 33.059 C 105 31.342, 103.502 31.837, 101.165 34.324 M 108 36.031 C 108 36.564, 108.675 37, 109.500 37 C 110.325 37, 111 36.823, 111 36.607 C 111 36.391, 110.325 35.955, 109.500 35.638 C 108.675 35.322, 108 35.499, 108 36.031 M 179.678 37.750 C 178.183 39.245, 177.797 39.289, 177.033 38.052 C 176.343 36.937, 175.968 37.279, 175.400 39.542 C 174.994 41.158, 174.064 43.079, 173.331 43.812 C 171.919 45.224, 171.828 45.964, 171.532 58.500 C 171.274 69.454, 173.393 74.191, 179.835 77.057 C 190.395 81.756, 198.438 79.983, 201.671 72.244 C 202.524 70.203, 204.080 67.932, 205.128 67.198 C 206.859 65.985, 206.855 63.354, 205.123 64.424 C 204.717 64.675, 204.385 62.766, 204.385 60.183 C 204.385 54.931, 200.391 45.656, 196.594 42.088 C 194.495 40.117, 184.951 36, 182.478 36 C 181.901 36, 180.641 36.788, 179.678 37.750 M 178.861 42.929 C 176.854 44.569, 176.709 45.056, 177.897 46.179 C 178.665 46.906, 179.017 47.003, 178.678 46.396 C 177.913 45.023, 182.170 43, 185.825 43 C 187.326 43, 189.555 43.701, 190.777 44.557 C 192 45.413, 193 45.663, 193 45.113 C 193 43.246, 188.570 41, 184.888 41 C 182.749 41, 180.238 41.804, 178.861 42.929 M 81.507 42.989 C 81.157 43.555, 81.558 43.723, 82.448 43.382 C 84.180 42.717, 84.497 42, 83.059 42 C 82.541 42, 81.843 42.445, 81.507 42.989 M 91.500 44 C 92.495 45.100, 93.535 46, 93.810 46 C 94.085 46, 93.495 45.100, 92.500 44 C 91.505 42.900, 90.465 42, 90.190 42 C 89.915 42, 90.505 42.900, 91.500 44 M 182.646 45.236 C 183.085 45.946, 182.739 46.114, 181.676 45.706 C 180.657 45.315, 180.115 45.537, 180.262 46.286 C 180.394 46.958, 179.519 47.467, 178.300 47.426 C 177.090 47.385, 176.305 47.684, 176.556 48.091 C 176.807 48.497, 176.447 49.057, 175.756 49.336 C 175.065 49.614, 174.950 49.864, 175.500 49.890 C 176.050 49.916, 179.192 48.673, 182.482 47.128 C 188.139 44.471, 188.287 44.313, 185.214 44.225 C 183.082 44.165, 182.199 44.512, 182.646 45.236 M 85 46 C 85 46.550, 85.563 47.007, 86.250 47.015 C 87.083 47.026, 87 47.354, 86 48 C 84.834 48.754, 85.119 48.973, 87.285 48.985 C 89.762 48.998, 89.952 48.779, 89 47 C 87.899 44.942, 85 44.218, 85 46 M 103.564 47.293 C 103.940 48.279, 104.499 48.834, 104.807 48.526 C 105.115 48.219, 104.808 47.412, 104.124 46.733 C 103.136 45.753, 103.022 45.868, 103.564 47.293 M 188.765 50.358 C 185.692 52.120, 184.689 52.287, 183.104 51.297 C 181.533 50.316, 181.069 50.377, 180.589 51.629 C 179.640 54.103, 179.913 59, 181 59 C 181.550 59, 182 60.575, 182 62.500 C 182 67.013, 184.911 70, 189.309 70 C 193.901 70, 195.588 68.319, 196.956 62.381 C 197.947 58.086, 197.883 56.655, 196.558 53.485 C 195.107 50.012, 194.840 49.831, 193.240 51.231 C 192.283 52.068, 189.284 53.718, 186.576 54.897 C 181.837 56.961, 181.720 56.967, 183.447 55.058 C 184.434 53.968, 186.723 52.587, 188.532 51.989 C 190.342 51.392, 192.074 50.250, 192.380 49.452 C 192.687 48.653, 192.839 48.049, 192.719 48.108 C 192.598 48.168, 190.819 49.181, 188.765 50.358 M 177.500 51 C 177.160 51.550, 177.332 52, 177.882 52 C 178.432 52, 179.160 51.550, 179.500 51 C 179.840 50.450, 179.668 50, 179.118 50 C 178.568 50, 177.840 50.450, 177.500 51 M 91.750 51.662 C 92.438 51.940, 93.563 51.940, 94.250 51.662 C 94.938 51.385, 94.375 51.158, 93 51.158 C 91.625 51.158, 91.063 51.385, 91.750 51.662 M 89 55 C 89 55.550, 89.675 56, 90.500 56 C 91.325 56, 92 55.550, 92 55 C 92 54.450, 91.325 54, 90.500 54 C 89.675 54, 89 54.450, 89 55 M 96.659 58.086 C 95.248 59.734, 94.046 60.076, 90.936 59.717 C 87.597 59.331, 87 59.546, 87 61.131 C 87 62.529, 87.735 63, 89.917 63 C 91.927 63, 93.481 63.855, 94.917 65.750 C 96.769 68.195, 97.139 68.324, 98.250 66.912 C 98.938 66.039, 100.027 65.502, 100.671 65.719 C 101.314 65.936, 103.339 64.735, 105.171 63.050 L 108.500 59.987 106.139 57.993 C 103.081 55.411, 98.914 55.451, 96.659 58.086 M 188.446 57.087 C 187.505 58.610, 189.549 60.387, 191.416 59.671 C 192.314 59.326, 192.718 58.429, 192.376 57.538 C 191.694 55.759, 189.427 55.499, 188.446 57.087 M 146.810 59.736 C 145.331 59.948, 142.181 61.842, 139.810 63.946 C 135.706 67.589, 135.500 68.036, 135.500 73.330 C 135.500 78.318, 135.856 79.256, 138.965 82.464 C 143.847 87.501, 148.741 88.650, 154.485 86.110 C 161.746 82.898, 165.785 73.353, 162.539 67.076 C 160.013 62.190, 152.890 58.866, 146.810 59.736 M 69.461 61.957 C 71.639 64.364, 72.138 64.524, 71.391 62.577 C 71.091 61.795, 70.118 60.875, 69.229 60.534 C 67.901 60.025, 67.942 60.279, 69.461 61.957 M 174.583 60.866 C 174.152 61.563, 174.070 62.403, 174.400 62.733 C 175.295 63.628, 176.271 62.312, 175.787 60.862 C 175.449 59.846, 175.213 59.846, 174.583 60.866 M 143.119 62.885 C 134.434 67.513, 135.069 79.881, 144.234 84.621 C 150.252 87.733, 158.846 84.028, 161.041 77.375 C 162.326 73.484, 161.789 67.656, 159.943 65.431 C 158.975 64.265, 158.521 64.370, 157.135 66.081 C 154.734 69.046, 151.676 67.659, 152.234 63.857 C 152.619 61.236, 152.400 61.003, 149.577 61.042 C 147.885 61.065, 144.979 61.895, 143.119 62.885 M 177 64 C 175.684 66.459, 176.855 68.921, 181.731 73.941 C 184.847 77.149, 185.718 77.500, 190.558 77.500 C 194.485 77.500, 196.408 77, 197.714 75.641 C 199.451 73.834, 199.412 73.827, 196.300 75.391 C 192.578 77.262, 190.408 77.391, 186.399 75.979 C 182.915 74.751, 178.667 68.587, 178.667 64.760 C 178.667 61.472, 178.415 61.357, 177 64 M 145.200 64.200 C 144.540 64.860, 144 66.155, 144 67.078 C 144 68.806, 141.677 71.344, 140.852 70.519 C 140.597 70.263, 140.285 71.790, 140.160 73.911 C 139.865 78.911, 143.808 84, 147.978 84 C 151.791 84, 155.023 81.125, 155.284 77.501 C 155.459 75.072, 155.072 74.441, 153.248 74.181 C 151.414 73.920, 151.109 73.413, 151.603 71.445 C 152.099 69.470, 151.714 68.842, 149.493 67.997 C 147.465 67.226, 146.908 66.461, 147.294 64.982 C 147.879 62.746, 146.987 62.413, 145.200 64.200 M 200.179 66.506 C 199.551 67.885, 198.466 68.897, 197.769 68.756 C 197.071 68.615, 196.608 69.049, 196.740 69.720 C 197.149 71.800, 192.951 73.255, 188.112 72.709 C 183.531 72.193, 183.526 72.196, 186.370 73.686 C 190.525 75.863, 195.227 74.645, 198.924 70.434 C 200.616 68.507, 202 66.271, 202 65.465 C 202 63.354, 201.480 63.652, 200.179 66.506 M 145.200 71.200 C 142.079 74.321, 146.206 81.619, 149.809 79.351 C 152.534 77.635, 152.543 74.980, 149.823 75.116 C 148.042 75.205, 147.921 75.341, 149.305 75.700 C 151.311 76.220, 151.084 78.500, 149.026 78.500 C 146.706 78.500, 145.362 75.252, 146.757 73.017 C 147.441 71.923, 148 70.796, 148 70.514 C 148 69.589, 146.425 69.975, 145.200 71.200 M 63.500 90.573 C 56.350 93.622, 49.504 96.522, 48.287 97.019 C 45.760 98.051, 41.661 104.142, 38.701 111.266 C 36.764 115.925, 36.748 116.359, 38.318 121.341 C 39.420 124.837, 39.764 128.201, 39.363 131.584 C 38.814 136.216, 39.015 136.893, 41.859 140.006 C 43.669 141.989, 46.003 146.524, 47.488 150.946 C 50.527 159.994, 57.802 170.942, 63.110 174.454 C 65.226 175.854, 67.124 177, 67.328 177 C 68.399 177, 87.185 188.827, 91.381 192.143 C 94.223 194.389, 97.355 196.002, 98.881 196.004 C 100.321 196.006, 102.973 196.906, 104.774 198.004 C 107.466 199.645, 109.866 200.008, 118.274 200.044 C 124.553 200.071, 130.044 200.644, 132.500 201.529 C 134.700 202.321, 137.752 202.977, 139.282 202.985 C 140.812 202.993, 143.553 203.622, 145.373 204.383 C 147.193 205.143, 151.808 206.079, 155.629 206.463 L 162.575 207.160 168.114 202.601 C 173.786 197.931, 180.769 190.209, 182.839 186.316 C 183.477 185.114, 184 180.158, 184 175.301 C 184 168.464, 183.561 165.651, 182.055 162.841 C 179.871 158.766, 177 148.494, 177 144.755 C 177 139.657, 167.724 125.485, 157.403 114.815 C 151.319 108.525, 139.855 101.434, 129.420 97.506 C 125.701 96.106, 122.161 94.549, 121.554 94.045 C 118.922 91.860, 109.892 89.679, 102.500 89.443 C 98.100 89.302, 92.691 88.526, 90.480 87.719 C 80.866 84.208, 77.624 84.551, 63.500 90.573 M 70.051 90.372 C 67.054 91.543, 60.554 94.525, 55.607 97 C 46.842 101.386, 46.529 101.664, 43.307 107.961 C 39.619 115.167, 39.415 116.744, 41.431 122.500 C 42.284 124.937, 42.616 128.343, 42.281 131.214 C 41.784 135.461, 42.041 136.283, 44.871 139.506 C 46.862 141.773, 48.819 145.825, 50.214 150.568 C 53.188 160.676, 60.287 170.073, 68.208 174.390 L 73.917 177.500 75.958 175.473 L 77.999 173.445 72.476 165.511 C 69.439 161.147, 66.443 155.872, 65.818 153.788 C 64.945 150.873, 64.169 150, 62.449 150 C 61.220 150, 59.968 149.358, 59.666 148.573 C 59.041 146.944, 61.443 144.538, 62.835 145.398 C 63.358 145.721, 63.964 142.192, 64.235 137.234 C 64.808 126.781, 68.489 117.680, 75.002 110.614 C 78.978 106.300, 79.053 106.099, 77.064 105.034 C 74.673 103.754, 74.360 100.776, 76.436 99.053 C 78.199 97.590, 82 99.286, 82 101.535 C 82 103.193, 83.138 103.441, 84.550 102.092 C 86.433 100.293, 95.604 95.566, 100.500 93.871 L 105.500 92.140 100.500 92.057 C 97.750 92.012, 92.647 91.080, 89.161 89.987 C 81.355 87.540, 77.083 87.626, 70.051 90.372 M 103.790 95.476 C 90.585 99.111, 76.044 110.742, 70.630 122 C 67.687 128.119, 67.503 129.174, 67.502 140 C 67.500 152.761, 68.421 155.439, 76.686 166.695 C 79.850 171.004, 94.358 183, 96.406 183 C 96.733 183, 97.889 182.111, 98.975 181.025 C 104.811 175.189, 112.504 178.511, 115.345 188.095 C 116.575 192.244, 136.973 193.933, 146.328 190.660 C 157.780 186.653, 161.908 183.085, 167.080 172.719 C 171.694 163.474, 174.280 152.728, 173.631 145.500 C 173.159 140.241, 170.080 133.967, 165.043 128 L 162.088 124.500 160.487 126.750 C 157.465 130.999, 150.636 129.170, 149.455 123.795 C 148.836 120.976, 149.147 120.240, 151.953 117.898 L 155.158 115.222 151.805 112.665 C 147.490 109.374, 130.534 100.010, 128.815 99.969 C 128.092 99.951, 124.811 98.601, 121.525 96.969 C 115.033 93.742, 111.244 93.423, 103.790 95.476 M 178.079 99.404 C 176.140 101.741, 177.824 105.305, 184.061 112.065 C 187.327 115.604, 189.999 118.885, 189.999 119.356 C 190 119.826, 191.114 121.535, 192.475 123.152 C 194.558 125.628, 194.856 126.773, 194.359 130.397 C 194.016 132.899, 194.251 135.600, 194.920 136.850 C 195.604 138.129, 195.675 139, 195.094 139 C 194.558 139, 194.764 140.238, 195.553 141.750 C 196.342 143.262, 196.990 145.933, 196.994 147.685 C 197.002 152.111, 198.529 155.678, 200.976 156.987 C 203.397 158.283, 204.288 157.590, 208.037 151.500 C 211.449 145.958, 211.551 134.633, 208.250 127.934 C 207.012 125.423, 205.998 121.823, 205.995 119.934 C 205.985 113.349, 199.279 105.737, 188.783 100.399 C 183.446 97.684, 179.789 97.344, 178.079 99.404 M 180.158 100.881 C 179.035 101.593, 179.035 102.113, 180.158 104.065 C 182.019 107.300, 184.992 110.572, 185.040 109.439 C 185.062 108.922, 185.772 109.777, 186.618 111.338 C 187.464 112.900, 188.395 113.938, 188.687 113.646 C 188.979 113.354, 188.343 111.852, 187.273 110.308 C 186.203 108.763, 185.379 106.150, 185.441 104.500 C 185.594 100.457, 183.303 98.888, 180.158 100.881 M 77 102 C 77 102.550, 77.423 103, 77.941 103 C 78.459 103, 79.160 102.550, 79.500 102 C 79.840 101.450, 79.416 101, 78.559 101 C 77.702 101, 77 101.450, 77 102 M 128.915 103.602 C 128.027 104.672, 127.988 105.388, 128.775 106.175 C 130.156 107.556, 133 106.522, 133 104.638 C 133 102.555, 130.344 101.881, 128.915 103.602 M 188 103.896 C 188 104.389, 189.575 106.176, 191.500 107.866 C 193.425 109.556, 195 111.451, 195 112.076 C 195 112.702, 195.674 112.955, 196.498 112.639 C 197.417 112.287, 198.629 113.031, 199.633 114.563 C 201.955 118.106, 202.491 116.838, 200.472 112.581 C 198.910 109.290, 197.904 108.519, 195.676 108.906 C 195.222 108.985, 195.113 108.627, 195.432 108.110 C 195.751 107.594, 194.494 106.232, 192.638 105.085 C 188.923 102.789, 188 102.553, 188 103.896 M 130 105 C 130 105.550, 130.450 106, 131 106 C 131.550 106, 132 105.550, 132 105 C 132 104.450, 131.550 104, 131 104 C 130.450 104, 130 104.450, 130 105 M 187 107 C 187 107.550, 187.465 108, 188.032 108 C 188.600 108, 189.471 109.013, 189.969 110.250 C 190.466 111.487, 190.887 111.825, 190.905 111 C 190.938 109.407, 188.714 106, 187.640 106 C 187.288 106, 187 106.450, 187 107 M 87.571 109.571 C 85.465 111.678, 85.592 113.592, 88 116 C 90.408 118.408, 90.917 118.447, 93.777 116.443 C 96.476 114.553, 96.631 111.881, 94.171 109.655 C 91.875 107.577, 89.595 107.548, 87.571 109.571 M 89.200 111.200 C 87.712 112.688, 88.872 115, 91.107 115 C 92.298 115, 93 114.298, 93 113.107 C 93 110.872, 90.688 109.712, 89.200 111.200 M 141.408 111.378 C 140.599 113.487, 141.735 115, 144.129 115 C 145.639 115, 146.060 114.443, 145.820 112.760 C 145.447 110.146, 142.264 109.149, 141.408 111.378 M 123.530 113.967 C 122.492 115.114, 121.971 116.782, 122.281 117.967 C 122.705 119.588, 122.333 120, 120.444 120 C 115.838 120, 107.247 123.986, 104.738 127.288 C 98.622 135.333, 97.047 142.114, 99.564 149.554 C 100.484 152.274, 102.113 155.736, 103.184 157.246 C 107.408 163.204, 118.236 167.116, 126.309 165.602 C 134.022 164.155, 141.518 156.734, 144.170 147.921 C 145.260 144.297, 145.931 143.500, 147.891 143.500 C 149.206 143.500, 150.755 142.750, 151.333 141.834 C 152.843 139.440, 150.342 136.726, 147.057 137.194 C 144.892 137.502, 144.173 136.893, 142.371 133.226 L 140.243 128.894 143.056 129.512 C 148.452 130.698, 150.832 122.749, 145.483 121.406 C 142.490 120.655, 139 122.564, 139 124.952 C 139 126.753, 138.833 126.742, 135.123 124.710 C 131.436 122.690, 131.272 122.393, 131.775 118.641 C 132.189 115.557, 131.902 114.401, 130.461 113.348 C 127.885 111.464, 125.611 111.667, 123.530 113.967 M 191 113.916 C 191 115.614, 193.750 118.213, 194.413 117.141 C 194.710 116.661, 194.063 115.462, 192.976 114.479 C 191.721 113.343, 191 113.138, 191 113.916 M 105.969 116.538 C 104.895 117.831, 104.942 118.371, 106.240 119.669 C 107.917 121.346, 110 120.733, 110 118.563 C 110 117.838, 109.385 116.734, 108.633 116.110 C 107.591 115.245, 106.957 115.347, 105.969 116.538 M 125.216 115.845 C 123.245 117.096, 124.916 120, 127.607 120 C 129.493 120, 130 119.470, 130 117.500 C 130 114.918, 127.850 114.174, 125.216 115.845 M 152 120.107 C 152 120.716, 152.692 120.948, 153.538 120.624 C 155.238 119.971, 156.860 122.790, 155.396 123.851 C 153.747 125.046, 154.118 126.583, 156.091 126.732 C 157.165 126.813, 157.782 126.456, 157.463 125.939 C 157.143 125.423, 157.584 125, 158.441 125 C 160.451 125, 160.445 122.587, 158.429 120.571 C 156.634 118.777, 152 118.442, 152 120.107 M 198.309 120.217 C 197.764 120.923, 197.634 122.625, 198.021 124 C 198.654 126.249, 198.804 126.313, 199.511 124.641 C 200.215 122.978, 200.393 122.951, 201.199 124.391 C 201.694 125.276, 202.865 125.986, 203.800 125.968 C 205.364 125.939, 205.370 125.837, 203.867 124.693 C 202.968 124.010, 202.068 122.599, 201.867 121.558 C 201.409 119.196, 199.619 118.521, 198.309 120.217 M 74 120.988 C 72.838 121.728, 72.750 122.344, 73.609 123.722 C 75.220 126.305, 77.500 125.931, 77.500 123.083 C 77.500 120.351, 76.211 119.580, 74 120.988 M 58.336 123.567 C 57.426 125.939, 59.559 127.611, 61.470 126.025 C 62.654 125.042, 62.754 124.409, 61.890 123.367 C 60.392 121.563, 59.077 121.637, 58.336 123.567 M 151 123.382 C 151 124.207, 151.450 125.160, 152 125.500 C 152.550 125.840, 153 125.443, 153 124.618 C 153 123.793, 152.550 122.840, 152 122.500 C 151.450 122.160, 151 122.557, 151 123.382 M 113.388 126.433 C 109.479 128.134, 106.255 131.526, 104.429 135.856 C 102.618 140.151, 103.217 141, 108.059 141 C 111.454 141, 112.012 141.312, 112.086 143.250 C 112.160 145.180, 112.294 145.093, 113.028 142.643 C 115.546 134.240, 125.012 132.672, 129.309 139.947 C 131.616 143.852, 131.433 146.385, 128.606 149.672 C 126.689 151.901, 125.369 152.455, 121.978 152.455 C 118.429 152.455, 117.306 151.931, 115.049 149.227 C 112.813 146.550, 111.653 146, 108.236 146 C 105.971 146, 103.908 146.340, 103.651 146.756 C 103.245 147.413, 106.233 154.567, 107.403 155.736 C 107.637 155.971, 108.767 155.660, 109.914 155.046 C 112.012 153.923, 112.994 155.268, 110.984 156.510 C 110.425 156.856, 110.226 157.557, 110.543 158.069 C 111.633 159.833, 113.504 158.980, 115.241 155.929 C 117.568 151.840, 119.333 153.070, 118.470 158.179 C 117.809 162.087, 117.845 162.147, 120.649 161.826 C 123.030 161.554, 123.550 160.981, 123.806 158.352 C 124.204 154.253, 127.704 152.972, 128.613 156.593 C 129.439 159.883, 130.657 159.625, 134.595 155.327 C 140.919 148.422, 141.681 139.203, 136.490 132.398 C 131.519 125.881, 120.934 123.148, 113.388 126.433 M 197.035 128.934 C 195.677 131.472, 195.749 133.036, 197.116 130.686 C 197.696 129.689, 199.145 128.480, 200.335 128 L 202.500 127.127 200.285 127.063 C 199.067 127.029, 197.605 127.870, 197.035 128.934 M 199.011 130.487 C 198.264 131.387, 198.093 132.671, 198.578 133.737 C 199.244 135.201, 199.445 135.033, 199.757 132.750 C 200.047 130.624, 200.674 130, 202.517 130 C 205.875 130, 207.336 132.960, 205.179 135.395 C 203.576 137.205, 203.597 137.240, 205.640 136.169 C 207.479 135.205, 207.859 135.354, 208.350 137.230 C 208.664 138.431, 209.221 139.112, 209.589 138.745 C 209.956 138.377, 209.296 136.035, 208.123 133.538 C 206.320 129.702, 205.545 129, 203.117 129 C 201.537 129, 199.689 129.669, 199.011 130.487 M 53.011 134.487 C 51.229 136.634, 52.548 139.203, 55.235 138.820 C 57.798 138.455, 58.873 135.168, 56.848 133.885 C 54.974 132.697, 54.425 132.783, 53.011 134.487 M 72.278 134.122 C 70.742 135.658, 71.811 138, 74.048 138 C 76.505 138, 77.452 136.249, 75.964 134.456 C 74.512 132.707, 73.761 132.639, 72.278 134.122 M 73 136 C 73 136.550, 73.450 137, 74 137 C 74.550 137, 75 136.550, 75 136 C 75 135.450, 74.550 135, 74 135 C 73.450 135, 73 135.450, 73 136 M 196.917 135.344 C 196.350 136.408, 196.528 140.209, 197.164 140.601 C 197.624 140.886, 198 140.224, 198 139.132 C 198 138.040, 198.787 136.983, 199.750 136.783 C 201.173 136.487, 201.080 136.304, 199.250 135.803 C 198.012 135.464, 196.963 135.258, 196.917 135.344 M 200 139 C 200 140.270, 203.035 140.270, 205 139 C 206.138 138.264, 205.716 138.027, 203.250 138.015 C 201.463 138.007, 200 138.450, 200 139 M 204.402 140.490 C 200.980 141.609, 198 143.765, 198 145.122 C 198 146.483, 204.403 146.157, 206.404 144.694 C 207.386 143.976, 208.035 142.508, 207.845 141.432 C 207.542 139.717, 207.119 139.601, 204.402 140.490 M 147.500 141 C 147.840 141.550, 148.316 142, 148.559 142 C 148.802 142, 149 141.550, 149 141 C 149 140.450, 148.523 140, 147.941 140 C 147.359 140, 147.160 140.450, 147.500 141 M 157.386 142.126 C 155.325 144.403, 156.392 147.240, 159.541 147.859 C 162.021 148.346, 164.206 145.254, 162.989 142.980 C 161.541 140.274, 159.363 139.942, 157.386 142.126 M 73.250 143.086 C 70.535 144.111, 70.049 149.421, 72.582 150.393 C 75.564 151.537, 77.930 150.998, 79.042 148.922 C 81.101 145.074, 77.526 141.471, 73.250 143.086 M 124.500 143 C 124.840 143.550, 125.316 144, 125.559 144 C 125.802 144, 126 143.550, 126 143 C 126 142.450, 125.523 142, 124.941 142 C 124.359 142, 124.160 142.450, 124.500 143 M 159.143 143.907 C 158.137 144.532, 158.090 144.937, 158.960 145.475 C 160.332 146.323, 161.362 145.572, 160.854 144.095 C 160.646 143.489, 159.940 143.412, 159.143 143.907 M 72.700 145.341 C 72.417 146.078, 72.636 147.316, 73.187 148.091 C 73.985 149.213, 74.076 149.149, 73.636 147.776 C 73.307 146.752, 73.776 145.649, 74.792 145.057 C 76.333 144.158, 76.339 144.058, 74.857 144.030 C 73.953 144.014, 72.982 144.603, 72.700 145.341 M 200.269 148.693 C 201.242 148.947, 202.592 148.930, 203.269 148.656 C 203.946 148.382, 203.150 148.175, 201.500 148.195 C 199.850 148.215, 199.296 148.439, 200.269 148.693 M 162.174 151.314 C 159.470 154.193, 159.419 156.419, 162 159 C 164.592 161.592, 166.280 161.523, 169.572 158.691 C 171.597 156.950, 172.086 155.846, 171.563 154.197 C 169.863 148.843, 165.698 147.564, 162.174 151.314 M 147.223 151.557 C 144.527 153.445, 144.342 157.095, 146.829 159.345 C 149.209 161.499, 150.180 161.433, 153.401 158.900 C 156.297 156.621, 156.222 153.619, 153.208 151.250 C 151.123 149.611, 149.912 149.673, 147.223 151.557 M 202.201 151.792 C 202.614 153.923, 205 154.547, 205 152.524 C 205 151.621, 205.450 151.160, 206 151.500 C 206.550 151.840, 207 151.698, 207 151.184 C 207 150.670, 205.853 150.250, 204.451 150.250 C 202.691 150.250, 201.994 150.728, 202.201 151.792 M 163.389 153.430 C 162.393 156.025, 163.788 158.169, 166.246 157.820 C 167.898 157.585, 168.500 156.833, 168.500 155 C 168.500 153.167, 167.898 152.415, 166.246 152.180 C 164.893 151.988, 163.750 152.488, 163.389 153.430 M 148.547 153.924 C 148.233 154.433, 148.769 155.055, 149.738 155.308 C 151.382 155.737, 151.378 155.776, 149.691 155.884 C 147.658 156.014, 148.372 158, 150.452 158 C 152.322 158, 153.338 154.831, 151.784 153.845 C 150.098 152.776, 149.244 152.797, 148.547 153.924 M 87.116 155.750 C 85.264 157.290, 85.163 157.799, 86.281 159.991 C 87.741 162.857, 90.444 163.706, 92.548 161.960 C 94.621 160.240, 94.343 156.254, 92.066 155.035 C 89.567 153.698, 89.588 153.695, 87.116 155.750 M 174.721 160.047 C 173.924 165.988, 166.156 181.656, 162.351 184.997 C 160.564 186.565, 156.042 189.325, 152.301 191.130 C 146.273 194.038, 144.329 194.457, 135.201 194.821 C 125.354 195.212, 124.267 195.040, 110.457 190.884 C 97.589 187.012, 95.174 185.920, 88.327 180.873 C 81.854 176.100, 80.354 175.386, 78.821 176.344 C 75.797 178.232, 76.705 179.663, 83.250 183.324 C 86.688 185.246, 91.211 188.180, 93.302 189.842 C 95.393 191.504, 98.543 193.174, 100.302 193.552 C 102.061 193.931, 104.750 194.880, 106.277 195.660 C 108 196.541, 113.172 197.216, 119.902 197.438 C 125.868 197.635, 131.648 198.276, 132.745 198.864 C 133.843 199.451, 137.162 200.364, 140.120 200.893 C 143.079 201.422, 147.300 202.327, 149.500 202.904 C 154.719 204.272, 162.703 204.289, 163.541 202.934 C 163.903 202.348, 165.964 200.590, 168.120 199.028 C 170.277 197.466, 174.057 193.592, 176.521 190.419 L 181 184.650 181 176.189 C 181 169.815, 180.445 166.286, 178.750 161.879 C 177.512 158.662, 176.222 156.023, 175.882 156.015 C 175.542 156.007, 175.019 157.821, 174.721 160.047 M 88 158.393 C 88 160.089, 90.704 161.287, 91.527 159.956 C 91.852 159.430, 91.840 158.550, 91.500 158 C 90.576 156.505, 88 156.794, 88 158.393 M 141.544 166.344 C 140.207 167.322, 139.882 168.395, 140.355 170.278 C 141.203 173.655, 144.539 174.727, 147.072 172.435 C 149.411 170.318, 149.512 168.655, 147.429 166.571 C 145.504 164.647, 143.947 164.587, 141.544 166.344 M 143.122 168.353 C 141.906 169.818, 142.596 171, 144.667 171 C 146.156 171, 146.492 168.422, 145.113 167.570 C 144.626 167.269, 143.730 167.621, 143.122 168.353 M 102.988 182.154 L 99.582 184.225 102.171 185.581 C 103.595 186.328, 106.622 187.236, 108.899 187.600 C 112.665 188.202, 112.973 188.092, 112.325 186.381 C 111.603 184.475, 110.741 183.475, 107.943 181.291 C 106.698 180.319, 105.726 180.488, 102.988 182.154 M 140.380 181.452 C 139.617 183.441, 140.747 185, 142.952 185 C 144.871 185, 146.411 182.473, 145.444 180.910 C 144.555 179.470, 140.994 179.852, 140.380 181.452 M 167.713 181.621 C 166.315 183.018, 167.031 186.946, 168.862 187.926 C 171.493 189.334, 174.290 187.098, 173.845 183.944 C 173.597 182.187, 172.786 181.417, 170.963 181.204 C 169.567 181.041, 168.104 181.229, 167.713 181.621 M 169.500 185 C 169.840 185.550, 170.316 186, 170.559 186 C 170.802 186, 171 185.550, 171 185 C 171 184.450, 170.523 184, 169.941 184 C 169.359 184, 169.160 184.450, 169.500 185 M 144.500 197 C 143.577 198.494, 144.861 200, 147.059 200 C 148.333 200, 149 199.313, 149 198 C 149 195.879, 145.653 195.135, 144.500 197" stroke="none" fill="#212121" fill-rule="evenodd" fill-opacity="1"/>
</svg>