<svg xmlns="http://www.w3.org/2000/svg" width="1024" height="1024" viewBox="0 0 256 256" version="1.1" class="injected-svg" data-src="https://storage.googleapis.com/illustroke-c1d67.appspot.com/sKvoQfSqEHPmlLobzx5EfRxGct22/0t8lxvjzmgagyxztps60x7c-0.svg" xmlns:xlink="http://www.w3.org/1999/xlink"><rect width="1024" height="1024" fill="white"/>
	<path d="M 143.924 47.750 L 141.500 50.500 144.250 48.076 C 146.820 45.810, 147.459 45, 146.674 45 C 146.495 45, 145.258 46.237, 143.924 47.750 M 208 47.059 C 208 47.641, 208.450 47.840, 209 47.500 C 209.550 47.160, 210 46.684, 210 46.441 C 210 46.198, 209.550 46, 209 46 C 208.450 46, 208 46.477, 208 47.059 M 213.250 46.716 C 214.762 46.945, 217.238 46.945, 218.750 46.716 C 220.262 46.487, 219.025 46.300, 216 46.300 C 212.975 46.300, 211.738 46.487, 213.250 46.716 M 224.728 46.722 C 226.503 46.943, 229.653 46.946, 231.728 46.730 C 233.802 46.513, 232.350 46.333, 228.500 46.328 C 224.650 46.324, 222.952 46.501, 224.728 46.722 M 202.878 53.904 C 203.681 54.412, 203.930 55.305, 203.474 56.043 C 202.964 56.867, 203.094 57.060, 203.845 56.595 C 205.626 55.495, 205.211 52.998, 203.250 53.015 C 201.866 53.027, 201.788 53.213, 202.878 53.904 M 212.750 56.706 C 213.988 56.944, 216.012 56.944, 217.250 56.706 C 218.488 56.467, 217.475 56.272, 215 56.272 C 212.525 56.272, 211.512 56.467, 212.750 56.706 M 197.957 63.250 C 196.100 65.588, 195.370 66.865, 196.337 66.089 C 198.157 64.627, 202.442 59, 201.735 59 C 201.515 59, 199.815 60.913, 197.957 63.250 M 168.813 65.683 C 169.534 65.972, 170.397 65.936, 170.729 65.604 C 171.061 65.272, 170.471 65.036, 169.417 65.079 C 168.252 65.127, 168.015 65.364, 168.813 65.683 M 200.560 67.721 L 198.620 70.380 201.279 68.440 C 202.741 67.373, 203.951 66.162, 203.969 65.750 C 204.033 64.222, 202.443 65.141, 200.560 67.721 M 223 69.059 C 223 69.641, 223.450 69.840, 224 69.500 C 224.550 69.160, 225 68.684, 225 68.441 C 225 68.198, 224.550 68, 224 68 C 223.450 68, 223 68.477, 223 69.059 M 165.647 71.686 C 165.270 72.063, 162.941 72.267, 160.472 72.139 C 156.388 71.928, 155.554 72.311, 151.249 76.378 C 145.964 81.373, 145.749 83.688, 151.007 78.994 C 154.860 75.554, 156.360 75.294, 158.193 77.750 C 158.912 78.713, 160.150 79.500, 160.944 79.500 C 161.738 79.500, 163.224 80.931, 164.246 82.681 C 166.295 86.190, 165.574 88.536, 161.705 90.952 C 159.946 92.051, 159.412 91.823, 157.233 89.039 C 155.761 87.158, 154.180 86.101, 153.328 86.428 C 152.524 86.736, 152.167 86.539, 152.514 85.977 C 152.854 85.427, 151.743 84.699, 150.045 84.359 C 148.348 84.020, 146.742 83.392, 146.478 82.965 C 145.645 81.617, 141.986 83.161, 140.766 85.375 C 138.822 88.906, 138.887 90.413, 140.905 88.586 C 141.926 87.662, 144.430 87, 146.906 87 C 152.571 87, 157 91.138, 157 96.432 C 157 99.767, 156.860 99.930, 155 98.768 C 153.900 98.081, 153 97.252, 153 96.926 C 153 96.600, 152.438 96.275, 151.750 96.203 C 151.063 96.132, 148.416 95.780, 145.869 95.420 C 143.189 95.042, 139.767 95.252, 137.750 95.918 C 134.594 96.959, 134.202 97.508, 133.628 101.698 C 133.279 104.244, 133.220 106.553, 133.497 106.830 C 133.774 107.107, 134 106.428, 134 105.322 C 134 102.941, 136.352 100.697, 140.500 99.121 L 143.500 97.980 140.200 98.475 C 138.174 98.779, 137.135 98.590, 137.509 97.985 C 138.176 96.907, 145.892 96.638, 148.412 97.605 C 149.279 97.937, 149.740 98.612, 149.435 99.105 C 149.131 99.597, 149.778 100, 150.873 100 C 153.077 100, 157.578 105.525, 156.112 106.431 C 155.604 106.745, 155.437 108.014, 155.742 109.251 C 156.046 110.488, 155.950 111.184, 155.529 110.798 C 155.107 110.411, 154.108 110.749, 153.310 111.548 C 151.282 113.575, 149.429 113.395, 151.128 111.336 C 152.355 109.848, 152.289 109.783, 150.500 110.724 C 149.400 111.302, 145.440 111.991, 141.701 112.254 L 134.902 112.734 137.121 110.371 C 140.455 106.823, 138.909 106.645, 135.163 110.145 C 133.368 111.823, 132.070 113.714, 132.280 114.348 C 132.513 115.052, 135.725 115.615, 140.550 115.796 C 145.309 115.975, 148.742 116.570, 149.204 117.296 C 149.721 118.109, 149.974 117.916, 149.985 116.698 C 149.994 115.622, 151.153 114.494, 152.862 113.898 C 156.365 112.677, 158.060 109.226, 158.707 102 C 159.125 97.326, 159.724 96.006, 162.696 93.213 C 165.108 90.945, 166.783 90.114, 168.097 90.531 C 169.784 91.066, 169.890 90.841, 169.023 88.561 C 166.373 81.591, 162.962 77.209, 158.500 75.044 L 155.500 73.588 158.391 73.214 C 159.982 73.008, 161.595 73.345, 161.977 73.963 C 162.453 74.733, 163.432 74.453, 165.086 73.077 C 166.414 71.971, 167.238 71.052, 166.917 71.033 C 166.596 71.015, 166.025 71.309, 165.647 71.686 M 185.399 72.250 C 185.003 72.938, 185.023 73.191, 185.442 72.814 C 185.862 72.436, 187.397 72.552, 188.853 73.070 C 191.344 73.956, 191.385 73.923, 189.559 72.506 C 187.197 70.673, 186.336 70.621, 185.399 72.250 M 194.629 72.477 C 194.962 73.343, 196.355 73.966, 197.857 73.921 C 199.409 73.875, 199.881 73.612, 199 73.286 C 198.175 72.980, 196.723 72.330, 195.773 71.842 C 194.439 71.156, 194.178 71.301, 194.629 72.477 M 171 72.883 C 171 74.548, 174.958 74.801, 179.229 73.409 L 183.500 72.016 179.855 72.384 C 177.851 72.586, 175.713 73.059, 175.105 73.435 C 174.497 73.811, 174 73.641, 174 73.059 C 174 72.477, 173.325 72, 172.500 72 C 171.675 72, 171 72.398, 171 72.883 M 180.250 75.247 C 177.830 76.023, 177 76.875, 177 78.586 C 177 79.849, 176.543 81.165, 175.984 81.510 C 175.425 81.856, 175.231 82.565, 175.554 83.088 C 175.877 83.610, 174.713 84.638, 172.967 85.372 C 170.442 86.434, 170.137 86.839, 171.478 87.353 C 172.405 87.709, 174.182 88, 175.427 88 C 176.672 88, 178.505 88.900, 179.500 90 C 180.495 91.100, 181.803 92, 182.405 92 C 183.007 91.999, 185.525 94.137, 188 96.750 L 192.500 101.501 215 100.945 L 237.500 100.389 215.084 100.268 L 192.668 100.147 187.164 94.642 C 182.313 89.791, 181.571 88.506, 180.914 83.819 C 180.233 78.951, 180.379 78.309, 182.640 76.250 C 185.339 73.793, 185.098 73.692, 180.250 75.247 M 186 87.393 C 186 87.609, 186.675 88.045, 187.500 88.362 C 188.325 88.678, 189 88.501, 189 87.969 C 189 87.436, 188.325 87, 187.500 87 C 186.675 87, 186 87.177, 186 87.393 M 212.250 87.689 C 213.213 87.941, 214.787 87.941, 215.750 87.689 C 216.713 87.438, 215.925 87.232, 214 87.232 C 212.075 87.232, 211.287 87.438, 212.250 87.689 M 223.250 87.735 C 225.863 87.941, 230.137 87.941, 232.750 87.735 C 235.363 87.529, 233.225 87.360, 228 87.360 C 222.775 87.360, 220.637 87.529, 223.250 87.735 M 129.214 103.583 L 129.428 116.500 129.747 105.155 C 130.045 94.611, 130.188 93.905, 131.784 95.138 C 133.064 96.128, 132.994 95.834, 131.511 93.983 C 130.417 92.617, 129.404 91.313, 129.261 91.083 C 129.117 90.854, 129.096 96.479, 129.214 103.583 M 203.750 97.662 C 204.438 97.940, 205.563 97.940, 206.250 97.662 C 206.938 97.385, 206.375 97.158, 205 97.158 C 203.625 97.158, 203.063 97.385, 203.750 97.662 M 179.738 100.663 C 179.470 101.123, 179.565 102.367, 179.950 103.427 C 180.622 105.275, 180.679 105.278, 181.358 103.510 C 182.074 101.643, 180.638 99.119, 179.738 100.663 M 170.813 101.683 C 171.534 101.972, 172.397 101.936, 172.729 101.604 C 173.061 101.272, 172.471 101.036, 171.417 101.079 C 170.252 101.127, 170.015 101.364, 170.813 101.683 M 143 107 C 144.565 108.358, 146.622 108.965, 149.403 108.890 L 153.500 108.781 149.072 107.912 C 146.636 107.434, 144.184 106.584, 143.622 106.022 C 143.060 105.460, 142.171 105, 141.647 105 C 141.123 105, 141.732 105.900, 143 107 M 163.218 107.154 C 163.737 108.712, 165.974 108.984, 166.053 107.500 C 166.082 106.950, 165.355 106.345, 164.438 106.154 C 163.395 105.939, 162.938 106.313, 163.218 107.154 M 168.079 107.583 C 168.127 108.748, 168.364 108.985, 168.683 108.188 C 168.972 107.466, 168.936 106.603, 168.604 106.271 C 168.272 105.939, 168.036 106.529, 168.079 107.583 M 180.286 111.500 C 180.294 114.250, 180.488 115.256, 180.718 113.736 C 180.947 112.216, 180.941 109.966, 180.704 108.736 C 180.467 107.506, 180.279 108.750, 180.286 111.500 M 144.750 113.662 C 145.438 113.940, 146.563 113.940, 147.250 113.662 C 147.938 113.385, 147.375 113.158, 146 113.158 C 144.625 113.158, 144.063 113.385, 144.750 113.662 M 225.813 115.683 C 226.534 115.972, 227.397 115.936, 227.729 115.604 C 228.061 115.272, 227.471 115.036, 226.417 115.079 C 225.252 115.127, 225.015 115.364, 225.813 115.683 M 128.607 121.582 C 128.273 122.452, 128 126.207, 128 129.927 C 128 139.792, 127.625 140.006, 110.421 139.975 C 96.649 139.949, 96.425 139.912, 89.500 136.547 C 85.650 134.676, 83.314 133.113, 84.309 133.073 C 85.304 133.033, 85.871 132.601, 85.570 132.113 C 85.269 131.626, 85.692 130.671, 86.511 129.991 C 88.156 128.626, 88.528 126, 87.077 126 C 86.569 126, 84.742 127.188, 83.016 128.640 C 80.836 130.475, 80.198 131.598, 80.924 132.324 C 81.650 133.050, 80.840 133.757, 78.267 134.641 C 74.133 136.062, 73.043 135.335, 73.015 131.139 L 73 128.778 74.914 131.139 C 77.314 134.100, 78.762 132.858, 77.331 129.066 C 76.707 127.414, 76.615 125.638, 77.111 124.855 C 79.665 120.823, 76.290 119.544, 73.261 123.395 C 71.794 125.260, 70.987 125.572, 69.617 124.805 C 66.612 123.124, 63.826 126.539, 64.630 130.918 C 64.992 132.888, 65.594 134.725, 65.967 135 C 67.267 135.957, 67.906 138.940, 66.940 139.537 C 66.405 139.868, 66.226 140.557, 66.543 141.069 C 66.885 141.622, 62.630 142, 56.059 142 C 48.446 142, 45 142.355, 45 143.140 C 45 143.958, 47.647 144.100, 54.372 143.640 C 65.982 142.846, 69.436 143.466, 70.865 146.602 L 71.957 149 58.479 149 C 45.667 149, 45 149.099, 45 151 C 45 152.897, 45.667 153, 58 153 L 71 153 71 156.566 C 71 161.255, 69.449 163.979, 66.715 164.090 C 65.107 164.156, 65.431 164.448, 67.897 165.157 C 73.090 166.650, 74.501 164.630, 74.496 155.714 C 74.492 149.717, 74.829 148.220, 76.491 146.842 C 79.370 144.455, 80 145.381, 80 151.994 C 80 158.141, 78.701 162.934, 76.687 164.214 C 75.981 164.664, 76.580 164.976, 78.168 164.985 C 79.636 164.993, 81.513 165.260, 82.341 165.577 C 83.168 165.895, 84.671 165.332, 85.681 164.327 C 87.033 162.982, 88.965 162.517, 93.009 162.564 C 96.029 162.599, 99.928 162.317, 101.673 161.937 C 103.418 161.557, 105.268 161.668, 105.784 162.184 C 106.934 163.334, 110.457 163.419, 123.946 162.624 C 129.691 162.286, 134.843 161.557, 135.396 161.004 C 135.948 160.452, 136.999 160, 137.731 160 C 138.464 160, 139.337 159.213, 139.673 158.250 C 140.009 157.287, 141.994 154.700, 144.084 152.500 C 146.175 150.300, 148.583 147.150, 149.436 145.500 C 150.921 142.630, 150.988 143.009, 150.994 154.250 C 150.998 161.857, 150.627 166, 149.941 166 C 149.359 166, 149.175 166.474, 149.533 167.053 C 152.194 171.358, 152.869 160.665, 151.352 138.250 L 150.726 129 158.363 129 C 164.485 129, 166 128.702, 166 127.500 C 166 126.675, 166.450 126, 167 126 C 167.550 126, 168 126.675, 168 127.500 C 168 129.401, 169.650 129.447, 170.700 127.576 C 171.844 125.539, 177.451 125.063, 177.479 127 C 177.506 128.917, 187.470 129.685, 189.581 127.933 C 190.675 127.025, 191.351 127.046, 192.530 128.025 C 193.699 128.995, 194.641 129.029, 196.530 128.168 C 198.040 127.480, 199 127.423, 199 128.021 C 199 129.839, 201.183 129.016, 201.710 127 C 201.998 125.900, 202.840 125, 203.581 125 C 204.323 125, 205.411 125.900, 206 127 C 207.500 129.804, 211.807 129.647, 212.891 126.750 C 215.292 120.334, 215.276 120, 212.567 120 C 211.155 120, 210 120.450, 210 121 C 210 121.550, 209.325 122, 208.500 122 C 207.675 122, 207 121.588, 207 121.084 C 207 120.576, 201.824 120.204, 195.405 120.250 C 186.723 120.312, 183.681 120.668, 183.298 121.666 C 182.724 123.162, 180 123.507, 180 122.083 C 180 121.579, 180.563 120.962, 181.250 120.711 C 181.938 120.461, 179.238 120.210, 175.250 120.153 C 170.306 120.083, 168 120.424, 168 121.225 C 168 122.111, 167.705 122.105, 166.800 121.200 C 165.539 119.939, 156.147 119.586, 152.169 120.651 C 150.511 121.096, 149.979 121.812, 150.326 123.138 C 150.822 125.036, 149.936 125.602, 148.583 124.250 C 148.171 123.838, 147.308 123.489, 146.667 123.476 C 146.025 123.463, 145.563 122.675, 145.639 121.726 C 145.760 120.219, 144.726 120, 137.496 120 C 130.866 120, 129.093 120.316, 128.607 121.582 M 187.195 124.500 C 187.215 126.150, 187.439 126.704, 187.693 125.731 C 187.947 124.758, 187.930 123.408, 187.656 122.731 C 187.382 122.054, 187.175 122.850, 187.195 124.500 M 194 124 C 194 125.100, 194.450 126, 195 126 C 195.550 126, 196 125.100, 196 124 C 196 122.900, 195.550 122, 195 122 C 194.450 122, 194 122.900, 194 124 M 216.351 125.240 C 215.212 127.084, 217.557 127.997, 223.109 127.872 C 227.986 127.761, 229.039 127.443, 228.791 126.155 C 228.556 124.935, 227.153 124.563, 222.654 124.527 C 219.446 124.502, 216.610 124.823, 216.351 125.240 M 137.310 127.079 C 137.806 128.973, 137.484 129.129, 133.677 128.829 C 129.943 128.535, 129.465 128.749, 129.168 130.843 C 128.875 132.913, 129.109 133.088, 131.168 132.343 C 135.272 130.859, 141.688 131.408, 143.928 133.435 C 145.074 134.472, 146.306 135.028, 146.664 134.669 C 147.023 134.311, 147.920 134.519, 148.658 135.131 C 149.739 136.028, 150 135.539, 150 132.622 L 150 129 145.406 129 C 141.654 129, 140.717 128.634, 140.290 127 C 140.002 125.900, 139.092 125, 138.267 125 C 137.240 125, 136.938 125.656, 137.310 127.079 M 68.035 127.934 C 66.713 130.405, 66.733 130.667, 68.250 130.667 C 68.938 130.667, 69.500 129.617, 69.500 128.333 C 69.500 125.502, 69.358 125.463, 68.035 127.934 M 215 133.618 C 215 133.997, 217.148 136.600, 219.773 139.403 C 222.398 142.207, 225.534 145.850, 226.741 147.500 C 227.949 149.150, 228.951 150.049, 228.968 149.497 C 228.986 148.945, 225.850 144.992, 222 140.711 C 218.150 136.431, 215 133.238, 215 133.618 M 130.077 136.589 C 126.025 139.998, 126.132 141.403, 130.390 140.712 C 133.168 140.261, 134.240 140.643, 136.327 142.831 C 139.406 146.059, 141.153 150.352, 140.360 152.741 C 140.039 153.709, 141.627 152.568, 143.888 150.207 C 148.960 144.911, 149.072 142.411, 144.452 137.653 C 139.930 132.998, 134.796 132.618, 130.077 136.589 M 81.997 136.529 C 79.621 137.827, 79.743 137.889, 84.500 137.799 C 87.250 137.746, 88.825 137.485, 88 137.217 C 87.175 136.950, 86.049 136.379, 85.497 135.948 C 84.945 135.518, 83.370 135.779, 81.997 136.529 M 170 154.978 L 170 174.957 150.861 175.228 L 131.722 175.500 127.761 180.175 L 123.800 184.849 126.948 189.425 C 128.680 191.941, 130.340 194, 130.638 194 C 131.448 194, 134.928 189.640, 134.967 188.576 C 134.985 188.067, 133.927 188.660, 132.615 189.892 L 130.230 192.132 128.115 189.162 C 126.952 187.528, 126 185.565, 126 184.799 C 126 183.107, 133.102 176, 134.792 176 C 135.858 176, 136.373 179.379, 136.351 186.229 C 136.347 187.579, 136.646 187.709, 137.715 186.821 C 138.665 186.033, 138.766 185.366, 138.042 184.642 C 137.469 184.069, 137 181.890, 137 179.800 L 137 176 154 176 L 171 176 171 155.500 C 171 144.225, 170.775 135, 170.500 135 C 170.225 135, 170 143.990, 170 154.978 M 147 136.378 C 147 136.585, 147.787 137.373, 148.750 138.128 C 150.336 139.371, 150.371 139.336, 149.128 137.750 C 147.821 136.084, 147 135.555, 147 136.378 M 81.500 140 C 81.840 140.550, 84.341 141, 87.059 141 C 89.777 141, 92 140.550, 92 140 C 92 139.450, 89.498 139, 86.441 139 C 82.990 139, 81.116 139.379, 81.500 140 M 73.337 142.435 C 73.640 143.225, 73.477 144.012, 72.976 144.185 C 72.437 144.371, 72.429 145.087, 72.956 145.936 C 73.698 147.131, 74.114 147.150, 75.436 146.053 C 76.593 145.093, 76.735 144.386, 75.959 143.451 C 75.167 142.496, 75.356 142.047, 76.697 141.700 C 77.827 141.407, 77.434 141.189, 75.643 141.116 C 73.544 141.031, 72.932 141.381, 73.337 142.435 M 87.507 142.835 C 87.318 143.019, 87.617 144.472, 88.172 146.062 C 88.726 147.653, 89.027 151.666, 88.840 154.979 C 88.505 160.915, 88.874 161.597, 92.171 161.145 C 93.398 160.976, 111.475 159.644, 113.025 159.607 C 114.179 159.580, 114.620 158.158, 114.838 153.771 C 115.101 148.451, 114.872 147.718, 112.062 144.908 L 108.998 141.845 98.424 142.172 C 92.609 142.353, 87.696 142.651, 87.507 142.835 M 131.933 142.500 C 131.809 143.050, 131.661 146.318, 131.604 149.763 C 131.525 154.538, 131.761 155.671, 132.599 154.529 C 133.945 152.695, 135.077 153.581, 134.284 155.848 C 133.839 157.119, 133.991 157.237, 134.942 156.361 C 137.462 154.039, 136.607 141.889, 134.035 143.478 C 133.560 143.772, 132.943 143.447, 132.664 142.756 C 132.386 142.065, 132.056 141.950, 131.933 142.500 M 117.469 145.593 C 118.714 147.493, 119.079 149.786, 118.834 154.171 L 118.500 160.155 123 159.484 C 129.077 158.578, 130 157.575, 130 151.878 C 130 145.202, 127.739 143, 120.885 143 L 115.770 143 117.469 145.593 M 80.797 153.250 C 80.575 158.338, 80.552 162.709, 80.745 162.965 C 80.938 163.220, 81.862 162.948, 82.798 162.361 C 84.048 161.576, 84.581 159.602, 84.803 154.927 C 85.163 147.388, 84.474 144, 82.580 144 C 81.534 144, 81.102 146.241, 80.797 153.250 M 143.584 145.641 C 143.057 147.014, 143.204 147.076, 144.477 146.019 C 146.212 144.579, 146.393 144, 145.107 144 C 144.616 144, 143.931 144.739, 143.584 145.641 M 181.564 145.707 C 181.022 147.132, 181.136 147.247, 182.124 146.267 C 182.808 145.588, 183.115 144.781, 182.807 144.474 C 182.499 144.166, 181.940 144.721, 181.564 145.707 M 133.638 149.500 C 133.322 150.325, 133.499 151, 134.031 151 C 134.564 151, 135 150.325, 135 149.500 C 135 148.675, 134.823 148, 134.607 148 C 134.391 148, 133.955 148.675, 133.638 149.500 M 52.250 151.742 C 55.962 151.934, 62.038 151.934, 65.750 151.742 C 69.463 151.549, 66.425 151.392, 59 151.392 C 51.575 151.392, 48.538 151.549, 52.250 151.742 M 107.750 161.662 C 108.438 161.940, 109.563 161.940, 110.250 161.662 C 110.938 161.385, 110.375 161.158, 109 161.158 C 107.625 161.158, 107.063 161.385, 107.750 161.662 M 114.655 173.173 C 109.790 178.578, 106.033 183, 106.307 183 C 107.071 183, 124.343 163.997, 123.894 163.650 C 123.677 163.483, 119.520 167.768, 114.655 173.173 M 56 167.051 C 46.691 167.496, 48.310 167.611, 64.500 167.651 C 83.528 167.698, 86.670 167.394, 73.500 166.780 C 70.200 166.626, 62.325 166.748, 56 167.051 M 92.500 168 L 84.500 168.633 92.750 168.817 C 97.706 168.927, 101 168.601, 101 168 C 101 167.450, 100.888 167.083, 100.750 167.183 C 100.612 167.284, 96.900 167.652, 92.500 168" stroke="none" fill="#212121" fill-rule="evenodd" fill-opacity="1"/>
</svg>