<svg xmlns="http://www.w3.org/2000/svg" width="1024" height="1024" viewBox="0 0 256 256" version="1.1" class="injected-svg" data-src="https://storage.googleapis.com/illustroke-c1d67.appspot.com/sKvoQfSqEHPmlLobzx5EfRxGct22/w14tr1tus2xwsqlhbhiw-1.svg" xmlns:xlink="http://www.w3.org/1999/xlink"><rect width="1024" height="1024" fill="white"/>
	<path d="M 134.265 73.542 C 127.300 75.417, 119.739 79.326, 112.880 84.598 C 90.770 101.589, 71.871 140.100, 66.920 178.250 L 65.654 188 39.827 188 C 17.536 188, 14 188.205, 14 189.500 C 14 190.823, 24.079 190.984, 99.250 190.864 C 197.060 190.709, 240.621 189.978, 240.247 188.500 C 240.094 187.895, 234.673 187.500, 226.537 187.500 L 213.080 187.500 212.460 182 C 208.057 142.932, 191.317 99.608, 174.707 84.298 C 162.984 73.491, 148.628 69.673, 134.265 73.542 M 133 77.836 C 107.556 86.280, 84.107 117.817, 72.651 159 C 70.302 167.446, 67.068 183.376, 67.018 186.750 C 67.004 187.738, 81.845 188, 137.941 188 C 177.191 188, 209.123 187.611, 209.421 187.128 C 210.140 185.964, 206.748 165.630, 204.061 155 C 198.533 133.129, 189.297 110.206, 181.251 98.383 C 175.734 90.276, 167.112 82.407, 160.253 79.217 C 152.733 75.720, 141.147 75.133, 133 77.836" stroke="none" fill="#212121" fill-rule="evenodd" fill-opacity="1"/>
</svg>