<svg xmlns="http://www.w3.org/2000/svg" width="1024" height="1024" viewBox="0 0 256 256" version="1.1" class="injected-svg" data-src="https://storage.googleapis.com/illustroke-c1d67.appspot.com/sKvoQfSqEHPmlLobzx5EfRxGct22/hk4mhatzrtufc67v0a9jt-1.svg" xmlns:xlink="http://www.w3.org/1999/xlink"><rect width="1024" height="1024" fill="white"/>
	<path d="M 134.419 58.132 C 134.034 58.754, 134.427 59.659, 135.292 60.144 C 136.989 61.093, 141 70.840, 141 74.014 C 141 75.081, 139.922 76.660, 138.605 77.523 C 136.040 79.204, 137.689 79.465, 98.042 71.082 C 92.841 69.982, 88.470 69.197, 88.329 69.337 C 88.189 69.478, 86.089 75.647, 83.663 83.046 C 77.292 102.479, 66.479 133.237, 65.138 135.743 C 64.505 136.924, 59.941 140.691, 54.995 144.113 C 50.048 147.535, 46.212 150.545, 46.469 150.803 C 46.727 151.060, 48.065 150.532, 49.443 149.630 C 52.290 147.764, 60 146.501, 60 147.900 C 60 148.408, 61.136 148.699, 62.524 148.547 C 63.913 148.394, 65.272 148.630, 65.544 149.071 C 65.816 149.512, 66.818 149.929, 67.770 149.998 C 76.208 150.609, 79.500 150.892, 79.500 151.005 C 79.500 151.078, 80.850 151.305, 82.500 151.510 C 87.232 152.098, 93.981 153.109, 96.340 153.585 C 97.528 153.825, 99.850 154.294, 101.500 154.627 C 103.150 154.961, 106.412 155.160, 108.750 155.071 C 111.088 154.981, 113 155.266, 113 155.704 C 113 156.142, 114.237 156.545, 115.750 156.599 C 120.238 156.761, 130.324 158.082, 131.197 158.622 C 131.643 158.897, 135.043 159.532, 138.754 160.032 C 154.017 162.089, 170.063 164.730, 170.609 165.276 C 171.307 165.974, 164.221 168.113, 137 175.422 C 113.963 181.607, 97.089 186.578, 96.236 187.430 C 94.654 189.013, 97.870 188.333, 113 183.888 L 129.500 179.040 140 182.473 C 149.261 185.500, 181.114 195.158, 186.500 196.571 C 188.306 197.044, 188.330 196.989, 186.752 195.999 C 185.791 195.396, 174.577 191.745, 161.833 187.885 C 149.088 184.026, 137.281 180.304, 135.594 179.616 C 132.555 178.376, 132.607 178.344, 141.100 176.214 C 145.816 175.031, 154.917 172.474, 161.326 170.532 C 167.734 168.589, 173.387 167, 173.887 167 C 174.388 167, 176.246 169.813, 178.018 173.250 C 182.358 181.675, 190.875 195.805, 192.050 196.531 C 194.112 197.805, 192.733 194.713, 186.608 184.333 C 183.093 178.375, 179.206 171.418, 177.970 168.874 L 175.722 164.249 179.775 153.374 C 182.004 147.393, 184.513 140.475, 185.350 138 C 188.225 129.499, 192.876 116.488, 196.431 107 C 200.545 96.019, 200.684 95, 198.067 95 C 195.473 95, 194.549 91.630, 196.366 88.796 C 200.963 81.624, 200.379 70.653, 195.132 65.626 C 190.947 61.617, 183.026 60.367, 174.926 62.436 C 166.606 64.561, 161.563 67.964, 158.897 73.251 C 157.718 75.588, 156.615 77.657, 156.445 77.849 C 156.274 78.041, 153.964 77.017, 151.311 75.573 L 146.488 72.948 146.689 64.909 C 146.835 59.045, 146.566 56.980, 145.695 57.275 C 144.966 57.522, 144.578 59.402, 144.701 62.090 C 144.973 68.055, 144.410 69.585, 142.520 68.017 C 140.810 66.597, 135.671 57.679, 137.057 58.535 C 137.576 58.856, 138 58.641, 138 58.059 C 138 56.647, 135.302 56.702, 134.419 58.132 M 171.248 64.880 C 164.723 67.134, 162.716 68.923, 159.522 75.331 C 156.529 81.337, 156.187 87.662, 158.750 89.608 C 160.693 91.083, 167.777 91.428, 169.797 90.146 C 170.834 89.489, 170.783 89.065, 169.547 88.039 C 167.496 86.337, 167.625 82.423, 169.896 77.421 C 173.200 70.148, 180.128 66.624, 186.316 69.071 C 193.324 71.841, 194.331 74.472, 191.105 81.576 C 189.857 84.324, 188.214 86.083, 186.063 86.974 C 183.212 88.155, 182.587 88.082, 180.186 86.290 C 178.087 84.722, 177.500 83.446, 177.500 80.448 C 177.500 77.196, 177.983 76.330, 180.672 74.760 C 183.579 73.062, 184.141 73.032, 187.422 74.403 C 190.931 75.869, 191.700 75.595, 190.235 73.400 C 188.925 71.438, 185.216 70, 181.466 70 C 173.517 70, 167.641 80.645, 171.601 87.872 C 179.389 102.085, 196.934 95.054, 196.984 77.700 C 196.993 74.511, 196.345 70.634, 195.544 69.085 C 192.483 63.166, 181.642 61.289, 171.248 64.880 M 141.035 68.528 C 141.055 69.063, 141.666 70.573, 142.393 71.885 C 143.331 73.577, 143.937 73.911, 144.479 73.034 C 144.931 72.302, 144.378 70.934, 143.121 69.677 C 141.955 68.510, 141.016 67.993, 141.035 68.528 M 100.140 85.764 C 106.329 93.869, 114.182 103.943, 117.591 108.151 C 121 112.358, 124.203 116.540, 124.708 117.443 C 125.524 118.900, 128.537 118.122, 151.380 110.549 C 165.544 105.854, 179.916 101.367, 183.317 100.578 C 193.193 98.286, 194.922 97.417, 194.304 95.055 C 193.643 92.528, 193.161 92.524, 190 95.014 L 187.500 96.985 191 96.495 C 193.583 96.134, 193.190 96.399, 189.500 97.509 C 185.767 98.632, 181.839 98.867, 174 98.438 C 153.752 97.329, 148 94.927, 148 87.581 C 148 83.553, 146.725 82.587, 140 81.515 C 137.525 81.121, 126.500 78.871, 115.500 76.516 C 104.500 74.162, 94.012 71.963, 92.194 71.631 C 88.947 71.038, 89.088 71.289, 100.140 85.764 M 87.514 76.172 C 83.417 87.441, 67.442 135, 67.754 135 C 67.988 135, 80.068 131.139, 94.600 126.421 C 112.874 120.487, 120.808 117.481, 120.330 116.671 C 119.950 116.027, 117.120 112.350, 114.041 108.500 C 110.962 104.650, 104.884 96.775, 100.533 91 C 89.016 75.710, 88.073 74.636, 87.514 76.172 M 144.667 75.667 C 143.352 76.982, 144.045 78.961, 146.675 81.399 C 148.465 83.059, 149.540 85.300, 149.925 88.177 C 150.377 91.558, 151.071 92.748, 153.180 93.758 C 156.853 95.518, 164.705 96.745, 176 97.326 C 185.022 97.790, 185.261 97.752, 180.749 96.562 C 178.137 95.873, 175.053 94.453, 173.897 93.407 C 172.239 91.907, 170.601 91.573, 166.148 91.826 C 163.041 92.004, 159.201 91.653, 157.613 91.047 C 154.818 89.980, 154.743 89.775, 155.277 84.607 L 155.828 79.269 151.554 77.134 C 147.018 74.868, 145.738 74.596, 144.667 75.667 M 181.280 76.020 C 180.059 76.511, 178.768 78.076, 178.411 79.497 C 177.155 84.504, 183.882 88.257, 187.120 84.356 C 188.331 82.896, 188.237 82.790, 186.280 83.411 C 185.068 83.796, 183.159 83.620, 182.038 83.020 C 179.397 81.607, 179.373 77.977, 182 77.290 C 183.100 77.002, 184 76.369, 184 75.883 C 184 75.398, 183.887 75.029, 183.750 75.063 C 183.613 75.098, 182.501 75.529, 181.280 76.020 M 140.667 77.667 C 139.405 78.928, 140.004 80, 141.969 80 C 143.308 80, 143.753 79.520, 143.362 78.500 C 142.746 76.896, 141.747 76.587, 140.667 77.667 M 182.122 78.904 C 180.181 80.133, 181.650 82, 184.559 82 C 187.299 82, 187.915 79.565, 185.418 78.607 C 183.503 77.872, 183.791 77.846, 182.122 78.904 M 191 101.010 C 187.975 102.020, 174.137 106.518, 160.250 111.005 C 146.363 115.493, 135 119.551, 135 120.024 C 135 120.497, 143.787 130.133, 154.526 141.439 C 173.407 161.314, 174.084 161.909, 175.026 159.432 C 175.562 158.023, 176 156.509, 176 156.068 C 176 155.627, 176.880 153.069, 177.955 150.383 C 181.536 141.436, 196.924 99.590, 196.710 99.380 C 196.595 99.266, 194.025 100, 191 101.010 M 176.813 103.683 C 177.534 103.972, 178.397 103.936, 178.729 103.604 C 179.061 103.272, 178.471 103.036, 177.417 103.079 C 176.252 103.127, 176.015 103.364, 176.813 103.683 M 96.500 127.362 C 82.750 131.884, 70.600 135.950, 69.500 136.396 C 68.054 136.983, 72.620 138.398, 86 141.509 C 100.660 144.917, 155.667 158.413, 168 161.627 C 170.488 162.276, 169.142 160.787, 139.688 130.311 C 131.588 121.930, 130.591 121.205, 128.339 122.061 C 124.853 123.387, 124.301 123.260, 123.710 121 C 123.423 119.900, 122.808 119.031, 122.344 119.070 C 121.880 119.108, 110.250 122.840, 96.500 127.362" stroke="none" fill="#212121" fill-rule="evenodd" fill-opacity="1"/>
</svg>